<svg width="180" height="180" viewBox="0 0 180 180" fill="none" xmlns="http://www.w3.org/2000/svg">
<rect x="1" width="179" height="179" rx="43" fill="black"/>
<g clip-path="url(#clip0_1516_19244)">
<path d="M131.449 64.9805L121.178 92.414L110.906 64.9805H90.4515L90.478 65.0158L90.4338 64.9805V70.5963C90.4338 83.5613 87.7577 92.7943 82.4762 98.0387C78.4489 102.045 74.0771 102.461 72.3902 102.434L69.5728 102.549L61.9421 93.3691C64.5122 91.5119 66.0489 88.4608 67.5503 85.4893C68.0361 84.5165 68.5307 83.5437 69.0783 82.5708L78.1133 64.9805H63.9381L58.5771 75.5223L57.5526 77.5475C56.2897 80.068 54.3908 83.8886 53.1367 83.8886H42.5384V64.9805H29.0874V114.019H42.5296V95.1202H47.2193L63.1521 114.019H78.7139L78.7227 114.028H79.3939C80.2683 114.028 99.6808 113.613 103.293 81.5273L103.894 82.2967L115.773 114.028H126.592L138.471 82.3055V114.028H151.913V64.9805H131.449Z" fill="white"/>
</g>
<defs>
<clipPath id="clip0_1516_19244">
<rect width="122.825" height="49.039" fill="white" transform="translate(29.0874 64.9805)"/>
</clipPath>
</defs>
</svg>
