<svg width="132" height="24" viewBox="0 0 132 24" fill="none" xmlns="http://www.w3.org/2000/svg">
<g clip-path="url(#clip0_1702_20170)">
<path fill-rule="evenodd" clip-rule="evenodd" d="M28.2891 23.721H29.791V0.844727H28.2891V23.721Z" fill="#0B0B0B"/>
<path fill-rule="evenodd" clip-rule="evenodd" d="M45.3994 4.8006L45.5685 3.1006H45.5073L44.8457 4.57264L41.8462 9.27774H41.3851L38.2318 4.55766L37.601 3.11584H37.524L37.7702 4.78534V11.6453H36.3242V1.02148H37.478L41.1234 6.43958L41.6924 7.59298H41.7234L42.2615 6.40908L45.7225 1.02148H46.9377V11.6453H45.3994V4.8006Z" fill="#0B0B0B"/>
<path fill-rule="evenodd" clip-rule="evenodd" d="M54.475 7.09245L54.6907 5.51419H54.5214L53.7676 7.00149L49.9837 11.6456H48.8916V3.67773H50.3066V8.38283L50.199 9.77889H50.3682L51.076 8.42833L54.7829 3.67773H55.8902V11.6456H54.475V7.09245Z" fill="#0B0B0B"/>
<path fill-rule="evenodd" clip-rule="evenodd" d="M63.3037 8.16985H59.2433V11.6456H57.8281V3.67773H59.2433V6.92577H63.3037V3.67773H64.7191V11.6456H63.3037V8.16985Z" fill="#0B0B0B"/>
<path fill-rule="evenodd" clip-rule="evenodd" d="M68.9489 8.06363H68.0718V11.6456H66.6572V3.67773H68.0718V7.30487L68.9183 7.03171L71.6713 3.67773H73.2247L70.5948 6.77379H70.61L69.7795 7.36561L70.7792 8.04839L73.625 11.6456H71.8403L68.9489 8.06363Z" fill="#0B0B0B"/>
<path fill-rule="evenodd" clip-rule="evenodd" d="M75.2404 7.66923C75.2404 8.04361 75.2832 8.41023 75.3695 8.76937C75.4555 9.12879 75.5945 9.45021 75.7871 9.73335C75.9794 10.0168 76.2275 10.2442 76.5311 10.4161C76.8352 10.5883 77.2096 10.6743 77.6553 10.6743C79.2345 10.6743 80.0238 9.67235 80.0238 7.66923C80.0238 7.27431 79.981 6.89521 79.8948 6.53081C79.8087 6.16667 79.6719 5.84553 79.4848 5.56709C79.2975 5.28867 79.0523 5.06403 78.748 4.89181C78.4446 4.71987 78.0799 4.63389 77.6553 4.63389C76.8652 4.63389 76.2652 4.88405 75.8552 5.38517C75.4451 5.88575 75.2404 6.64727 75.2404 7.66923ZM73.7021 7.66923C73.7021 7.01169 73.7891 6.42237 73.9636 5.90071C74.1381 5.37991 74.3944 4.93729 74.7326 4.57289C75.0711 4.20875 75.4836 3.93061 75.9709 3.73813C76.458 3.54623 77.0146 3.44971 77.6399 3.44971C78.2958 3.44971 78.8706 3.55593 79.3624 3.76865C79.8549 3.98107 80.265 4.27697 80.5931 4.65663C80.9215 5.03575 81.1645 5.48141 81.3236 5.99195C81.4826 6.50307 81.562 7.06215 81.562 7.66923C81.562 8.31677 81.4726 8.89833 81.293 9.41443C81.1134 9.93081 80.857 10.3706 80.524 10.735C80.1908 11.0989 79.7801 11.3773 79.2933 11.5698C78.8062 11.7617 78.2551 11.8579 77.6399 11.8579C76.9631 11.8579 76.3785 11.7517 75.8866 11.5393C75.3942 11.3269 74.9868 11.0334 74.6633 10.6593C74.3408 10.2849 74.0996 9.84207 73.9405 9.33095C73.7812 8.82039 73.7021 8.26631 73.7021 7.66923Z" fill="#0B0B0B"/>
<path fill-rule="evenodd" clip-rule="evenodd" d="M90.5139 7.13793L90.6083 5.51419H90.4253L89.7404 6.75855L87.6839 9.77889H87.2069L85.0225 6.75855L84.4073 5.51419H84.2381L84.3767 7.12295V11.6456H83.0693V3.67773H84.5456L86.9611 7.18341L87.545 8.29134L88.1841 7.15317L90.4194 3.67773H91.9291V11.6456H90.5139V7.13793Z" fill="#0B0B0B"/>
<path fill-rule="evenodd" clip-rule="evenodd" d="M99.9586 11.0989C99.599 11.3524 99.1792 11.5421 98.6972 11.6682C98.2152 11.7947 97.7073 11.8579 97.1744 11.8579C96.4976 11.8579 95.9205 11.7567 95.4442 11.5545C94.9669 11.3524 94.5799 11.0687 94.2826 10.7048C93.9848 10.3401 93.77 9.90031 93.6364 9.38421C93.5028 8.86809 93.4365 8.29653 93.4365 7.66923C93.4365 6.32363 93.7671 5.28395 94.4283 4.55015C95.0901 3.81689 96.0413 3.44971 97.282 3.44971C97.8253 3.44971 98.2969 3.49797 98.6972 3.59393C99.0967 3.69043 99.4557 3.80885 99.7735 3.95085L99.4069 5.08899C99.132 4.94755 98.8337 4.83607 98.5128 4.75509C98.1915 4.67411 97.8431 4.63389 97.4659 4.63389C95.8054 4.63389 94.9748 5.64557 94.9748 7.66923C94.9748 8.05387 95.0204 8.42549 95.112 8.78463C95.2042 9.14403 95.3518 9.46269 95.5555 9.74085C95.7592 10.0193 96.0272 10.2442 96.3582 10.4161C96.6889 10.5883 97.0947 10.6743 97.5735 10.6743C98.0016 10.6743 98.376 10.6161 98.6972 10.4996C99.0181 10.3834 99.2857 10.2442 99.4995 10.0822L99.9586 11.0989Z" fill="#0B0B0B"/>
<path fill-rule="evenodd" clip-rule="evenodd" d="M102.65 10.5529C102.873 10.5831 103.092 10.6059 103.306 10.6214C103.519 10.6367 103.784 10.6442 104.099 10.6442C104.903 10.6442 105.482 10.5402 105.838 10.3327C106.194 10.1256 106.372 9.7839 106.372 9.30828C106.372 9.1161 106.336 8.93888 106.265 8.77692C106.194 8.61524 106.077 8.4788 105.914 8.3676C105.751 8.25612 105.53 8.16764 105.251 8.10164C104.971 8.0362 104.627 8.00292 104.221 8.00292H102.65V10.5529ZM104.403 7.04698C104.628 7.04698 104.844 7.0173 105.049 6.95712C105.254 6.89722 105.439 6.81236 105.603 6.70254C105.767 6.59244 105.898 6.46542 105.995 6.32038C106.093 6.17562 106.141 6.01838 106.141 5.84838C106.141 5.42906 105.995 5.13704 105.703 4.9723C105.411 4.8073 104.911 4.72492 104.203 4.72492C103.967 4.72492 103.729 4.73242 103.488 4.74712C103.247 4.76264 102.967 4.77484 102.65 4.78484V7.04698H104.403ZM101.234 3.67774L101.819 3.64696C102.147 3.627 102.506 3.60426 102.895 3.57874C103.285 3.55378 103.736 3.54102 104.249 3.54102C105.439 3.54102 106.292 3.70548 106.81 4.03438C107.328 4.36302 107.587 4.85138 107.587 5.49894C107.587 5.85308 107.461 6.21 107.21 6.56886C106.959 6.928 106.561 7.18896 106.018 7.35036V7.51732C106.695 7.64904 107.179 7.87174 107.472 8.1854C107.764 8.49904 107.91 8.91364 107.91 9.42976C107.91 10.2293 107.577 10.8186 106.91 11.198C106.244 11.5774 105.238 11.767 103.896 11.767C103.444 11.767 103.019 11.7543 102.619 11.7291C102.219 11.7035 101.829 11.6761 101.45 11.6456C101.408 11.6456 101.373 11.6431 101.342 11.6381C101.311 11.6331 101.275 11.6306 101.234 11.6306V3.67774Z" fill="#0B0B0B"/>
<path fill-rule="evenodd" clip-rule="evenodd" d="M114.185 7.63886V4.77022C114.023 4.71974 113.837 4.68674 113.629 4.67176C113.421 4.6565 113.24 4.64902 113.088 4.64902C112.325 4.64902 111.751 4.77022 111.365 5.01288C110.979 5.2558 110.786 5.64046 110.786 6.16654C110.786 6.67266 111.012 7.05204 111.464 7.30468C111.917 7.5576 112.509 7.67408 113.241 7.65412L114.185 7.63886ZM114.185 8.50384L112.724 8.70103L110.432 11.6454H108.679L110.709 9.03492V9.05019L111.571 8.47362C110.853 8.39264 110.286 8.14194 109.871 7.72234C109.455 7.30246 109.248 6.78858 109.248 6.1818C109.248 5.70618 109.34 5.2963 109.525 4.95214C109.709 4.60826 109.973 4.3251 110.317 4.10242C110.66 3.87972 111.076 3.71776 111.563 3.61654C112.05 3.51586 112.596 3.46484 113.201 3.46484C113.591 3.46484 113.998 3.49036 114.424 3.54082C114.85 3.59158 115.241 3.6573 115.6 3.738V11.6454H114.185V8.50384Z" fill="#0B0B0B"/>
<path fill-rule="evenodd" clip-rule="evenodd" d="M118.462 8.10912V7.04698H119.653C119.88 7.04698 120.098 7.01674 120.31 6.95602C120.521 6.89528 120.709 6.8118 120.874 6.70558C121.039 6.5991 121.17 6.47292 121.268 6.3262C121.366 6.17922 121.416 6.02004 121.416 5.84782C121.416 5.42324 121.256 5.12954 120.937 4.96758C120.618 4.8059 120.134 4.72492 119.486 4.72492C119.033 4.72492 118.619 4.77318 118.244 4.86914C117.868 4.96538 117.562 5.0641 117.325 5.16476L116.939 4.10262C117.606 3.72822 118.605 3.54102 119.939 3.54102C120.902 3.54102 121.631 3.70798 122.123 4.04188C122.615 4.3755 122.861 4.86138 122.861 5.49894C122.861 5.67116 122.828 5.84782 122.761 6.03002C122.695 6.21222 122.594 6.38666 122.461 6.55362C122.328 6.72056 122.167 6.87254 121.976 7.00898C121.786 7.1457 121.569 7.2497 121.323 7.32014V7.48708C122.02 7.60856 122.507 7.83374 122.784 8.16238C123.061 8.49128 123.2 8.91892 123.2 9.445C123.2 9.7789 123.123 10.0901 122.969 10.3782C122.815 10.6669 122.584 10.917 122.277 11.1295C121.969 11.3419 121.582 11.5091 121.115 11.6306C120.648 11.7518 120.108 11.8125 119.492 11.8125C118.888 11.8125 118.387 11.7718 117.993 11.6911C117.598 11.6104 117.242 11.4939 116.924 11.3419L117.291 10.234C117.566 10.376 117.897 10.4769 118.283 10.5377C118.671 10.5984 119.094 10.6289 119.552 10.6289C120.958 10.6289 121.661 10.1885 121.661 9.30828C121.661 8.91364 121.493 8.61524 121.159 8.41308C120.823 8.21036 120.239 8.10912 119.406 8.10912H118.462Z" fill="#0B0B0B"/>
<path fill-rule="evenodd" clip-rule="evenodd" d="M126.122 10.462C126.549 10.5224 126.981 10.5529 127.418 10.5529C128.16 10.5529 128.706 10.4237 129.057 10.1658C129.407 9.90814 129.583 9.55094 129.583 9.09586C129.583 8.69152 129.413 8.35206 129.072 8.0789C128.731 7.80574 128.195 7.66929 127.463 7.66929C127.27 7.66929 127.056 7.67706 126.823 7.69204C126.589 7.70727 126.356 7.74 126.122 7.79075V10.462ZM126.122 6.72831C126.45 6.67757 126.752 6.64458 127.03 6.62932C127.306 6.61434 127.552 6.60658 127.768 6.60658C128.383 6.60658 128.903 6.66731 129.329 6.78877C129.755 6.91051 130.1 7.07747 130.367 7.28963C130.634 7.50233 130.826 7.75276 130.944 8.0409C131.062 8.32932 131.121 8.64048 131.121 8.97438C131.121 9.9356 130.798 10.6367 130.152 11.0762C129.506 11.5166 128.496 11.7365 127.122 11.7365C126.691 11.7365 126.281 11.7316 125.891 11.7216C125.501 11.7113 125.107 11.6911 124.707 11.6608V3.67773H126.122V6.72831Z" fill="#0B0B0B"/>
<path fill-rule="evenodd" clip-rule="evenodd" d="M39.2777 14.3625C39.0008 14.3625 38.7314 14.3674 38.4701 14.3772C38.2085 14.3874 38.0062 14.4124 37.8625 14.452V18.4763C37.9135 18.4963 37.9983 18.5087 38.1162 18.514C38.234 18.519 38.357 18.5262 38.4855 18.5365C38.6134 18.5462 38.7365 18.5512 38.8546 18.5512C38.9724 18.5512 39.0622 18.5512 39.1238 18.5512C39.4929 18.5512 39.8568 18.524 40.2161 18.4688C40.5747 18.4139 40.9004 18.3069 41.1927 18.1477C41.4848 17.9877 41.7205 17.7636 41.9001 17.4743C42.0795 17.1848 42.1695 16.8107 42.1695 16.352C42.1695 15.9529 42.0819 15.624 41.908 15.3644C41.7333 15.1057 41.5077 14.901 41.231 14.7513C40.9544 14.6018 40.644 14.4995 40.3005 14.4445C39.9569 14.3899 39.616 14.3625 39.2777 14.3625ZM36.3242 13.2695C36.7551 13.1786 37.2242 13.1156 37.7317 13.0798C38.2393 13.0446 38.7393 13.0269 39.2315 13.0269C39.7542 13.0269 40.2853 13.0723 40.8234 13.1633C41.362 13.2543 41.8513 13.4215 42.2925 13.6641C42.7332 13.9068 43.0946 14.2432 43.3769 14.6733C43.6587 15.1035 43.7998 15.6576 43.7998 16.3351C43.7998 16.9726 43.6715 17.5168 43.4151 17.9669C43.1589 18.4172 42.8179 18.7839 42.3923 19.0673C41.9668 19.3507 41.4797 19.5581 40.931 19.6893C40.3824 19.821 39.816 19.8871 39.2315 19.8871C39.17 19.8871 39.075 19.8843 38.9469 19.8796C38.8186 19.874 38.6854 19.8693 38.5472 19.8643C38.4085 19.8588 38.2751 19.8513 38.1472 19.8416C38.0187 19.8313 37.9241 19.821 37.8625 19.8113V23.7871H36.3242V13.2695Z" fill="#0B0B0B"/>
<path fill-rule="evenodd" clip-rule="evenodd" d="M45.6923 19.8111C45.6923 20.1852 45.7353 20.5518 45.8213 20.911C45.9076 21.27 46.0466 21.5912 46.239 21.8746C46.4312 22.1578 46.6795 22.386 46.9833 22.5578C47.2871 22.73 47.6613 22.8156 48.1072 22.8156C49.6862 22.8156 50.4759 21.814 50.4759 19.8111C50.4759 19.4162 50.4331 19.0368 50.3472 18.6724C50.2609 18.3083 50.1244 17.9868 49.9372 17.7084C49.7497 17.4305 49.504 17.2053 49.2002 17.0331C48.8967 16.8614 48.5321 16.7752 48.1072 16.7752C47.3173 16.7752 46.7174 17.0256 46.3073 17.5265C45.8975 18.0273 45.6923 18.7889 45.6923 19.8111ZM44.1543 19.8111C44.1543 19.153 44.2413 18.5637 44.4158 18.0426C44.5899 17.5218 44.8463 17.0786 45.1848 16.7145C45.5231 16.3501 45.936 16.0722 46.4231 15.88C46.9101 15.6875 47.4663 15.5913 48.092 15.5913C48.7484 15.5913 49.3224 15.6975 49.8145 15.9102C50.3067 16.1227 50.7169 16.4186 51.0451 16.7979C51.3734 17.1773 51.6167 17.623 51.7758 18.1338C51.9347 18.6444 52.0142 19.2037 52.0142 19.8111C52.0142 20.4584 51.9242 21.04 51.7452 21.556C51.5656 22.0718 51.309 22.5122 50.976 22.8766C50.6425 23.241 50.2323 23.5194 49.7454 23.7112C49.2581 23.9032 48.7072 23.9998 48.092 23.9998C47.4152 23.9998 46.8307 23.893 46.3385 23.6808C45.8464 23.4684 45.4388 23.1748 45.1155 22.8004C44.7926 22.4266 44.5514 21.9836 44.3927 21.4728C44.2335 20.962 44.1543 20.4078 44.1543 19.8111Z" fill="#0B0B0B"/>
<path fill-rule="evenodd" clip-rule="evenodd" d="M59.7658 23.241C59.4068 23.494 58.9865 23.6834 58.5047 23.8096C58.0224 23.9366 57.5149 23.9998 56.982 23.9998C56.3052 23.9998 55.7282 23.8986 55.2514 23.6958C54.7745 23.494 54.3875 23.21 54.0902 22.8458C53.7924 22.4818 53.5772 22.0414 53.4442 21.5258C53.3106 21.0096 53.2441 20.4382 53.2441 19.8111C53.2441 18.4652 53.5749 17.4255 54.2363 16.6917C54.8975 15.9585 55.8488 15.5913 57.0897 15.5913C57.6329 15.5913 58.1047 15.6396 58.5047 15.7355C58.9046 15.8317 59.2633 15.9507 59.5812 16.0921L59.2147 17.2306C58.9394 17.0889 58.6413 16.9779 58.3204 16.8967C57.9993 16.816 57.6505 16.7752 57.2737 16.7752C55.6126 16.7752 54.7824 17.7872 54.7824 19.8111C54.7824 20.1954 54.8278 20.567 54.9198 20.9262C55.0116 21.2854 55.1596 21.6042 55.3633 21.8822C55.567 22.1606 55.8344 22.386 56.1658 22.5578C56.4968 22.73 56.9022 22.8156 57.3811 22.8156C57.809 22.8156 58.1834 22.7576 58.5047 22.6412C58.8257 22.5252 59.0933 22.386 59.3075 22.224L59.7658 23.241Z" fill="#0B0B0B"/>
<path fill-rule="evenodd" clip-rule="evenodd" d="M66.9338 23.241C66.5748 23.494 66.1544 23.6834 65.673 23.8096C65.1904 23.9366 64.6831 23.9998 64.1502 23.9998C63.4734 23.9998 62.8961 23.8986 62.4194 23.6958C61.9425 23.494 61.5555 23.21 61.2582 22.8458C60.9604 22.4818 60.7451 22.0414 60.612 21.5258C60.4788 21.0096 60.4121 20.4382 60.4121 19.8111C60.4121 18.4652 60.7429 17.4255 61.4043 16.6917C62.0659 15.9585 63.0163 15.5913 64.2578 15.5913C64.8012 15.5913 65.2727 15.6396 65.673 15.7355C66.0727 15.8317 66.4315 15.9507 66.7495 16.0921L66.3827 17.2306C66.1072 17.0889 65.8096 16.9779 65.4886 16.8967C65.1673 16.816 64.8189 16.7752 64.4417 16.7752C62.7808 16.7752 61.9502 17.7872 61.9502 19.8111C61.9502 20.1954 61.996 20.567 62.0878 20.9262C62.1794 21.2854 62.3276 21.6042 62.5311 21.8822C62.7348 22.1606 63.0025 22.386 63.3337 22.5578C63.6647 22.73 64.0701 22.8156 64.5493 22.8156C64.9768 22.8156 65.3518 22.7576 65.673 22.6412C65.9935 22.5252 66.2614 22.386 66.4755 22.224L66.9338 23.241Z" fill="#0B0B0B"/>
<path fill-rule="evenodd" clip-rule="evenodd" d="M73.9475 19.234L74.1633 17.6555H73.9937L73.2401 19.1428L69.4562 23.7869H68.3643V15.8193H69.7795V20.5239L69.6718 21.9203H69.8409L70.5485 20.5693L74.2556 15.8193H75.3627V23.7869H73.9475V19.234Z" fill="#0B0B0B"/>
<path fill-rule="evenodd" clip-rule="evenodd" d="M83.0383 19.234L83.2537 17.6555H83.0845L82.3307 19.1428L78.5468 23.7869H77.4551V15.8193H78.8697V20.5239L78.762 21.9203H78.9313L79.6387 20.5693L83.3458 15.8193H84.4535V23.7869H83.0383V19.234Z" fill="#0B0B0B"/>
<path fill-rule="evenodd" clip-rule="evenodd" d="M11.5076 12.7505C11.4056 12.705 11.3032 12.6551 11.2026 12.6019C11.2577 12.5672 11.31 12.5342 11.3611 12.5023L11.6192 12.6762L11.5076 12.7505ZM10.9421 13.1282L10.6234 12.9133C10.7349 12.8617 10.8409 12.8074 10.9421 12.753C11.0441 12.8074 11.1503 12.8617 11.263 12.9133L10.9421 13.1282ZM11.6017 13.9505L10.9421 14.4L10.2847 13.9505L10.9421 13.5104L11.6017 13.9505ZM10.267 12.6762L10.5239 12.5023C10.5736 12.5342 10.6262 12.5672 10.6824 12.6019C10.5818 12.6551 10.4809 12.705 10.3788 12.7505L10.267 12.6762ZM10.9421 12.2186L11.1273 12.3431C11.0694 12.3805 11.0064 12.4174 10.9421 12.4557C10.8788 12.4174 10.8167 12.3805 10.7577 12.3431L10.9421 12.2186ZM13.3853 11.5594C13.3797 11.5527 13.2454 11.4163 13.0101 11.4163C12.8879 11.4163 12.76 11.4548 12.6327 11.5278C12.6096 11.5394 12.5961 11.5647 12.6003 11.5902C12.6017 11.5966 12.6931 12.2172 12.6231 12.4837C12.5708 12.6839 12.3985 12.9188 12.0854 12.9188C12.0183 12.9188 11.95 12.908 11.8772 12.8881C11.8772 12.8881 11.8746 12.8881 11.8746 12.8869L12.111 12.7289C12.1287 12.7169 12.1394 12.6984 12.1394 12.6773C12.1394 12.6562 12.1287 12.6376 12.111 12.6257L11.6422 12.3073C11.79 12.1972 11.8839 12.119 11.896 12.1085C11.9095 12.0966 11.9188 12.081 11.9188 12.0633C11.9188 12.0464 11.912 12.0289 11.8988 12.017L11.8153 11.9335C11.8032 11.9216 11.7858 11.9149 11.7712 11.9149C11.7577 11.9149 11.7428 11.9202 11.7321 11.9282C11.7268 11.9307 11.6029 12.025 11.4148 12.1534L11.2268 12.025L11.9635 11.5253L12.0211 11.6695C12.0306 11.692 12.0506 11.708 12.0776 11.7094C12.0776 11.7094 12.0787 11.7094 12.0801 11.7094C12.1031 11.7094 12.1245 11.6961 12.1352 11.6764L12.4859 11.04C12.498 11.0183 12.4955 10.9934 12.482 10.9731C12.4699 10.9562 12.45 10.9468 12.4294 10.9468C12.4269 10.9468 12.4241 10.9468 12.4202 10.9468L11.6945 11.0541C11.6703 11.0569 11.6487 11.0741 11.6422 11.0982C11.6369 11.1207 11.6433 11.1456 11.6607 11.1628L11.7791 11.2651L10.9421 11.8326L10.1073 11.2651L10.2243 11.1628C10.2417 11.1456 10.2496 11.1207 10.2417 11.0982C10.2363 11.0741 10.2161 11.0569 10.1905 11.0541L9.46483 10.9468C9.46229 10.9468 9.45808 10.9468 9.45554 10.9468C9.43391 10.9468 9.41367 10.9562 9.40298 10.9731C9.3895 10.9934 9.38837 11.0183 9.39905 11.04L9.74841 11.6764C9.7605 11.6961 9.78214 11.7094 9.80491 11.7094C9.80772 11.7094 9.80772 11.7094 9.80884 11.7094C9.83302 11.708 9.85467 11.692 9.86421 11.6695L9.92184 11.5253L10.6582 12.025L10.4702 12.1534C10.2807 12.025 10.1571 11.9307 10.1543 11.9282C10.1422 11.9202 10.129 11.9149 10.1155 11.9149C10.0978 11.9149 10.0817 11.9216 10.0697 11.9335L9.9848 12.017C9.9727 12.0289 9.96623 12.0464 9.96623 12.0633C9.96736 12.081 9.97551 12.0966 9.98759 12.1085C10.0011 12.119 10.0938 12.1972 10.2431 12.3073L9.7726 12.6257C9.75656 12.6376 9.7456 12.6562 9.7456 12.6773C9.74702 12.6984 9.75656 12.7169 9.77371 12.7289L10.0104 12.8869C10.0104 12.8881 10.009 12.8881 10.0078 12.8881C9.93532 12.908 9.86675 12.9188 9.80097 12.9188C9.48759 12.9188 9.31447 12.6839 9.26191 12.4837C9.19192 12.2172 9.28496 11.5966 9.28496 11.5902C9.28889 11.5647 9.27652 11.5394 9.25374 11.5278C9.12475 11.4548 8.99715 11.4163 8.87628 11.4163C8.64104 11.4163 8.50529 11.5527 8.49994 11.5594C8.48926 11.5688 8.48251 11.5832 8.48251 11.5966C8.47858 11.6351 8.40719 12.5317 8.82794 12.9848C8.98394 13.1523 9.18657 13.2369 9.4325 13.2369C9.47579 13.2369 9.52245 13.2358 9.56854 13.2292C9.80772 13.2012 10.0416 13.1388 10.267 13.0592L10.6571 13.319L9.79283 13.8959C9.77511 13.9094 9.76443 13.928 9.76443 13.9491C9.76443 13.9691 9.77371 13.9888 9.79283 14.0007L10.6596 14.5922L9.92042 15.0972L9.86421 14.9558C9.85467 14.9344 9.83302 14.9186 9.80884 14.917C9.80772 14.9159 9.80772 14.9159 9.80491 14.9159C9.78214 14.9159 9.7605 14.9289 9.74841 14.9489L9.39905 15.5867C9.38837 15.6067 9.3895 15.633 9.40298 15.6516C9.41367 15.6688 9.43391 15.6782 9.45554 15.6782C9.45808 15.6782 9.46229 15.6782 9.46483 15.6782L10.1905 15.5723C10.2161 15.5681 10.2363 15.5509 10.2417 15.5285C10.2496 15.5046 10.2417 15.4791 10.2243 15.4622L10.1045 15.3574L10.9421 14.7858L11.7805 15.3574L11.6607 15.4622C11.6422 15.4791 11.6355 15.5046 11.6422 15.5285C11.6487 15.5509 11.6689 15.5681 11.6945 15.5723L12.4202 15.6782C12.4241 15.6782 12.4269 15.6782 12.4294 15.6782C12.45 15.6782 12.4699 15.6688 12.482 15.6516C12.4955 15.633 12.4969 15.6067 12.4859 15.5867L12.1352 14.9489C12.1245 14.9289 12.1031 14.9159 12.0801 14.9159C12.0787 14.9159 12.0776 14.9159 12.0776 14.917C12.0506 14.9186 12.0306 14.9344 12.0211 14.9558L11.9635 15.0972L11.2254 14.5922L12.0922 14.0007C12.1099 13.9888 12.1206 13.9691 12.1206 13.9491C12.1206 13.928 12.1099 13.9094 12.0922 13.8959L11.2282 13.319L11.6192 13.0592C11.8437 13.1388 12.0787 13.2012 12.3167 13.2292C12.3637 13.2358 12.4095 13.2369 12.4525 13.2369C12.6984 13.2369 12.9028 13.1523 13.0574 12.9848C13.4792 12.5317 13.4067 11.6351 13.4028 11.5966C13.4014 11.5832 13.3946 11.5688 13.3853 11.5594Z" fill="#0B0B0B"/>
<path fill-rule="evenodd" clip-rule="evenodd" d="M13.6104 12.0861C13.6362 12.037 13.6484 11.9416 13.6484 11.9416L13.6104 11.9297V12.0861Z" fill="#0B0B0B"/>
<path fill-rule="evenodd" clip-rule="evenodd" d="M12.9313 16.1664C12.2486 17.4754 10.9973 18.5411 10.9827 18.5256C10.9678 18.5411 9.71653 17.4754 9.03384 16.1664C8.35115 14.8588 7.91327 12.8047 7.88909 11.8235C7.86464 10.8423 8.05941 10.4219 8.05941 10.4219C8.05941 10.4219 8.91299 10.3753 9.59569 10.1407C10.1749 9.94322 10.8054 9.44182 10.9827 9.29594C11.1587 9.44182 11.7905 9.94322 12.3709 10.1407C13.0524 10.3753 13.9057 10.4219 13.9057 10.4219C13.9057 10.4219 14.1008 10.8423 14.075 11.8235C14.0508 12.8047 13.6129 14.8588 12.9313 16.1664ZM12.9957 20.617C13.0845 20.785 13.1357 21.1142 12.8641 21.1394C12.7124 20.7466 12.5297 20.5174 12.3037 20.2006C12.094 19.9563 11.863 19.7045 11.6977 19.4286C12.0685 19.8581 12.8133 20.2866 12.9957 20.617ZM11.6977 22.6126C11.7486 22.2278 11.6477 21.3688 11.4895 20.785C11.3804 20.3926 11.019 19.362 11.18 18.9937C11.2433 19.479 11.4397 20.2376 11.7233 20.8596C11.9246 21.306 12.2205 22.3446 11.6977 22.6126ZM10.4746 20.785C10.3242 21.3688 10.2166 22.2278 10.2674 22.6126C9.74353 22.3446 10.0406 21.306 10.2421 20.8596C10.5243 20.2376 10.7205 19.479 10.7837 18.9937C10.9465 19.362 10.5847 20.3926 10.4746 20.785ZM9.66819 20.2006C9.43436 20.5174 9.25168 20.7466 9.10101 21.1394C8.82952 21.1142 8.88066 20.785 8.96949 20.617C9.15217 20.2866 9.89529 19.8581 10.2674 19.4286C10.1024 19.7045 9.87113 19.9524 9.66819 20.2006ZM6.87558 15.9398C6.88908 16.0258 6.90116 16.0763 6.93853 16.1331C6.45343 16.2074 6.24658 16.3944 6.07062 16.698C5.82329 17.1079 6.0813 17.6371 6.01133 17.8559C5.96185 17.9926 5.79913 18.1238 5.54082 18.0045C5.6659 18.5519 6.35956 18.4898 6.54196 18.1848C6.60409 18.4394 6.54196 18.7325 6.41577 18.8437C6.63107 18.8556 6.81376 18.7694 6.92645 18.601C6.95203 18.6515 6.95203 18.7206 6.96411 18.7813C7.08384 18.7206 7.16058 18.6515 7.21004 18.5891C7.22887 18.6501 7.25305 18.7932 7.22354 18.9103C7.13107 18.9724 7.02596 19.0295 6.8635 19.1116C6.60409 19.2364 6.13358 19.4166 5.86209 19.4535C5.64032 19.491 5.25611 19.3662 5.15521 19.0611C5.06639 18.7694 4.82188 18.6767 4.6257 18.8556C4.57595 18.8185 4.43766 18.7932 4.37977 18.8825C4.37977 18.8825 4.31793 18.7444 4.24121 18.6767C4.29237 18.5267 4.25329 18.3464 4.11501 18.2857C4.10293 17.9926 3.92024 17.9926 3.857 17.893C3.8196 17.8306 3.8196 17.7549 3.90814 17.743C3.87048 17.6875 3.79376 17.6756 3.78168 17.6756C3.80612 17.5508 3.76818 17.3958 3.59897 17.3453L2.10459 14.3044C2.19986 14.2052 2.1504 14.0618 2.04135 14.0113C2.04135 14.0113 2.04135 13.9994 2.04135 13.9877C2.05061 13.9639 2.05203 13.945 2.05483 13.9267C2.09502 13.9198 2.14365 13.9106 2.18666 13.9001C2.48233 13.831 2.94299 13.4028 3.34096 13.135C3.201 13.2781 2.62172 13.6946 2.36371 13.9373C2.12314 14.1733 2.22404 14.4093 2.2631 14.6217L2.31959 14.7393C2.53854 14.7529 2.86654 14.8829 3.11246 14.6835C3.18892 14.6095 4.26679 13.29 4.41068 13.1602C4.35559 13.2781 3.67431 14.1242 3.36654 14.6095C3.13804 14.9756 3.47279 15.2182 3.51157 15.429C3.7561 15.3547 4.09083 15.498 4.26679 15.2063C4.43766 14.9262 4.96044 13.9253 5.15521 13.6441C5.07989 13.8629 4.5248 15.0008 4.48742 15.1001C4.35559 15.4861 4.68894 15.5604 4.82188 15.8161C5.0234 15.6733 5.38793 15.7845 5.52762 15.4171C5.61474 15.1689 5.83651 14.3044 5.95089 14.0737C5.93741 14.3299 5.86209 14.6716 5.81121 15.0499C5.76005 15.429 6.1201 15.4171 6.3084 15.6359C6.49109 15.4861 6.82584 15.5233 6.87558 15.1808C6.92645 14.8763 6.93853 14.1361 6.93853 14.1361C6.98969 14.1799 7.01527 14.1918 7.07176 14.242C7.19656 14.0992 7.45625 14.0992 7.54366 13.9253C7.58245 13.9373 7.59453 13.9625 7.63219 13.9877C7.91578 14.4528 7.93996 15.3547 7.54366 15.6733C7.65777 15.6733 7.8028 15.6597 7.89022 15.6228C7.71426 15.9767 7.32302 16.1018 6.87558 15.9398ZM2.33955 12.6815C2.27378 12.7079 2.19732 12.7412 2.13662 12.7661C2.13662 12.7611 2.13662 12.7542 2.13662 12.7492C2.19846 12.7267 2.27518 12.704 2.33955 12.6815ZM8.80423 5.03124C9.51108 4.88148 10.2286 4.49018 10.5513 4.16154C10.8186 4.17734 11.164 4.17984 11.4262 4.16542C11.7447 4.49682 12.4529 4.88148 13.1598 5.03124C12.7497 5.03124 12.0322 4.99408 11.9437 4.89452C11.9693 5.1491 12.5173 5.43696 12.8762 5.51656C12.5791 5.55344 12.3037 5.51656 12.0685 5.41172C12.1963 5.59198 12.34 5.7287 12.5791 5.80968C12.3279 6.11474 11.8118 6.3122 11.2998 6.26312C11.4262 6.41286 11.6601 6.50578 11.863 6.48054C11.4032 7.20464 11.062 7.94704 10.9813 8.80784L10.9785 8.80674L10.9774 8.80952C10.9007 7.94704 10.562 7.20464 10.1036 6.48054C10.3107 6.50578 10.5392 6.41286 10.6575 6.26312C10.1412 6.3122 9.64263 6.11474 9.3846 5.80968C9.6252 5.7287 9.76883 5.59198 9.89529 5.41172C9.66821 5.51656 9.3846 5.55344 9.08893 5.51656C9.44784 5.43696 10.0029 5.1491 10.0268 4.89452C9.93295 4.99408 9.21541 5.03124 8.80423 5.03124ZM13.5187 21.4932C13.6773 21.7612 13.4569 21.9534 13.1477 21.9534C13.1477 21.8488 13.1477 21.8114 13.1222 21.6858C13.266 21.6722 13.4341 21.6192 13.5187 21.4932ZM8.81742 21.9534C8.50854 21.9534 8.28791 21.7612 8.4453 21.4932C8.52709 21.6142 8.68983 21.6712 8.82953 21.6858C8.81742 21.8114 8.81742 21.8488 8.81742 21.9534ZM1.66922 12.8668C1.65292 12.8668 1.63661 12.8668 1.61919 12.8668C1.61666 12.8632 1.61385 12.859 1.60991 12.8551C1.63268 12.8499 1.65713 12.8499 1.67849 12.8432C1.67709 12.8512 1.67315 12.859 1.66922 12.8668ZM1.29794 13.6441L1.17315 13.5715C1.22289 13.5141 1.27264 13.5141 1.32239 13.5462C1.32239 13.5831 1.32239 13.6203 1.29794 13.6441ZM1.05201 13.123C1.03992 13.123 1.03992 13.135 1.02784 13.1469C0.95139 13.135 0.95139 13.0473 0.964881 12.973C1.00114 12.973 1.02784 12.9611 1.05201 12.9361L1.0641 12.9491L1.02784 12.973C1.03992 13.0235 1.03992 13.0728 1.05201 13.123ZM21.9142 9.86334C21.6443 9.70306 21.1967 9.64592 20.7425 9.68946C21.4547 9.4468 21.9398 8.92488 21.9655 8.45786C21.5944 8.35304 21.2089 8.40878 20.8754 8.4831C21.2208 8.22824 21.7882 7.76178 21.7195 7.07734C21.3862 6.99664 20.7735 7.22738 20.5152 7.33996C21.3349 6.88488 21.6307 5.80968 21.1967 5.19984C20.9387 5.34932 19.7653 6.52962 19.5759 6.66772C20.1821 5.9833 20.4658 5.49132 20.6296 5.03124C20.8244 4.52872 20.8365 3.6521 20.2074 3.35896C19.9106 4.0312 18.8704 5.75256 18.2911 6.46862C18.2279 6.41286 18.177 6.33744 18.095 6.32552C17.9564 6.76202 17.5463 7.33996 17.1742 7.6184C17.1554 7.58152 17.118 7.48196 17.0545 7.37574C16.6582 7.96062 15.6301 8.76292 15.2967 9.25462C15.0373 9.62068 15.0373 9.95126 15.3973 10.2929C15.5426 10.4363 15.8195 10.6912 15.5803 11.045C15.2548 11.5145 14.6005 11.5689 14.2444 11.293C14.2444 11.2095 14.2416 11.1299 14.2377 11.0556C14.657 10.8953 14.7551 10.3315 14.4459 9.98148C14.3777 10.1099 14.2658 10.2042 14.1317 10.2508C14.0955 10.1049 14.0629 10.0333 14.0603 10.0264L14.044 9.99202L14.0078 9.99064C14.0038 9.98954 13.867 9.98288 13.6612 9.95902C13.8937 9.8836 14.0426 9.67116 14.0106 9.38468C13.6517 9.68946 13.2916 9.39828 13.2096 9.3173C12.9839 9.05578 12.9206 8.76292 13.0092 8.31448C13.0845 7.92318 13.4943 7.30142 13.7647 7.10258C13.8037 7.13946 13.8656 7.21406 13.9971 7.20214C14.0735 7.17828 14.2 7.1145 14.2942 7.07734C14.5657 6.99664 14.8304 7.05876 15.001 7.16498C15.3088 7.35078 15.2832 7.556 15.2726 7.70604C15.7428 7.4448 15.5803 7.00968 14.9634 6.848C15.3853 6.848 15.7321 7.22738 15.8195 7.27618C16.0533 7.4448 16.3867 7.40764 16.5814 7.31472C16.9553 7.13946 17.0303 6.70462 16.9297 6.61726C16.892 6.77394 16.7723 6.91038 16.5559 6.93562C16.236 6.97278 15.9257 6.83468 15.6812 6.72846C15.4741 6.64222 15.1382 6.5801 14.9122 6.59312C15.3344 6.36268 15.9901 6.38764 16.2225 6.74206C16.3625 6.6303 16.4499 6.52962 16.4887 6.30028C16.6084 5.67962 16.1166 5.36126 15.5924 5.36126C15.6059 5.21178 15.4982 5.13718 15.36 5.18764C15.36 5.12414 15.3425 5.07506 15.3074 5.04982C15.3195 5.04842 15.3358 5.04344 15.3465 5.04344C15.876 5.00738 16.3746 4.8457 16.6447 4.5656C17.118 4.06726 16.3625 3.43328 16.6326 2.9427C16.892 3.0539 17.0815 3.19728 17.439 3.24636C17.4766 3.32208 17.509 3.47044 17.521 3.55114C17.6351 4.1058 17.0815 4.19842 17.2253 4.78858C17.2883 5.0562 17.4915 5.1491 17.5598 5.46746C17.5598 5.46746 17.5857 5.69016 17.3892 5.884C17.8437 5.89594 18.0829 5.51656 17.9432 5.1624C17.8811 5.0193 17.7226 4.88148 17.7226 4.71452C17.9564 5.0193 18.1649 5.00738 18.5236 4.89452C18.6874 4.8457 18.7009 5.06978 18.5989 5.25004C18.8448 5.10528 18.9095 4.86956 18.9095 4.76472C18.9095 4.51514 18.713 4.39726 18.5236 4.44746C18.4176 4.45938 18.2023 4.60304 18.1902 4.39726C18.1458 4.04312 18.713 4.05532 18.5989 3.48404C18.5371 3.19728 18.2144 3.04088 17.7105 2.97958C17.6607 2.92938 17.5343 2.81124 17.4659 2.71168C17.1891 2.25854 16.9041 2.1404 16.7332 2.2333C16.5317 2.3323 16.4257 2.42022 16.2619 2.50618C16.1287 2.57496 15.9901 2.6124 15.9016 2.71168C15.6812 2.97958 15.8895 3.39612 16.0022 3.6521C16.0789 3.80046 16.2619 4.14268 16.1798 4.39726C16.091 4.70204 15.5803 4.89452 15.2726 4.95718C15.2523 4.95718 15.2402 4.96356 15.2203 4.96356V4.8457C15.3088 4.68902 15.3853 4.5032 15.4485 4.33488C15.6568 3.78716 15.3465 3.56474 14.8881 3.45852C14.8304 3.42136 14.7672 3.40804 14.6922 3.43328H14.6787L14.6663 3.52618L14.6033 3.5076L14.6168 3.39612H14.5896C14.6421 3.35896 14.6663 3.29656 14.6663 3.23444C14.6663 3.16678 14.6421 3.11602 14.6168 3.07942H14.6787L14.6528 3.0539C14.6421 3.02894 14.6168 3.0051 14.5778 2.96654C14.5657 2.95462 14.5536 2.92938 14.5536 2.91746C14.5657 2.92938 14.5778 2.9427 14.6033 2.95462C14.6286 2.97958 14.6663 3.0051 14.6787 3.02894L14.7161 3.0539V2.54474L14.6787 2.57496C14.6663 2.58744 14.6286 2.6124 14.6033 2.63764C14.5778 2.66288 14.5657 2.66288 14.5536 2.6748C14.5536 2.66288 14.5657 2.64956 14.5778 2.62432C14.6168 2.60048 14.6421 2.56194 14.6528 2.54474L14.6787 2.50618H14.1624L14.1879 2.54474C14.2121 2.56194 14.2444 2.60048 14.27 2.62432C14.2821 2.64956 14.2942 2.66288 14.3074 2.6748C14.2942 2.66288 14.27 2.66288 14.2565 2.63764C14.2121 2.6124 14.1879 2.58744 14.1624 2.57496L14.1371 2.54474V3.0539L14.1624 3.02894C14.1879 3.0051 14.2121 2.97958 14.2565 2.95462C14.27 2.9427 14.2942 2.92938 14.3074 2.91746C14.2942 2.92938 14.2821 2.95462 14.27 2.96654C14.2444 3.0051 14.2121 3.02894 14.1879 3.0539L14.1624 3.07942H14.2444C14.2 3.11602 14.1879 3.16678 14.1879 3.23444C14.1879 3.29656 14.2121 3.35896 14.2565 3.39612H14.2444L14.2565 3.5076L14.1879 3.52618L14.1744 3.43328H14.1624C14.087 3.40804 14.0241 3.42136 13.9729 3.45852C13.5064 3.56474 13.1975 3.78716 13.4057 4.33488C13.469 4.5032 13.5457 4.68902 13.6396 4.8457V4.9264C13.1719 4.77664 12.3332 4.27248 12.1075 3.9677C12.082 3.93718 12.0631 3.91194 12.051 3.89336L12.0485 3.89476L12.0578 3.56474C12.2205 3.29656 12.3655 2.96654 12.4799 2.66288C12.7756 1.8725 12.34 1.54359 11.6477 1.40548C11.578 1.35695 11.4895 1.33144 11.3765 1.36888L11.352 1.4934L11.2073 1.48147L11.2191 1.31951C11.1938 1.33144 11.1693 1.33144 11.144 1.33144C11.2433 1.28235 11.3133 1.16282 11.3133 1.03969C11.3133 0.952334 11.2688 0.84612 11.1938 0.797032H11.3133C11.2433 0.734358 11.1306 0.60346 11.1061 0.517212C11.1938 0.541062 11.3267 0.659202 11.3886 0.722432V0.0754324C11.3267 0.124519 11.1938 0.249038 11.1061 0.260964C11.1306 0.188304 11.2433 0.0623982 11.3133 0H10.6575C10.7084 0.0623982 10.8346 0.188304 10.8467 0.260964C10.7702 0.249038 10.6454 0.124519 10.5755 0.0754324V0.722432C10.6454 0.659202 10.7702 0.541062 10.8467 0.517212C10.8346 0.60346 10.7084 0.734358 10.6575 0.797032H10.7702C10.6952 0.84612 10.6575 0.952334 10.6575 1.03969C10.6575 1.16282 10.7205 1.28235 10.8214 1.33144C10.7958 1.33144 10.7702 1.33144 10.7326 1.31951L10.7461 1.48147L10.6008 1.4934L10.5875 1.36888C10.4746 1.33144 10.3874 1.35695 10.3107 1.40548C9.6252 1.54359 9.18843 1.8725 9.4855 2.66288C9.5864 2.96654 9.73143 3.29656 9.90739 3.56474V3.90668C9.89529 3.9186 9.88209 3.94384 9.85763 3.9677C9.63728 4.27248 8.79213 4.77664 8.32557 4.9264V4.8457C8.41974 4.68902 8.49646 4.5032 8.55941 4.33488C8.76797 3.78716 8.4588 3.56474 7.99224 3.45852C7.93996 3.42136 7.87954 3.40804 7.8028 3.43328H7.79072L7.77722 3.52618L7.71426 3.5076L7.72634 3.39612H7.71426C7.75164 3.35896 7.77722 3.29656 7.77722 3.23444C7.77722 3.16678 7.76514 3.11602 7.72634 3.07942H7.8028L7.77722 3.0539C7.75164 3.02894 7.72634 3.0051 7.7019 2.96654C7.68982 2.95462 7.67127 2.92938 7.65777 2.91746C7.67127 2.92938 7.7019 2.9427 7.71426 2.95462C7.75164 2.97958 7.77722 3.0051 7.8028 3.02894L7.82838 3.0539V2.54474L7.8028 2.57496C7.77722 2.58744 7.75164 2.6124 7.71426 2.63764C7.7019 2.66288 7.67127 2.66288 7.65777 2.6748C7.67127 2.66288 7.68982 2.64956 7.7019 2.62432C7.72634 2.60048 7.75164 2.56194 7.77722 2.54474L7.8028 2.50618H7.2865L7.31094 2.54474C7.32302 2.56194 7.35535 2.60048 7.38093 2.62432C7.40509 2.64956 7.4172 2.66288 7.4172 2.6748C7.40509 2.66288 7.39301 2.66288 7.36857 2.63764C7.33652 2.6124 7.29773 2.58744 7.2865 2.57496L7.2477 2.54474V3.0539L7.2865 3.02894C7.29773 3.0051 7.33652 2.97958 7.36857 2.95462C7.39301 2.9427 7.40509 2.92938 7.4172 2.91746C7.4172 2.92938 7.40509 2.95462 7.38093 2.96654C7.35535 3.0051 7.32302 3.02894 7.31094 3.0539L7.2865 3.07942H7.35535C7.32302 3.11602 7.29773 3.16678 7.29773 3.23444C7.29773 3.29656 7.32302 3.35896 7.38093 3.39612H7.35535L7.36857 3.5076L7.29773 3.52618L7.2865 3.43328H7.27328C7.19656 3.40804 7.135 3.42136 7.08385 3.45852C6.61757 3.56474 6.3084 3.78716 6.51667 4.33488C6.57991 4.5032 6.65636 4.68902 6.75051 4.8457V4.96356C6.73027 4.96356 6.71285 4.95718 6.69936 4.95718C6.39047 4.89452 5.87417 4.70204 5.78563 4.39726C5.70356 4.14268 5.88765 3.80046 5.96185 3.6521C6.0813 3.39612 6.28424 2.97958 6.07062 2.71168C5.97507 2.6124 5.83651 2.57496 5.70356 2.50618C5.54082 2.42022 5.4388 2.3323 5.23193 2.2333C5.06639 2.1404 4.7842 2.25854 4.4995 2.71168C4.43766 2.81124 4.30473 2.92938 4.25329 2.97958C3.7561 3.04088 3.43485 3.19728 3.36654 3.48404C3.25103 4.05532 3.8196 4.04312 3.78168 4.39726C3.76818 4.60304 3.54923 4.45938 3.44693 4.44746C3.25103 4.39726 3.05597 4.51514 3.05597 4.76472C3.05597 4.86956 3.12596 5.10528 3.36654 5.25004C3.26564 5.06978 3.27772 4.8457 3.44693 4.89452C3.80612 5.00738 4.00736 5.0193 4.24121 4.71452C4.24121 4.88148 4.09083 5.0193 4.02226 5.1624C3.88258 5.51656 4.11501 5.89594 4.57595 5.884C4.36769 5.69016 4.41068 5.46746 4.41068 5.46746C4.47532 5.1491 4.67686 5.0562 4.74543 4.78858C4.88539 4.19842 4.33003 4.1058 4.44976 3.55114C4.46184 3.47044 4.48742 3.32208 4.5248 3.24636C4.88539 3.19728 5.07989 3.0539 5.33115 2.9427C5.59058 3.43328 4.84604 4.06726 5.31907 4.5656C5.59058 4.8457 6.0948 5.00738 6.61757 5.04344C6.62825 5.04344 6.64568 5.04982 6.65916 5.0512C6.62292 5.07506 6.60409 5.12414 6.60409 5.18764C6.46693 5.13718 6.35956 5.21178 6.37839 5.36126C5.83651 5.36126 5.35813 5.67962 5.47646 6.30028C5.51412 6.52962 5.60266 6.6303 5.74797 6.74206C5.97507 6.38764 6.63107 6.36268 7.05827 6.59312C6.82584 6.5801 6.49109 6.64222 6.28424 6.72846C6.04364 6.83468 5.73589 6.97278 5.41462 6.93562C5.19287 6.91038 5.07989 6.77394 5.03548 6.61726C4.93486 6.70462 5.01019 7.13946 5.38793 7.31472C5.57736 7.40764 5.91183 7.4448 6.14454 7.27618C6.23308 7.22738 6.57991 6.848 7.00319 6.848C6.39047 7.00968 6.21986 7.4448 6.69936 7.70604C6.68053 7.556 6.65636 7.35078 6.96411 7.16498C7.135 7.05876 7.40509 6.99664 7.67127 7.07734C7.76514 7.1145 7.89022 7.17828 7.96694 7.20214C8.09847 7.21406 8.16171 7.13946 8.19911 7.10258C8.47088 7.30142 8.86719 7.92318 8.95599 8.31448C9.05016 8.76292 8.98157 9.05578 8.75447 9.3173C8.67915 9.39828 8.31349 9.68946 7.95486 9.38468C7.92113 9.66978 8.07038 9.8822 8.3028 9.95902C8.09454 9.98148 7.95486 9.98954 7.95064 9.99064L7.91438 9.99202L7.89977 10.0264C7.89555 10.0333 7.86464 10.1049 7.82698 10.2494C7.69657 10.2003 7.58638 10.1088 7.51921 9.98148C7.21004 10.3304 7.30561 10.89 7.72101 11.0528C7.7168 11.1299 7.71426 11.2123 7.71426 11.2968C7.35789 11.5675 6.71032 11.5118 6.39047 11.045C6.14454 10.6912 6.42785 10.4363 6.56783 10.2929C6.92645 9.95126 6.92645 9.62068 6.66705 9.25462C6.33398 8.76292 5.30586 7.96062 4.91068 7.37574C4.84604 7.48196 4.80867 7.58152 4.79488 7.6184C4.42418 7.33996 4.00736 6.76202 3.87048 6.32552C3.79376 6.33744 3.73755 6.41286 3.67431 6.46862C3.10038 5.75256 2.05483 4.0312 1.75916 3.35896C1.13408 3.6521 1.14616 4.52872 1.337 5.03124C1.50508 5.49132 1.79007 5.9833 2.3879 6.66772C2.19986 6.52962 1.02784 5.34932 0.7687 5.19984C0.334461 5.80968 0.630139 6.88488 1.44859 7.33996C1.19732 7.22738 0.579266 6.99664 0.245928 7.07734C0.182689 7.76178 0.743124 8.22824 1.08995 8.4831C0.756615 8.40878 0.372124 8.35304 0 8.45786C0.0252954 8.92488 0.516028 9.4468 1.2094 9.68946C0.7687 9.64592 0.321251 9.70306 0.0494666 9.86334C0.10062 10.3487 0.655715 10.7663 1.32239 10.8662C0.87466 10.915 0.478084 11.1088 0.271223 11.3753C0.516028 11.692 0.87466 11.9347 1.42441 11.9228C1.29794 11.9666 1.15291 12.0528 1.02784 12.171C1.01463 12.159 0.989053 12.1471 0.964881 12.1471C0.937899 12.159 0.927219 12.1962 0.937899 12.2212C0.937899 12.2212 0.937899 12.2212 0.937899 12.2397C0.885622 12.2772 0.85611 12.3193 0.850489 12.3645C0.799335 12.4364 0.747058 12.5207 0.718671 12.5939C0.732162 12.6005 0.743124 12.6125 0.756616 12.6191C0.751275 12.6616 0.76055 12.7093 0.792871 12.7558C0.7687 12.7808 0.756615 12.8182 0.743124 12.8551L0.421873 12.7303C0.404445 13.0182 0.468809 13.2559 0.616647 13.4028C0.732162 13.5326 0.862855 13.5141 0.825193 13.5582L1.17315 13.7686C1.23498 13.9001 1.36118 13.9001 1.44859 13.8629C1.44859 13.8629 1.44859 13.8749 1.44859 13.8882C1.44859 14.0246 1.54387 14.1361 1.66922 14.1799C1.64505 14.2925 1.69451 14.3668 1.85303 14.417L3.16362 17.5508C3.11246 17.6994 3.16362 17.8306 3.27772 17.8797C3.25103 17.9166 3.22687 17.9551 3.22687 18.0295C3.27772 17.9926 3.35304 17.9793 3.39072 18.0852C3.41488 18.1593 3.27772 18.4019 3.48599 18.5639C3.45901 18.707 3.53575 18.8556 3.68639 18.9194C3.68639 18.9937 3.7561 19.2364 3.76818 19.3226C3.67431 19.4535 3.45901 19.6527 3.48599 19.8701C3.51157 20.0268 3.57341 20.0758 3.69961 20.1128C3.64873 20.3926 3.80612 20.5174 4.04644 20.5304C4.04644 20.7348 4.24121 20.8088 4.36769 20.8208C4.48742 20.9086 4.53827 20.9456 4.67686 21.0146C4.55037 21.1632 4.63918 21.3568 4.87162 21.4192C4.89749 21.5054 4.96044 21.5806 5.09197 21.6114C5.16871 21.736 5.30586 21.736 5.38793 21.6988C5.4388 21.6738 5.52762 21.5304 5.45088 21.4058C5.50204 21.3436 5.47646 21.2254 5.4388 21.1514C5.51412 21.0146 5.45088 20.8462 5.34465 20.7968C5.35813 20.7218 5.31907 20.6036 5.29377 20.5304C5.47646 20.4178 5.70356 20.2746 5.78563 20.2256C6.23308 19.9086 6.73702 19.6274 7.31094 19.5903C7.45625 19.5772 7.72634 19.5653 7.87954 19.5772C8.11197 19.6022 8.43322 19.6715 8.62154 19.5279C8.67915 19.491 8.71681 19.4286 8.70473 19.3662C8.67915 19.2228 8.52176 19.0983 8.47088 18.9682C8.4574 18.9288 8.43322 18.8717 8.40906 18.8198C8.57292 18.849 8.72356 18.8251 8.81742 18.7813C8.91833 18.7444 9.16425 18.5639 9.15217 18.2976C8.95599 18.3903 8.48296 18.5148 8.43322 18.0414C8.38206 17.6251 8.75447 17.271 9.33486 17.4263C9.73143 17.5256 10.3107 18.3584 9.78119 18.7206C9.5229 18.8942 9.12659 19.0611 9.17747 19.5159C9.34694 19.3107 9.57292 19.2109 9.86859 19.2364C9.43436 19.5534 9.10101 19.5903 8.64682 19.8329C8.25053 20.0626 7.95486 20.4434 7.64429 20.4552C7.40509 20.4672 7.27328 20.187 7.50571 19.9696C7.27328 19.9205 6.96411 20.1008 6.87558 20.3424C6.7626 20.6724 6.85 20.9086 7.05827 21.0396C6.77609 21.1882 6.56783 21.4814 6.66705 21.8976C6.7626 22.2398 7.10943 22.2398 6.97761 22.675C7.17267 22.6244 7.29773 22.4944 7.35535 22.3074C7.38093 22.1776 7.40509 22.0412 7.46947 21.9786C7.44276 22.2398 7.59453 22.6244 7.95486 22.7994C8.19911 22.9176 8.585 22.9664 8.88066 22.663C9.0004 23.005 9.40878 23.2968 9.83233 23.2848C10.0268 23.2848 10.2166 23.2024 10.3616 23.1176C10.4625 23.3708 10.7205 23.627 10.9785 23.7504C11.2433 23.627 11.5027 23.3708 11.6089 23.1176C11.7486 23.2024 11.9437 23.2848 12.1331 23.2848C12.5418 23.2968 12.9704 23.005 13.0845 22.663C13.3802 22.9664 13.7647 22.9176 14.0106 22.7994C14.3709 22.6244 14.5213 22.2398 14.4971 21.9786C14.5657 22.0412 14.5896 22.1776 14.6168 22.3074C14.6663 22.4944 14.7914 22.6244 14.9875 22.675C14.856 22.2398 15.2093 22.2398 15.2967 21.8976C15.3973 21.4814 15.1893 21.1882 14.9122 21.0396C15.114 20.9086 15.2093 20.6724 15.0884 20.3424C15.001 20.1008 14.6922 19.9205 14.458 19.9696C14.6922 20.187 14.5657 20.4672 14.3195 20.4552C14.0106 20.4434 13.7149 20.0626 13.3172 19.8329C12.8641 19.5903 12.5297 19.5534 12.0954 19.2364C12.3911 19.2109 12.625 19.3107 12.7877 19.5159C12.8386 19.0611 12.4423 18.8942 12.1826 18.7206C11.6601 18.3584 12.234 17.5256 12.637 17.4263C13.2096 17.271 13.5884 17.6251 13.5322 18.0414C13.469 18.5148 13.0092 18.3903 12.8012 18.2976C12.8012 18.5639 13.0457 18.7444 13.1477 18.7813C13.266 18.837 13.4836 18.8662 13.6798 18.7838C13.6733 18.8304 13.6652 18.8809 13.6652 18.8942C13.6264 19.2988 13.4057 19.3357 13.4811 19.5029C13.5884 19.6274 14.2942 19.6022 14.4836 19.6407C14.8184 19.6843 15.1019 19.808 15.4232 19.8701C15.7818 19.9444 16.1663 19.9444 16.4887 20.0758C16.6958 20.1632 16.9297 20.3304 17.1312 20.4298C17.439 20.4802 17.3892 20.6036 17.5857 20.6036C17.7616 20.6036 17.8299 20.4552 18.0573 20.3926C18.2144 20.3554 18.3904 20.4178 18.5477 20.3674C18.6621 20.3424 18.713 20.2256 18.8206 20.1632C18.9468 20.0878 19.1231 20.0878 19.2428 19.9816C19.3058 19.9269 19.3179 19.821 19.3083 19.7467L19.3111 19.7641C19.5517 19.5969 19.7344 19.3542 19.8353 19.073C19.8982 19.0611 19.9483 19.0057 19.9483 18.9433C19.9483 18.9313 19.9483 18.9194 19.9483 18.9194C20.0112 18.8689 20.0489 18.7932 20.0489 18.7206C20.0489 18.6263 20.0112 18.5519 19.9483 18.4898C19.9483 18.4898 19.9483 18.4765 19.9483 18.4643C19.9483 18.4155 19.9227 18.3783 19.8982 18.3464C19.7976 17.8054 19.3811 17.3705 18.8448 17.2338C18.8448 17.2208 18.8448 17.2208 18.8448 17.2089H18.8327C18.8327 17.1833 18.8206 17.1703 18.8018 17.1703C18.7251 17.096 18.6363 16.9792 18.6256 16.9035C18.713 16.9288 18.8583 17.0652 18.9334 17.1209V16.4063C18.8583 16.462 18.713 16.599 18.6256 16.6237C18.6363 16.5363 18.7748 16.381 18.8448 16.3189H18.1082C18.177 16.381 18.3153 16.5363 18.3274 16.6237C18.24 16.599 18.095 16.462 18.0196 16.4063V17.1209C18.095 17.0652 18.24 16.9288 18.3274 16.9035C18.3153 16.9912 18.177 17.1465 18.1082 17.2089L18.1337 17.2208C17.5857 17.3453 17.1433 17.7935 17.0424 18.3464C17.005 18.3783 16.9794 18.4155 16.9794 18.4643C16.9794 18.4765 16.9794 18.4898 16.9794 18.4898C16.9162 18.5519 16.8785 18.6263 16.8785 18.7206C16.8785 18.7932 16.9162 18.8689 16.9794 18.9194C16.9794 18.9194 16.9794 18.9313 16.9794 18.9433C16.9794 19.0242 17.0303 19.0611 17.0924 19.073C17.118 19.1421 17.1486 19.2109 17.181 19.2733C17.181 19.2669 17.181 19.2669 17.1891 19.2602C17.1433 19.4655 16.892 19.5903 16.8355 19.5903C16.3867 19.6527 15.8895 19.4655 15.4353 19.2988C15.2349 19.2228 14.9634 19.1368 14.8304 18.9433C14.7484 18.8029 14.7135 18.7136 14.7551 18.5891C14.8049 18.6515 14.8881 18.7206 15.001 18.7813C15.0131 18.7206 15.0131 18.6515 15.0373 18.601C15.1528 18.7694 15.3344 18.8556 15.5547 18.8437C15.4232 18.7325 15.36 18.4394 15.4232 18.1848C15.6059 18.4898 16.2993 18.5519 16.4257 18.0045C16.1663 18.1238 16.0022 17.9926 15.9524 17.8559C15.876 17.6371 16.1287 17.1079 15.9016 16.698C15.7186 16.3944 15.512 16.2074 15.0266 16.1331C15.0643 16.0763 15.0764 16.0258 15.0884 15.9398C14.6421 16.1018 14.2565 15.9767 14.0735 15.6228C14.1624 15.6597 14.2942 15.6733 14.4204 15.6733C14.0241 15.3547 14.0482 14.4528 14.333 13.9877C14.3709 13.9625 14.383 13.9373 14.4204 13.9253C14.5078 14.0992 14.7672 14.0992 14.8987 14.242C14.9502 14.1918 14.9755 14.1799 15.0266 14.1361C15.0266 14.1361 15.0373 14.8763 15.0884 15.1808C15.1382 15.5233 15.4741 15.4861 15.6435 15.6359C15.8451 15.4171 16.2104 15.429 16.1542 15.0499C16.1031 14.6716 16.0278 14.3299 16.016 14.0737C16.1287 14.3044 16.349 15.1689 16.4378 15.4171C16.5814 15.7845 16.9418 15.6733 17.1433 15.8161C17.2762 15.5604 17.6099 15.4861 17.4766 15.1001C17.439 15.0008 16.892 13.8629 16.8099 13.6441C17.005 13.9253 17.5343 14.9262 17.6984 15.2063C17.8811 15.498 18.2144 15.3547 18.4536 15.429C18.4994 15.2182 18.8206 14.9756 18.5868 14.6095C18.2911 14.1242 17.5978 13.2781 17.5598 13.1602C17.6984 13.29 18.7748 14.6095 18.8583 14.6835C19.1096 14.9012 19.475 14.7329 19.69 14.7329C19.69 14.4916 19.885 14.2174 19.6028 13.9373C19.3434 13.6946 18.751 13.2781 18.6256 13.135C19.0208 13.4028 19.4885 13.831 19.7653 13.9001C20.2572 14.0246 20.4334 13.831 20.6174 13.7567C20.4658 13.3155 20.6673 13.1111 19.627 12.6815C20.5272 12.9985 20.9253 12.8421 21.2466 12.5939C21.1201 12.2772 20.7988 12.0107 20.5394 11.9228C21.0891 11.9347 21.4547 11.692 21.6939 11.3753C21.4924 11.1088 21.0891 10.915 20.6296 10.8662C21.3094 10.7663 21.8514 10.3487 21.9142 9.86334Z" fill="#0B0B0B"/>
</g>
<defs>
<clipPath id="clip0_1702_20170">
<rect width="131.143" height="24" fill="white"/>
</clipPath>
</defs>
</svg>
