<svg width="120" height="120" viewBox="0 0 120 120" fill="none" xmlns="http://www.w3.org/2000/svg">
<path d="M48.8231 43.2246C50.3589 43.2246 51.7778 43.3416 53.0796 43.6927C54.3814 43.9267 55.4492 44.4094 56.3999 44.9945C57.3507 45.5796 58.0528 46.4133 58.5355 47.4811C59.0035 48.5489 59.2522 49.8507 59.2522 51.2695C59.2522 52.9224 58.9011 54.3412 58.0674 55.409C57.3507 56.4768 56.1805 57.4275 54.7471 58.1296C56.7656 58.7147 58.3014 59.7825 59.2376 61.2013C60.1737 62.6201 60.7734 64.39 60.7734 66.4086C60.7734 68.0614 60.4224 69.4802 59.8227 70.665C59.2376 71.8498 58.2868 72.9176 57.219 73.6197C56.1513 74.3364 54.8494 74.9215 53.4306 75.2726C52.0118 75.6236 50.593 75.8577 49.1741 75.8577L33.3184 75.8869V43.2246H48.8231ZM47.8723 56.4768C49.1741 56.4768 50.2419 56.1257 51.061 55.526C51.8801 54.9263 52.2458 53.8731 52.2458 52.5713C52.2458 51.8546 52.1288 51.1525 51.8948 50.6844C51.6607 50.2164 51.3097 49.8507 50.827 49.4996C50.3589 49.2656 49.8762 49.0316 49.2911 48.9145C48.7061 48.7975 48.1064 48.7975 47.4043 48.7975H40.5441V56.4914C40.5441 56.4768 47.8723 56.4768 47.8723 56.4768ZM48.2234 70.4456C48.9401 70.4456 49.6422 70.3286 50.2419 70.2116C50.827 70.0946 51.4267 69.8605 51.8948 69.4949C52.3628 69.1292 52.7285 68.7781 53.0796 68.1931C53.3136 67.608 53.5476 66.8912 53.5476 66.0575C53.5476 64.4046 53.0796 63.2198 52.1288 62.3861C51.178 61.6694 49.8762 61.3183 48.3404 61.3183H40.5441V70.431H48.2234V70.4456Z" fill="white"/>
<path d="M71.0715 70.328C72.0223 71.2788 73.4411 71.7468 75.328 71.7468C76.6298 71.7468 77.8146 71.3958 78.7654 70.7961C79.7162 70.0793 80.3012 69.3772 80.5353 68.6605H86.3276C85.3768 71.4982 83.958 73.5167 82.0711 74.8185C80.1842 76.0033 77.9316 76.7054 75.211 76.7054C73.3241 76.7054 71.6566 76.3544 70.1208 75.7546C68.5849 75.1696 67.4001 74.3358 66.3324 73.151C65.2646 72.0832 64.4455 70.7814 63.9628 69.2456C63.3777 67.7097 63.129 66.0569 63.129 64.1554C63.129 62.3855 63.3631 60.718 63.9628 59.1821C64.5625 57.6463 65.3816 56.3445 66.4494 55.1597C67.5172 54.0919 68.819 53.1412 70.2378 52.5561C71.7736 51.971 73.3095 51.6053 75.211 51.6053C77.2295 51.6053 78.9994 51.9564 80.5353 52.7901C82.0711 53.6239 83.2559 54.56 84.2067 55.9788C85.1574 57.2806 85.8595 58.8165 86.3422 60.4693C86.5763 62.1222 86.6933 63.7897 86.5763 65.6766H69.4187C69.4187 67.6074 70.1208 69.3772 71.0715 70.328ZM78.5314 57.895C77.6976 57.0612 76.3958 56.5932 74.86 56.5932C73.7922 56.5932 72.9731 56.8272 72.2563 57.1782C71.5396 57.5293 71.0715 58.012 70.6035 58.48C70.1354 58.9481 69.8867 59.5478 69.7697 60.1329C69.6527 60.718 69.5357 61.2007 69.5357 61.6688H80.1842C79.9502 59.9135 79.3505 58.7287 78.5314 57.895ZM68.1169 45.4766H81.369V48.6653H68.1169V45.4766Z" fill="white"/>
</svg>
