<svg width="120" height="120" viewBox="0 0 120 120" fill="none" xmlns="http://www.w3.org/2000/svg">
<path d="M51.9561 31.1875H49.0422V68.3896H51.9561V31.1875Z" fill="white"/>
<path d="M59.3427 31.1875H56.4288V57.5474H59.3427V31.1875Z" fill="white"/>
<path d="M67.1375 45.959H64.2236V57.5465H67.1375V45.959Z" fill="white"/>
<path d="M74.9246 48.1289H72.0107V59.7164H74.9246V48.1289Z" fill="white"/>
<path d="M79.8774 74.2178H76.9636V82.6204H79.8774V74.2178Z" fill="white"/>
<path d="M76.9646 82.5518H74.0508V88.1084H76.9646V82.5518Z" fill="white"/>
<path d="M55.0798 82.5518H52.166V88.1084H55.0798V82.5518Z" fill="white"/>
<path d="M52.1599 76.8594H49.2461V82.416H52.1599V76.8594Z" fill="white"/>
<path d="M49.2478 71.3037H46.334V76.8603H49.2478V71.3037Z" fill="white"/>
<path d="M46.3982 65.6104H43.4844V71.1669H46.3982V65.6104Z" fill="white"/>
<path d="M43.4871 62.6982H40.5732V65.6121H43.4871V62.6982Z" fill="white"/>
<path d="M48.9784 57.207H46.7422V60.1209H48.9784V57.207Z" fill="white"/>
<path d="M40.574 54.3623H37.6602V62.6972H40.574V54.3623Z" fill="white"/>
<path d="M82.7263 54.3623H79.8125V74.2169H82.7263V54.3623Z" fill="white"/>
<path d="M72.0147 45.959H67.1357V48.8728H72.0147V45.959Z" fill="white"/>
<path d="M76.9684 88.1084H52.167V91.0222H76.9684V88.1084Z" fill="white"/>
<path d="M77.3701 48.1289H74.9307V51.0427H77.3701V48.1289Z" fill="white"/>
<path d="M79.8113 51.041H77.3718V54.3614H79.8113V51.041Z" fill="white"/>
<path d="M64.2208 43.0469H59.3418V45.9607H64.2208V43.0469Z" fill="white"/>
<path d="M46.8075 54.3623H40.5732V57.2761H46.8075V54.3623Z" fill="white"/>
<path d="M56.5021 28.2734H51.9619V31.1873H56.5021V28.2734Z" fill="white"/>
</svg>
