<svg width="120" height="120" viewBox="0 0 120 120" fill="none" xmlns="http://www.w3.org/2000/svg">
<path d="M63.4335 51.9833C64.0012 52.2288 64.6125 52.3577 65.231 52.3624C65.8495 52.3671 66.4627 52.2474 67.0341 52.0105C67.6054 51.7736 68.1234 51.4243 68.5571 50.9833C68.9909 50.5423 69.3316 50.0187 69.559 49.4435C70.06 48.2943 70.0845 46.9932 69.6269 45.826C69.1694 44.6588 68.2673 43.7209 67.1187 43.2183C66.551 42.9728 65.9397 42.8439 65.3212 42.8392C64.7027 42.8346 64.0895 42.9542 63.5182 43.1911C62.9468 43.4281 62.4288 43.7774 61.9951 44.2183C61.5613 44.6593 61.2206 45.183 60.9932 45.7582C60.5262 46.911 60.5189 48.199 60.9729 49.357C61.4268 50.515 62.3074 51.455 63.4335 51.9833ZM35.0966 75.6887C34.9475 75.6185 34.7852 75.5811 34.6205 75.5788C34.4558 75.5765 34.2925 75.6095 34.1415 75.6756C33.9906 75.7416 33.8556 75.8391 33.7454 75.9616C33.6353 76.0842 33.5526 76.2288 33.503 76.3859C33.4332 76.5386 33.3961 76.7042 33.3938 76.8721C33.3915 77.04 33.4242 77.2065 33.4898 77.3611C33.5554 77.5157 33.6524 77.6549 33.7747 77.7699C33.897 77.885 34.0419 77.9733 34.2002 78.0293C34.3531 78.0975 34.5185 78.1335 34.6859 78.135C34.8534 78.1365 35.0194 78.1036 35.1736 78.0382C35.3277 77.9728 35.4668 77.8763 35.582 77.7548C35.6973 77.6334 35.7864 77.4895 35.8436 77.3321C35.9154 77.0142 35.8813 76.6815 35.7464 76.3848C35.6115 76.0881 35.3833 75.8436 35.0966 75.6887ZM52.6266 31.0668C52.7796 31.135 52.9449 31.171 53.1124 31.1725C53.2798 31.174 53.4458 31.1411 53.6 31.0757C53.7541 31.0103 53.8932 30.9138 54.0085 30.7924C54.1238 30.6709 54.2128 30.527 54.27 30.3696C54.3398 30.2169 54.377 30.0513 54.3792 29.8834C54.3815 29.7155 54.3488 29.549 54.2832 29.3944C54.2177 29.2398 54.1206 29.1006 53.9983 28.9856C53.876 28.8705 53.7311 28.7822 53.5728 28.7262C53.4206 28.6532 53.2545 28.6135 53.0857 28.6097C52.9169 28.6058 52.7492 28.638 52.5938 28.7039C52.4383 28.7698 52.2987 28.8681 52.1842 28.9922C52.0696 29.1162 51.9828 29.2632 51.9294 29.4234C51.8046 29.7339 51.808 30.0811 51.9386 30.3891C52.0693 30.6971 52.3167 30.9408 52.6266 31.0668ZM65.5749 89.1848C65.3439 89.0919 65.0905 89.0695 64.8468 89.1205C64.6031 89.1715 64.3799 89.2936 64.2056 89.4713C64.0312 89.6491 63.9133 89.8745 63.867 90.1191C63.8206 90.3638 63.8477 90.6166 63.945 90.8459C64.0422 91.0751 64.2052 91.2704 64.4134 91.407C64.6215 91.5437 64.8655 91.6156 65.1144 91.6137C65.3634 91.6118 65.6063 91.5362 65.8123 91.3964C66.0184 91.2566 66.1784 91.0589 66.2721 90.8282C66.3569 90.5158 66.3343 90.1839 66.2079 89.8859C66.0814 89.5878 65.8585 89.3409 65.5749 89.1848ZM86.591 43.3179C86.36 43.225 86.1066 43.2027 85.8629 43.2537C85.6192 43.3047 85.396 43.4268 85.2216 43.6045C85.0472 43.7822 84.9294 44.0076 84.883 44.2523C84.8367 44.4969 84.8638 44.7498 84.9611 44.979C85.0583 45.2082 85.2213 45.4035 85.4294 45.5402C85.6376 45.6768 85.8815 45.7488 86.1305 45.7469C86.3795 45.745 86.6224 45.6694 86.8284 45.5296C87.0345 45.3897 87.1945 45.192 87.2882 44.9614C87.3703 44.6489 87.3464 44.318 87.2202 44.0206C87.0941 43.7232 86.8727 43.476 86.591 43.3179Z" fill="white"/>
<path d="M83.2092 44.1639C82.9529 44.0413 82.6737 43.9738 82.3897 43.9658C82.1057 43.9577 81.8232 44.0094 81.5604 44.1173C81.2976 44.2252 81.0603 44.3871 80.8639 44.5924C80.6676 44.7977 80.5164 45.0419 80.4203 45.3093C80.2061 45.8158 80.1883 46.384 80.3705 46.9029C80.0356 46.2303 79.5143 45.6683 78.8687 45.284C78.2231 44.8996 77.4805 44.7092 76.7296 44.7355C75.9787 44.7617 75.2512 45.0035 74.634 45.432C74.0168 45.8605 73.536 46.4576 73.2489 47.1519C72.9461 47.8754 72.8596 48.6712 72.9999 49.4428C70.7091 52.1321 68.0198 53.8253 65.6294 54.1241C65.1492 54.1741 64.6652 54.1741 64.1851 54.1241C63.6845 54.0745 63.1961 53.9398 62.7409 53.7257C60.45 52.6799 59.0556 49.9408 58.7568 46.3551C58.6656 45.595 58.6489 44.8277 58.707 44.0643C58.707 43.7157 58.7568 43.3671 58.7568 43.0683C59.4328 42.6312 59.9688 42.0088 60.3006 41.2754C60.7186 40.3033 60.7389 39.2061 60.3572 38.2192C59.9755 37.2323 59.2221 36.4343 58.2588 35.9965C57.4157 35.5996 56.4514 35.5461 55.5695 35.8471C55.8232 35.7453 56.0523 35.5904 56.2412 35.3929C56.4302 35.1953 56.5747 34.9597 56.6651 34.7017C56.7875 34.4416 56.8549 34.1591 56.863 33.8719C56.8711 33.5846 56.8197 33.2987 56.7122 33.0322C56.6047 32.7657 56.4432 32.5243 56.238 32.3231C56.0328 32.1219 55.7883 31.9653 55.5197 31.863C55.2634 31.7404 54.9843 31.6729 54.7003 31.6649C54.4163 31.6568 54.1337 31.7085 53.8709 31.8164C53.6081 31.9244 53.3709 32.0862 53.1745 32.2915C52.9781 32.4968 52.827 32.7411 52.7309 33.0084C52.6085 33.2684 52.5411 33.5509 52.533 33.8382C52.5249 34.1255 52.5763 34.4113 52.6838 34.6778C52.7913 34.9443 52.9528 35.1858 53.158 35.387C53.3632 35.5882 53.6077 35.7448 53.8763 35.8471C54.3135 36.0434 54.8018 36.0957 55.2707 35.9965C54.7897 36.1938 54.3527 36.4847 53.9851 36.8523C53.6175 37.2199 53.3266 37.6569 53.1293 38.1379C52.7815 38.9687 52.7149 39.8905 52.9397 40.7626C53.1644 41.6348 53.6683 42.4095 54.3743 42.9686C54.3343 43.249 54.3176 43.5322 54.3245 43.8153C54.2655 44.7779 54.2821 45.7437 54.3743 46.7037C54.6731 50.389 55.9679 53.5763 58.1094 55.7675C55.8185 55.9169 53.4281 57.0126 51.1372 58.8552C48.448 60.9967 45.8583 64.3333 43.7666 68.3672C43.0876 68.4601 42.4449 68.7298 41.903 69.1493C41.3611 69.5689 40.9389 70.1236 40.679 70.7577C40.2651 71.742 40.2473 72.8482 40.6292 73.8454C40.3684 73.4447 40.008 73.1186 39.5833 72.8991C39.3271 72.7765 39.0479 72.709 38.7639 72.701C38.4799 72.693 38.1974 72.7446 37.9346 72.8526C37.6718 72.9605 37.4345 73.1223 37.2381 73.3277C37.0418 73.533 36.8906 73.7772 36.7945 74.0446C36.6721 74.3046 36.6048 74.5871 36.5967 74.8744C36.5886 75.1616 36.6399 75.4475 36.7474 75.714C36.855 75.9805 37.0164 76.2219 37.2216 76.4231C37.4268 76.6243 37.6713 76.781 37.9399 76.8832C38.1962 77.0058 38.4754 77.0733 38.7594 77.0813C39.0434 77.0894 39.3259 77.0377 39.5887 76.9298C39.8515 76.8219 40.0888 76.66 40.2851 76.4547C40.4815 76.2494 40.6326 76.0052 40.7288 75.7378C40.943 75.2313 40.9607 74.6631 40.7786 74.1442C41.1134 74.8168 41.6348 75.3788 42.2804 75.7631C42.926 76.1475 43.6686 76.3379 44.4195 76.3116C45.1704 76.2854 45.8979 76.0436 46.5151 75.6151C47.1323 75.1866 47.6131 74.5895 47.9001 73.8952C48.2373 73.0744 48.307 72.1682 48.0993 71.3055C49.7926 67.6202 51.9838 64.7318 54.3245 62.8393C56.3165 61.1959 58.209 60.4489 59.5536 61.0963C60.3039 61.4945 60.8869 62.1481 61.197 62.9389C61.3963 63.3871 61.5457 63.9349 61.7449 64.5325C62.4421 67.67 61.8943 72.0525 60.1014 76.5844C59.46 76.9621 58.934 77.5079 58.5803 78.1628C58.2266 78.8177 58.0586 79.5568 58.0945 80.3003C58.1304 81.0438 58.3688 81.7633 58.784 82.3811C59.1991 82.9989 59.7752 83.4915 60.45 83.8056C61.2931 84.2024 62.2574 84.256 63.1393 83.955C62.8856 84.0568 62.6565 84.2116 62.4676 84.4092C62.2786 84.6067 62.1341 84.8424 62.0437 85.1004C61.9213 85.3604 61.8539 85.6429 61.8458 85.9302C61.8377 86.2175 61.8891 86.5033 61.9966 86.7698C62.1041 87.0363 62.2656 87.2778 62.4708 87.479C62.676 87.6802 62.9205 87.8368 63.1891 87.9391C63.4454 88.0617 63.7246 88.1292 64.0085 88.1372C64.2925 88.1452 64.5751 88.0936 64.8379 87.9857C65.1007 87.8777 65.3379 87.7159 65.5343 87.5105C65.7307 87.3052 65.8818 87.061 65.978 86.7937C66.1003 86.5336 66.1677 86.2511 66.1758 85.9639C66.1839 85.6766 66.1326 85.3907 66.025 85.1242C65.9175 84.8577 65.7561 84.6163 65.5509 84.4151C65.3457 84.2139 65.1011 84.0573 64.8325 83.955C64.3953 83.7586 63.907 83.7063 63.4381 83.8056C63.9191 83.6083 64.3561 83.3174 64.7237 82.9498C65.0913 82.5821 65.3822 82.1451 65.5795 81.6641C65.8497 81.0193 65.9548 80.3173 65.8852 79.6216C65.8157 78.9259 65.5737 78.2586 65.1811 77.68C67.0238 72.5007 67.5716 67.2716 66.7748 63.3373C66.5921 62.4563 66.3423 61.5906 66.0278 60.7477C65.6526 59.9018 65.185 59.1001 64.6333 58.3572C65.2019 58.3839 65.7715 58.3337 66.3266 58.2078C69.8126 57.7596 73.3983 55.6181 76.3864 52.2317C77.2646 52.368 78.1632 52.2068 78.9393 51.7736C79.7154 51.3405 80.3243 50.6603 80.6693 49.8412C81.0831 48.8569 81.101 47.7507 80.7191 46.7535C80.9667 47.1652 81.3306 47.4944 81.7649 47.6998C82.0212 47.8224 82.3004 47.8899 82.5844 47.8979C82.8684 47.9059 83.1509 47.8543 83.4137 47.7463C83.6765 47.6384 83.9138 47.4765 84.1101 47.2712C84.3065 47.0659 84.4577 46.8217 84.5538 46.5543C84.748 46.0065 84.25 44.6619 83.2092 44.1639Z" fill="white"/>
</svg>
