<svg width="120" height="120" viewBox="0 0 120 120" fill="none" xmlns="http://www.w3.org/2000/svg">
<path d="M69.2622 51.6325L62.0575 44.4278L54.8528 51.6325H50.7359L65.9172 36.4512H49.964L34.7826 51.6325H28.9932V52.6617H91.3909V51.6325H69.2622Z" fill="white"/>
<path d="M28.9922 68.872H50.8636L58.0683 75.948L65.2729 68.872H69.1326L54.0799 83.9247H70.0332L78.0098 76.0767L85.2145 68.872H91.3899V67.8428H28.9922V68.872Z" fill="white"/>
<path d="M41.0904 58.194C41.3477 58.194 41.7337 58.194 41.991 58.3227C42.2483 58.4513 42.5056 58.4513 42.7629 58.58L43.4062 57.0361C42.7629 56.6501 41.991 56.5215 41.2191 56.5215C40.5758 56.5215 39.9325 56.6501 39.4179 56.9074C38.9033 57.1648 38.5173 57.6794 38.26 58.194C38.0027 58.7086 37.874 59.3519 37.874 60.1238C37.874 61.2817 38.1313 62.1823 38.7746 62.8256C39.2892 63.4689 40.1898 63.7262 41.2191 63.7262C41.991 63.7262 42.6343 63.5975 43.2775 63.3402V61.6677C43.0202 61.7963 42.6343 61.925 42.377 61.925C42.1196 62.0537 41.7337 62.0537 41.4764 62.0537C40.4471 62.0537 39.9325 61.4104 39.9325 59.9952C39.9325 59.3519 40.0612 58.8373 40.3185 58.4513C40.5758 58.0653 40.5758 58.194 41.0904 58.194Z" fill="white"/>
<path d="M49.5795 62.3115C49.1935 62.3115 48.9362 62.3115 48.5502 62.1828C48.1643 62.0542 47.7783 61.9255 47.3923 61.7968V63.4694C47.7783 63.598 48.0356 63.7267 48.4216 63.8553C48.6789 63.984 49.1935 63.984 49.5795 63.984C50.0941 63.984 50.6087 63.8553 50.9947 63.7267C51.3806 63.598 51.7666 63.2121 51.8953 62.9547C52.1526 62.5688 52.2812 62.1828 52.2812 61.7968C52.2812 61.2822 52.1526 60.8963 51.8953 60.639C51.6379 60.3816 51.252 59.9957 50.6087 59.7384C49.9654 59.4811 49.5795 59.2237 49.4508 59.0951C49.3222 58.9664 49.1935 58.8378 49.1935 58.7091C49.1935 58.5805 49.1935 58.4518 49.3222 58.3232C49.4508 58.1945 49.5795 58.1945 49.8368 58.1945C50.3514 58.1945 50.866 58.3232 51.5093 58.7091L52.1526 57.2939C51.3806 56.908 50.6087 56.7793 49.9654 56.7793C49.1935 56.7793 48.4216 56.908 48.0356 57.2939C47.521 57.6799 47.2637 58.1945 47.2637 58.8378C47.2637 59.2237 47.2637 59.4811 47.3923 59.7384C47.521 59.9957 47.6496 60.253 47.9069 60.3816C48.1643 60.639 48.4216 60.7676 48.9362 61.0249C49.4508 61.2822 49.7081 61.4109 49.8368 61.5395C49.9654 61.6682 50.0941 61.6682 50.0941 61.7968C50.0941 61.9255 50.2227 61.9255 50.2227 62.0542C50.2227 62.1828 50.0941 62.3115 49.9654 62.4401C50.0941 62.3115 49.8368 62.3115 49.5795 62.3115Z" fill="white"/>
<path d="M58.5853 62.3115C58.1994 62.3115 57.942 62.3115 57.5561 62.1828C57.1701 62.0542 56.7841 61.9255 56.3982 61.7968V63.4694C56.7841 63.598 57.0415 63.7267 57.4274 63.8553C57.6847 63.984 58.1994 63.984 58.5853 63.984C59.0999 63.984 59.6146 63.8553 60.0005 63.7267C60.3865 63.598 60.7725 63.2121 60.9011 62.9547C61.1584 62.5688 61.2871 62.1828 61.2871 61.7968C61.2871 61.2822 61.1584 60.8963 60.9011 60.639C60.6438 60.3816 60.2578 59.9957 59.6146 59.7384C58.9713 59.4811 58.5853 59.2237 58.4567 59.0951C58.328 58.9664 58.1994 58.8378 58.1994 58.7091C58.1994 58.5805 58.1994 58.4518 58.328 58.3232C58.4567 58.1945 58.5853 58.1945 58.8426 58.1945C59.3573 58.1945 59.8719 58.3232 60.5152 58.7091L61.1584 57.2939C60.3865 56.908 59.6146 56.7793 58.9713 56.7793C58.1994 56.7793 57.4274 56.908 57.0415 57.2939C56.5268 57.6799 56.2695 58.1945 56.2695 58.8378C56.2695 59.2237 56.2695 59.4811 56.3982 59.7384C56.5268 59.9957 56.6555 60.253 56.9128 60.3816C57.1701 60.639 57.4274 60.7676 57.942 61.0249C58.4567 61.2822 58.714 61.4109 58.8426 61.5395C58.9713 61.6682 59.0999 61.6682 59.0999 61.7968C59.0999 61.9255 59.2286 61.9255 59.2286 62.0542C59.2286 62.1828 59.0999 62.3115 58.9713 62.4401C59.0999 62.3115 58.8426 62.3115 58.5853 62.3115Z" fill="white"/>
<path d="M71.7023 60.1251C71.7023 58.9672 71.445 58.1952 70.8017 57.552C70.1585 56.9087 69.2579 56.6514 68.2286 56.6514H65.7842V63.7274H68.1C69.2579 63.7274 70.1585 63.4701 70.8017 62.8268C71.3164 62.1835 71.7023 61.283 71.7023 60.1251ZM69.2579 61.7976C69.0006 62.1835 68.6146 62.3122 67.9713 62.3122H67.5854V58.3239H68.1C68.6146 58.3239 69.0006 58.4525 69.2579 58.8385C69.5152 59.0958 69.6438 59.6104 69.6438 60.2537C69.6438 60.897 69.5152 61.4116 69.2579 61.7976Z" fill="white"/>
<path d="M80.1968 62.4409L80.5827 63.7274H82.6412L80.3254 56.6514H77.7523L75.4365 63.7274H77.495L77.881 62.4409H80.1968ZM78.9102 58.7098C79.0389 58.3239 79.0389 58.0666 79.0389 57.9379C79.0389 58.0666 79.1675 58.4525 79.2962 58.8385C79.4248 59.2245 79.4248 59.6104 79.5535 59.8677L79.8108 61.0256H78.2669C78.6529 59.8677 78.7816 59.0958 78.9102 58.7098Z" fill="white"/>
</svg>
