<svg width="48" height="48" viewBox="0 0 48 48" fill="none" xmlns="http://www.w3.org/2000/svg">
<rect x="1" y="1" width="46" height="46" rx="23" fill="white"/>
<path d="M29.919 19.3945L26.7408 29.3399H24.5788L22.8492 22.9187L21.1411 29.3399H18.9575L15.7793 19.3945H18.244L20.0169 26.2266L21.7033 19.3945H23.995L25.6814 26.2266L27.4543 19.3945H29.919Z" fill="#0F0F0F"/>
<path d="M31.5847 26.1406C32.536 26.1406 33.2495 26.8541 33.2495 27.8054C33.2495 28.7567 32.536 29.4702 31.5847 29.4702C30.6334 29.4702 29.9199 28.7567 29.9199 27.8054C29.9199 26.8541 30.6334 26.1406 31.5847 26.1406Z" fill="#0F0F0F"/>
<rect x="1" y="1" width="46" height="46" rx="23" stroke="#EAEAEA" stroke-width="2"/>
</svg>
