<svg width="52" height="52" viewBox="0 0 52 52" fill="none" xmlns="http://www.w3.org/2000/svg">
<rect width="52" height="52" rx="26" fill="#0B0B0B"/>
<g clip-path="url(#clip0_1224_17393)">
<path d="M22.7039 20.7109C23.2442 20.7109 23.7432 20.7521 24.2012 20.8756C24.6591 20.9579 25.0347 21.1277 25.3691 21.3335C25.7036 21.5393 25.9505 21.8326 26.1203 22.2082C26.285 22.5838 26.3724 23.0417 26.3724 23.5408C26.3724 24.1222 26.249 24.6213 25.9557 24.9969C25.7036 25.3725 25.292 25.7069 24.7877 25.9539C25.4978 26.1597 26.038 26.5353 26.3673 27.0344C26.6966 27.5335 26.9075 28.156 26.9075 28.8661C26.9075 29.4475 26.7841 29.9466 26.5731 30.3633C26.3673 30.7801 26.0329 31.1557 25.6573 31.4027C25.2817 31.6548 24.8237 31.8606 24.3247 31.9841C23.8256 32.1076 23.3265 32.1899 22.8274 32.1899L17.25 32.2002V20.7109H22.7039ZM22.3695 25.3725C22.8274 25.3725 23.203 25.249 23.4911 25.0381C23.7793 24.8271 23.9079 24.4566 23.9079 23.9987C23.9079 23.7466 23.8667 23.4996 23.7844 23.335C23.7021 23.1703 23.5786 23.0417 23.4088 22.9182C23.2442 22.8359 23.0744 22.7536 22.8686 22.7124C22.6628 22.6713 22.4518 22.6713 22.2048 22.6713H19.7917V25.3776C19.7917 25.3725 22.3695 25.3725 22.3695 25.3725ZM22.493 30.2862C22.7451 30.2862 22.992 30.245 23.203 30.2038C23.4088 30.1627 23.6198 30.0803 23.7844 29.9517C23.9491 29.8231 24.0777 29.6996 24.2012 29.4938C24.2835 29.288 24.3658 29.0359 24.3658 28.7426C24.3658 28.1612 24.2012 27.7444 23.8667 27.4512C23.5323 27.199 23.0744 27.0756 22.5341 27.0756H19.7917V30.281H22.493V30.2862Z" fill="white"/>
<path d="M30.53 30.2437C30.8644 30.5781 31.3635 30.7427 32.0272 30.7427C32.4852 30.7427 32.9019 30.6192 33.2364 30.4083C33.5708 30.1562 33.7766 29.9092 33.8589 29.6571H35.8964C35.562 30.6553 35.0629 31.3653 34.3992 31.8232C33.7354 32.24 32.9431 32.487 31.9861 32.487C31.3224 32.487 30.7358 32.3635 30.1956 32.1525C29.6553 31.9467 29.2385 31.6534 28.8629 31.2367C28.4873 30.8611 28.1992 30.4032 28.0294 29.8629C27.8236 29.3227 27.7361 28.7413 27.7361 28.0724C27.7361 27.4498 27.8185 26.8633 28.0294 26.323C28.2404 25.7828 28.5285 25.3248 28.9041 24.9081C29.2797 24.5325 29.7376 24.198 30.2367 23.9922C30.777 23.7864 31.3172 23.6578 31.9861 23.6578C32.6961 23.6578 33.3187 23.7813 33.8589 24.0746C34.3992 24.3678 34.8159 24.6971 35.1504 25.1962C35.4848 25.6541 35.7318 26.1944 35.9016 26.7758C35.9839 27.3572 36.0251 27.9437 35.9839 28.6075H29.9486C29.9486 29.2866 30.1956 29.9092 30.53 30.2437ZM33.154 25.8702C32.8608 25.577 32.4028 25.4123 31.8626 25.4123C31.487 25.4123 31.1989 25.4946 30.9468 25.6181C30.6946 25.7416 30.53 25.9114 30.3653 26.076C30.2007 26.2407 30.1132 26.4516 30.0721 26.6574C30.0309 26.8633 29.9897 27.033 29.9897 27.1977H33.7354C33.6531 26.5803 33.4422 26.1635 33.154 25.8702ZM29.4907 21.502H34.1522V22.6236H29.4907V21.502Z" fill="white"/>
</g>
<defs>
<clipPath id="clip0_1224_17393">
<rect width="20" height="20" fill="white" transform="translate(16 16)"/>
</clipPath>
</defs>
</svg>
