<svg width="48" height="48" viewBox="0 0 48 48" fill="none" xmlns="http://www.w3.org/2000/svg">
<rect x="1" y="1" width="46" height="46" rx="23" fill="white"/>
<g clip-path="url(#clip0_1224_17222)">
<path d="M20.7039 18.7109C21.2442 18.7109 21.7432 18.7521 22.2012 18.8756C22.6591 18.9579 23.0347 19.1277 23.3691 19.3335C23.7036 19.5393 23.9505 19.8326 24.1203 20.2082C24.285 20.5838 24.3724 21.0417 24.3724 21.5408C24.3724 22.1222 24.249 22.6213 23.9557 22.9969C23.7036 23.3725 23.292 23.7069 22.7877 23.9539C23.4978 24.1597 24.038 24.5353 24.3673 25.0344C24.6966 25.5335 24.9075 26.156 24.9075 26.8661C24.9075 27.4475 24.7841 27.9466 24.5731 28.3633C24.3673 28.7801 24.0329 29.1557 23.6573 29.4027C23.2817 29.6548 22.8237 29.8606 22.3247 29.9841C21.8256 30.1076 21.3265 30.1899 20.8274 30.1899L15.25 30.2002V18.7109H20.7039ZM20.3695 23.3725C20.8274 23.3725 21.203 23.249 21.4911 23.0381C21.7793 22.8271 21.9079 22.4566 21.9079 21.9987C21.9079 21.7466 21.8667 21.4996 21.7844 21.335C21.7021 21.1703 21.5786 21.0417 21.4088 20.9182C21.2442 20.8359 21.0744 20.7536 20.8686 20.7124C20.6628 20.6713 20.4518 20.6713 20.2048 20.6713H17.7917V23.3776C17.7917 23.3725 20.3695 23.3725 20.3695 23.3725ZM20.493 28.2862C20.7451 28.2862 20.992 28.245 21.203 28.2038C21.4088 28.1627 21.6198 28.0803 21.7844 27.9517C21.9491 27.8231 22.0777 27.6996 22.2012 27.4938C22.2835 27.288 22.3658 27.0359 22.3658 26.7426C22.3658 26.1612 22.2012 25.7444 21.8667 25.4512C21.5323 25.199 21.0744 25.0756 20.5341 25.0756H17.7917V28.281H20.493V28.2862Z" fill="#0F0F0F"/>
<path d="M28.5299 28.2437C28.8644 28.5781 29.3635 28.7427 30.0272 28.7427C30.4851 28.7427 30.9019 28.6192 31.2363 28.4083C31.5707 28.1562 31.7766 27.9092 31.8589 27.6571H33.8964C33.5619 28.6553 33.0629 29.3653 32.3991 29.8232C31.7354 30.24 30.943 30.487 29.986 30.487C29.3223 30.487 28.7357 30.3635 28.1955 30.1525C27.6552 29.9467 27.2385 29.6534 26.8629 29.2367C26.4873 28.8611 26.1992 28.4032 26.0294 27.8629C25.8236 27.3227 25.7361 26.7413 25.7361 26.0724C25.7361 25.4498 25.8184 24.8633 26.0294 24.323C26.2403 23.7828 26.5284 23.3248 26.904 22.9081C27.2796 22.5325 27.7376 22.198 28.2367 21.9922C28.7769 21.7864 29.3171 21.6578 29.986 21.6578C30.6961 21.6578 31.3186 21.7813 31.8589 22.0746C32.3991 22.3678 32.8159 22.6971 33.1503 23.1962C33.4848 23.6541 33.7317 24.1944 33.9015 24.7758C33.9838 25.3572 34.025 25.9437 33.9838 26.6075H27.9485C27.9485 27.2866 28.1955 27.9092 28.5299 28.2437ZM31.154 23.8702C30.8607 23.577 30.4028 23.4123 29.8625 23.4123C29.4869 23.4123 29.1988 23.4946 28.9467 23.6181C28.6946 23.7416 28.5299 23.9114 28.3653 24.076C28.2006 24.2407 28.1132 24.4516 28.072 24.6574C28.0308 24.8633 27.9897 25.033 27.9897 25.1977H31.7354C31.6531 24.5803 31.4421 24.1635 31.154 23.8702ZM27.4906 19.502H32.1522V20.6236H27.4906V19.502Z" fill="#0F0F0F"/>
</g>
<rect x="1" y="1" width="46" height="46" rx="23" stroke="#EAEAEA" stroke-width="2"/>
<defs>
<clipPath id="clip0_1224_17222">
<rect width="20" height="20" fill="white" transform="translate(14 14)"/>
</clipPath>
</defs>
</svg>
