<svg width="20" height="20" viewBox="0 0 20 20" fill="none" xmlns="http://www.w3.org/2000/svg">
<g id="24 / basic / paperclip">
<path id="icon" fill-rule="evenodd" clip-rule="evenodd" d="M11.1194 5.4529L12.3069 6.62235L7.04177 11.9688C6.77758 12.2385 6.77758 12.6724 7.04177 12.9421C7.29248 13.198 7.71129 13.1968 7.95932 12.9407L13.7521 7.05601C14.5978 6.19299 14.5978 4.80698 13.7521 3.94395C12.9453 3.12054 11.5176 3.13886 10.7269 3.94552L4.40411 10.364C2.97661 11.8202 2.97661 14.1585 4.40411 15.6147C5.79028 17.0287 8.17152 17.0057 9.53605 15.6134L16.9102 8.12399L18.0978 9.29333L10.725 16.7813C8.71343 18.8339 5.25873 18.8673 3.21393 16.7814C1.15111 14.6771 1.15111 11.3015 3.21536 9.19581L9.5381 2.77735C10.9743 1.31229 13.4754 1.2802 14.9426 2.77747C16.4232 4.28852 16.4232 6.71145 14.9412 8.22386L9.15188 14.105C8.25632 15.0299 6.75811 15.0341 5.85127 14.1085C4.95219 13.1908 4.95219 11.7201 5.85277 10.8009L11.1194 5.4529Z" fill="black"/>
</g>
</svg>
