<svg width="1840" height="178" viewBox="0 0 1840 178" fill="none" xmlns="http://www.w3.org/2000/svg">
<path d="M222.24 20.4364C222.24 67.3531 212.559 100.748 193.403 119.75C178.806 134.245 162.98 135.731 156.885 135.628L146.692 136.038L119.033 102.797C128.355 96.0871 133.938 85.0238 139.316 74.2677C141.108 70.7336 142.85 67.2507 144.848 63.7166L177.578 0.0512691H126.256L106.844 38.1582L103.156 45.4826C98.5975 54.5996 91.6823 68.4287 87.1238 68.4287H48.7094V0.0512691H0V177.474H48.7094V109.097H65.7145L123.439 177.474H179.831H182.289C185.619 177.474 263.42 175.886 270.488 40.668H324.883V177.474H373.592V0H222.292V20.4364H222.24Z" fill="#0B0B0B"/>
<path d="M1477.62 20.4356C1477.62 133.425 1434.19 136.908 1433.73 136.908L1433.73 137.215L1433.73 177.576H1437.62C1440.95 177.576 1518.75 175.988 1525.82 40.7696H1580.26V177.576H1628.97V0.101562H1477.67V20.4356H1477.62Z" fill="#0B0B0B"/>
<path d="M1688.65 0.101562V20.4356C1688.65 133.425 1645.21 136.908 1644.75 136.908L1644.75 137.215L1644.75 177.576H1648.65C1651.98 177.576 1729.78 175.988 1736.85 40.7696H1791.29V177.576H1840V0.101562H1688.65Z" fill="#0B0B0B"/>
<path d="M938.182 0.101562H781.348V20.4356C781.348 133.169 733.51 136.908 732.998 136.908L726.953 137.215L735.866 177.576H957.235V136.908H938.232V0.101562H938.182ZM889.473 136.908H802.553C817.457 113.45 826.011 81.1814 828.162 40.7696H889.473V136.908Z" fill="#0B0B0B"/>
<path d="M1095.53 99.313L1058.29 0.101562H984.176V177.525H1032.89V62.7426L1075.91 177.525H1115.09L1158.17 62.7426V177.525H1206.88V0.101562H1132.76L1095.53 99.313Z" fill="#0B0B0B"/>
<path d="M1287.03 100.081V0.101562H1238.32V177.525H1267.11L1367.09 77.5449V177.525H1415.8V0.101562H1387.06L1287.03 100.081Z" fill="#0B0B0B"/>
<path d="M755.946 0.101562H704.009L659.961 120.364L615.196 0.101562H562.747L610.176 124.308H658.527L641.675 170.354L638.09 177.525H690.231L691.46 174.144C705.546 135.832 748.365 19.2064 753.18 7.06744L755.946 0.101562Z" fill="#0B0B0B"/>
<path d="M524.894 4.96744L523 0.101562H447.708L385.373 170.354L381.788 177.525H433.929L444.121 149.815H526.687L536.88 177.525H580.724H589.021L585.435 170.354L524.894 4.96744ZM485.353 37.7477C490.731 52.2427 497.492 70.5278 504.714 90.196H504.663L511.629 109.147H459.078L466.043 90.196H465.992C473.265 70.5278 480.026 52.1914 485.353 37.7477Z" fill="#0B0B0B"/>
</svg>
