<svg width="1840" height="201" viewBox="0 0 1840 201" fill="none" xmlns="http://www.w3.org/2000/svg">
<path d="M251.032 23.084C251.032 76.0789 240.097 113.8 218.459 135.264C201.971 151.637 184.094 153.315 177.21 153.199L165.697 153.662L134.454 116.114C144.984 108.535 151.29 96.0388 157.364 83.8893C159.389 79.8973 161.357 75.9632 163.613 71.9713L200.583 0.0579112H142.613L120.686 43.1016L116.52 51.375C111.371 61.6731 103.56 77.2938 98.4109 77.2938H55.0199V0.0579112H0V200.467H55.0199V123.23H74.228L139.43 200.467H203.128H205.905C209.666 200.467 297.547 198.673 305.531 45.9366H366.972V200.467H421.992V0H251.09V23.084H251.032Z" fill="#0B0B0B"/>
<path d="M1669.04 23.0865C1669.04 150.714 1619.98 154.648 1619.46 154.648L1619.46 154.995L1619.46 200.585H1623.85C1627.62 200.585 1715.5 198.791 1723.48 46.0548H1784.98V200.585H1840V0.118164H1669.1V23.0865H1669.04Z" fill="#0B0B0B"/>
<path d="M1059.73 0.118164H882.577V23.0865C882.577 150.425 828.541 154.648 827.963 154.648L821.135 154.995L831.203 200.585H1081.25V154.648H1059.79V0.118164H1059.73ZM1004.71 154.648H906.528C923.364 128.151 933.026 91.7022 935.456 46.0548H1004.71V154.648Z" fill="#0B0B0B"/>
<path d="M1237.45 112.183L1195.39 0.118164H1111.67V200.527H1166.69V70.8745L1215.29 200.527H1259.55L1308.21 70.8745V200.527H1363.23V0.118164H1279.51L1237.45 112.183Z" fill="#0B0B0B"/>
<path d="M1453.77 113.051V0.118164H1398.75V200.527H1431.27L1544.2 87.5944V200.527H1599.22V0.118164H1566.76L1453.77 113.051Z" fill="#0B0B0B"/>
<path d="M853.887 0.118164H795.221L745.467 135.961L694.902 0.118164H635.659L689.233 140.416H743.847L724.813 192.427L720.763 200.527H779.659L781.047 196.708C796.957 153.433 845.324 21.6981 850.763 7.9865L853.887 0.118164Z" fill="#0B0B0B"/>
<path d="M592.899 5.61443L590.759 0.118164H505.713L435.302 192.427L431.253 200.527H490.149L501.662 169.228H594.924L606.437 200.527H655.961H665.333L661.283 192.427L592.899 5.61443ZM548.235 42.6414C554.31 59.0143 561.947 79.6684 570.104 101.885H570.046L577.915 123.291H518.556L526.424 101.885H526.366C534.581 79.6684 542.218 58.9564 548.235 42.6414Z" fill="#0B0B0B"/>
</svg>
