<svg width="48" height="48" viewBox="0 0 48 48" fill="none" xmlns="http://www.w3.org/2000/svg">
<rect x="1" y="1" width="46" height="46" rx="23" fill="white"/>
<path d="M12.48 19.2H15.84C17.156 19.2 18.1127 19.48 18.71 20.04C19.3167 20.5907 19.62 21.3887 19.62 22.434C19.62 23.414 19.3027 24.198 18.668 24.786C18.0333 25.374 17.0907 25.668 15.84 25.668H14.16V29H12.48V19.2ZM14.16 20.684V24.184H15.84C16.512 24.184 17.016 24.0253 17.352 23.708C17.688 23.3907 17.856 22.966 17.856 22.434C17.856 21.874 17.6927 21.4447 17.366 21.146C17.0487 20.838 16.54 20.684 15.84 20.684H14.16ZM20.5945 19.2H23.8145C25.3545 19.2 26.5212 19.592 27.3145 20.376C28.1079 21.1507 28.5045 22.2613 28.5045 23.708V24.492C28.5045 25.92 28.1032 27.0307 27.3005 27.824C26.4979 28.608 25.3359 29 23.8145 29H20.5945V19.2ZM22.2745 20.684V27.516H23.8145C24.7852 27.516 25.5132 27.2687 25.9985 26.774C26.4932 26.2793 26.7405 25.5187 26.7405 24.492V23.708C26.7405 22.6907 26.4932 21.9347 25.9985 21.44C25.5039 20.936 24.7759 20.684 23.8145 20.684H22.2745ZM29.8302 19.2H36.1302V20.684H31.5102V23.358H35.2902V24.842H31.5102V29H29.8302V19.2Z" fill="#0B0B0B"/>
<rect x="1" y="1" width="46" height="46" rx="23" stroke="#EAEAEA" stroke-width="2"/>
</svg>
