<svg width="33" height="46" viewBox="0 0 33 46" fill="none" xmlns="http://www.w3.org/2000/svg">
<path d="M10.5084 2.12012H8.38867V29.1834H10.5084V2.12012Z" fill="white"/>
<path d="M15.8805 2.12012H13.7607V21.2961H15.8805V2.12012Z" fill="white"/>
<path d="M21.5514 12.8657H19.4316V21.2953H21.5514V12.8657Z" fill="white"/>
<path d="M27.2174 14.4448H25.0977V22.8744H27.2174V14.4448Z" fill="white"/>
<path d="M30.8189 33.4233H28.6992V39.536H30.8189V33.4233Z" fill="white"/>
<path d="M28.7008 39.4863H26.5811V43.5286H28.7008V39.4863Z" fill="white"/>
<path d="M12.7799 39.4863H10.6602V43.5286H12.7799V39.4863Z" fill="white"/>
<path d="M10.6549 35.3452H8.53516V39.3875H10.6549V35.3452Z" fill="white"/>
<path d="M8.53866 31.3037H6.41895V35.346H8.53866V31.3037Z" fill="white"/>
<path d="M6.46444 27.1621H4.34473V31.2044H6.46444V27.1621Z" fill="white"/>
<path d="M4.34725 25.0435H2.22754V27.1632H4.34725V25.0435Z" fill="white"/>
<path d="M8.34258 21.0488H6.71582V23.1685H8.34258V21.0488Z" fill="white"/>
<path d="M2.22811 18.9795H0.108398V25.0429H2.22811V18.9795Z" fill="white"/>
<path d="M32.8922 18.9795H30.7725V33.4231H32.8922V18.9795Z" fill="white"/>
<path d="M25.101 12.8657H21.5518V14.9854H25.101V12.8657Z" fill="white"/>
<path d="M28.7043 43.5278H10.6621V45.6475H28.7043V43.5278Z" fill="white"/>
<path d="M28.9953 14.4448H27.2207V16.5645H28.9953V14.4448Z" fill="white"/>
<path d="M30.7727 16.563H28.998V18.9785H30.7727V16.563Z" fill="white"/>
<path d="M19.4301 10.7476H15.8809V12.8673H19.4301V10.7476Z" fill="white"/>
<path d="M6.76274 18.9795H2.22754V21.0992H6.76274V18.9795Z" fill="white"/>
<path d="M13.8145 0H10.5117V2.11971H13.8145V0Z" fill="white"/>
</svg>
