<svg width="210" height="210" viewBox="0 0 210 210" fill="none" xmlns="http://www.w3.org/2000/svg">
<g clip-path="url(#clip0_1224_17004)">
<path d="M74.3351 152.586C74.1732 152.549 74.0112 152.512 73.8503 152.475C73.9023 152.69 74.1622 152.913 74.4301 152.975C74.698 153.036 74.8729 152.909 74.8209 152.695C74.769 152.48 74.509 152.256 74.2411 152.195C73.9733 152.134 73.7983 152.26 73.8503 152.475C74.0122 152.513 74.1732 152.55 74.3351 152.586Z" fill="url(#paint0_linear_1224_17004)"/>
<path d="M157.56 58.6879L156.363 57.3593C148.77 49.1446 138.288 42.1906 127.224 38.4841L125.582 37.957C137.827 41.7297 149.494 49.5084 157.56 58.6879Z" fill="url(#paint1_linear_1224_17004)"/>
<path d="M171.686 83.7406L171.374 82.7796C164.562 62.4916 140.11 42.2186 114.907 36.5131C108.643 35.0952 102.893 34.7035 97.8322 35.2135L96.8606 35.3207C102.093 34.7205 108.076 35.0902 114.615 36.5702C140.237 42.37 165.088 63.1159 171.686 83.7406Z" fill="url(#paint2_linear_1224_17004)"/>
<path d="M175 105.305L174.997 104.45C172.327 62.5668 109.182 27.3786 76.7822 40.7938L76.0065 41.1415C83.9685 37.5211 94.8284 36.7596 107.505 39.6284C138.217 46.5805 167.963 72.2193 173.944 96.8942C174.661 99.8531 175.004 102.663 175 105.305Z" fill="url(#paint3_linear_1224_17004)"/>
<path d="M172.046 125.192L172.285 124.379C173.688 119.475 173.735 113.788 172.206 107.478C165.747 80.8357 133.63 53.1527 100.468 45.6456C82.7799 41.6415 68.3674 44.1866 59.7486 51.4774L59.1109 52.0265C67.7206 44.5664 82.2661 41.9321 100.154 45.9823C133.39 53.5055 165.581 81.2505 172.054 107.954C173.62 114.407 173.539 120.209 172.046 125.192Z" fill="url(#paint4_linear_1224_17004)"/>
<path d="M163.568 143.398L163.806 143.031L164.039 142.668C168.011 136.421 169.2 128.273 166.889 118.737C160.249 91.3439 127.225 62.8804 93.129 55.1618C71.0634 50.1667 53.9558 55.0847 46.4307 66.6019L46.1928 66.9687L45.9599 67.3324C53.398 55.6338 70.5945 50.6066 92.8221 55.6378C126.918 63.3564 159.942 91.8189 166.582 119.212C168.925 128.879 167.671 137.119 163.568 143.398Z" fill="url(#paint5_linear_1224_17004)"/>
<path d="M150.251 158.523L150.889 157.974C183.171 126.284 118.14 64.1309 68.9721 65.4456C59.6737 65.6941 43.2789 68.5399 37.9549 84.8067L37.715 85.6214C42.2373 69.8234 60.8372 62.1469 86.1426 67.8755C119.304 75.3817 151.422 103.065 157.881 129.707C160.894 142.138 157.79 152.146 150.251 158.523Z" fill="url(#paint6_linear_1224_17004)"/>
<path d="M133.219 169.206L133.994 168.859C168.991 150.628 135.222 98.6006 88.8366 83.2506C58.6151 73.2494 35.4708 82.462 35 104.68L35.002 105.531C36.8013 66.2953 97.5583 75.3025 130.644 110.928C149.216 130.926 156.429 158.147 133.219 169.206Z" fill="url(#paint7_linear_1224_17004)"/>
<path d="M37.699 124.019C37.653 123.877 37.607 123.734 37.563 123.592C37.7779 124.48 38.0289 125.37 38.3137 126.26L38.6256 127.22C38.2668 126.152 37.9579 125.084 37.699 124.019Z" fill="url(#paint8_linear_1224_17004)"/>
<path d="M37.699 124.019C32.5319 102.704 49.8504 90.2938 76.3803 96.299C102.91 102.304 128.607 124.452 133.775 145.767C137.722 162.05 128.548 173.136 112.168 174.787L113.139 174.679C129.295 172.826 138.288 161.723 134.355 145.502C129.15 124.029 103.262 101.715 76.5333 95.6647C49.8044 89.6145 32.357 102.118 37.562 123.592C37.607 123.734 37.653 123.877 37.699 124.019Z" fill="url(#paint9_linear_1224_17004)"/>
<path d="M42.5501 133.518C42.4602 133.392 42.3702 133.266 42.2812 133.139C43.7797 139.32 47.4093 145.588 52.4374 151.31L53.6359 152.641C48.123 146.677 44.1325 140.048 42.5501 133.518Z" fill="url(#paint10_linear_1224_17004)"/>
<path d="M42.5501 133.518C37.3851 106.938 68.6553 103.561 94.9033 120.54C123.205 138.848 129.058 168.644 105.342 173.678C96.0589 175.648 86.7504 172.754 82.7759 171.517L84.4203 172.045C115.965 180.82 128.289 162.49 116.249 141.328C98.6009 110.305 47.9621 97.781 42.0263 122.97C40.9847 127.39 41.9264 131.567 42.2812 133.139C42.3702 133.267 42.4592 133.393 42.5501 133.518Z" fill="url(#paint11_linear_1224_17004)"/>
<path d="M50.4182 141.697C47.5143 129.719 57.2466 122.743 72.1559 126.119C87.0653 129.494 101.506 141.941 104.41 153.919C107.314 165.898 97.5813 172.873 82.672 169.498C67.7626 166.123 53.3221 153.675 50.4182 141.697C50.2862 141.593 50.1563 141.487 50.0263 141.382C52.9862 153.591 67.7046 166.277 82.9009 169.717C98.0971 173.157 108.017 166.049 105.057 153.839C102.098 141.631 87.3792 128.944 72.1829 125.504C56.9867 122.064 47.0664 129.172 50.0263 141.382C50.1563 141.487 50.2872 141.592 50.4182 141.697Z" fill="url(#paint12_linear_1224_17004)"/>
<path d="M61.1201 148.185C59.6137 141.969 64.6638 138.351 72.3998 140.102C80.1359 141.852 87.6291 148.311 89.1355 154.527C90.6419 160.742 85.5919 164.361 77.8558 162.61C70.1197 160.859 62.6275 154.4 61.1201 148.185C60.9492 148.107 60.7802 148.028 60.6113 147.948C62.1797 154.419 69.9818 161.144 78.0367 162.968C86.0917 164.791 91.3497 161.023 89.7813 154.552C88.2129 148.081 80.4108 141.356 72.3559 139.532C64.3009 137.709 59.0429 141.477 60.6113 147.948C60.7802 148.029 60.9502 148.107 61.1201 148.185Z" fill="url(#paint13_linear_1224_17004)"/>
<path d="M135.178 57.3061C135.126 57.0907 135.301 56.9655 135.568 57.0266C135.836 57.0867 136.095 57.3102 136.147 57.5256C136.199 57.741 136.024 57.8663 135.757 57.8052C135.49 57.745 135.23 57.5206 135.178 57.3061C135.34 57.3422 135.502 57.3783 135.664 57.4144C135.502 57.3773 135.34 57.3412 135.178 57.3061Z" fill="url(#paint14_linear_1224_17004)"/>
<path d="M120.219 55.4484C118.65 48.9773 123.908 45.2087 131.963 47.0324C140.018 48.8561 147.82 55.5797 149.389 62.0517C150.957 68.5228 145.699 72.2914 137.644 70.4677C129.589 68.6441 121.787 61.9195 120.219 55.4484C120.434 55.4564 120.649 55.4644 120.864 55.4734C122.37 61.689 129.863 68.1471 137.599 69.8986C145.335 71.6501 150.385 68.0308 148.879 61.8153C147.372 55.5997 139.879 49.1416 132.143 47.3901C124.407 45.6386 119.357 49.2579 120.864 55.4734C120.649 55.4644 120.434 55.4564 120.219 55.4484Z" fill="url(#paint15_linear_1224_17004)"/>
<path d="M104.942 56.1618C101.982 43.9522 111.902 36.8438 127.098 40.2837C142.294 43.7237 157.013 56.4093 159.973 68.619C162.933 80.8277 153.012 87.9371 137.816 84.4971C122.62 81.0561 107.901 68.3705 104.942 56.1618C105.157 56.1348 105.373 56.1077 105.589 56.0817C108.493 68.0599 122.934 80.506 137.843 83.8809C152.752 87.2557 162.485 80.2816 159.581 68.3034C156.677 56.3252 142.236 43.879 127.327 40.5042C112.418 37.1294 102.685 44.1035 105.589 56.0817C105.373 56.1077 105.157 56.1338 104.942 56.1618Z" fill="url(#paint16_linear_1224_17004)"/>
<path d="M157.56 58.6879C162.589 64.4115 166.219 70.6792 167.718 76.8607C171.903 94.1256 157.875 104.177 136.387 99.3131C114.898 94.4492 94.0846 76.509 89.9002 59.2451C90.1081 59.1859 90.3171 59.1268 90.526 59.0687C94.6634 76.1352 115.238 93.868 136.48 98.6768C157.722 103.485 171.588 93.5484 167.451 76.4819C165.867 69.9517 161.878 63.3233 156.364 57.3593L157.56 58.6879Z" fill="url(#paint17_linear_1224_17004)"/>
<path d="M89.9002 59.2451C85.7148 41.9802 99.7415 31.9278 121.23 36.7927C122.686 37.1223 124.137 37.5111 125.582 37.956L127.224 38.4831C125.328 37.8478 123.415 37.3077 121.496 36.8738C100.254 32.0651 86.3885 42.0022 90.526 59.0687C90.3171 59.1268 90.1081 59.1849 89.9002 59.2451Z" fill="url(#paint18_linear_1224_17004)"/>
<path d="M171.686 83.7406C171.971 84.6304 172.222 85.5202 172.437 86.408C177.643 107.882 160.195 120.386 133.466 114.335C106.737 108.285 80.8486 85.9721 75.6426 64.4977C75.8365 64.4085 76.0305 64.3213 76.2244 64.2331C81.3914 85.5482 107.088 107.696 133.619 113.701C160.15 119.707 177.468 107.296 172.3 85.9811C172.042 84.915 171.732 83.8478 171.373 82.7796L171.686 83.7406Z" fill="url(#paint19_linear_1224_17004)"/>
<path d="M75.6436 64.4977C71.7111 48.2759 80.7047 37.1744 96.8596 35.3207L97.8312 35.2135C81.4524 36.8628 72.2779 47.9502 76.2244 64.2331C76.0305 64.3203 75.8365 64.4085 75.6436 64.4977Z" fill="url(#paint20_linear_1224_17004)"/>
<path d="M175 105.305C174.966 124.707 156.196 135.102 129.166 128.983C98.454 122.031 68.7082 96.3922 62.7265 71.7173C62.8974 71.602 63.0684 71.4878 63.2403 71.3736C78.3126 123.447 157.412 147.931 172.725 115.474C174.806 111.063 174.917 107.241 174.998 104.45L175 105.305Z" fill="url(#paint21_linear_1224_17004)"/>
<path d="M62.7255 71.7183C59.2128 57.228 64.6768 46.2919 76.0065 41.1415L76.7822 40.7938C65.2865 45.859 59.7096 56.8131 63.2393 71.3746C63.0674 71.4888 62.8954 71.603 62.7255 71.7183Z" fill="url(#paint22_linear_1224_17004)"/>
<path d="M172.046 125.192C167.365 140.823 148.799 148.383 123.596 142.678C90.361 135.155 58.1702 107.409 51.6967 80.7064C51.8366 80.5682 51.9776 80.4299 52.1185 80.2926C58.5771 106.934 90.6949 134.617 123.856 142.125C149.163 147.853 167.763 140.177 172.285 124.378L172.046 125.192Z" fill="url(#paint23_linear_1224_17004)"/>
<path d="M51.6967 80.7064C48.7078 68.3765 51.7247 58.4264 59.1109 52.0265L59.7486 51.4774C52.2105 57.8543 49.1057 67.8625 52.1185 80.2926C51.9776 80.4309 51.8366 80.5682 51.6967 80.7064Z" fill="url(#paint24_linear_1224_17004)"/>
<path d="M163.806 143.031L163.568 143.398C156.043 154.915 138.936 159.832 116.87 154.837C82.7739 147.12 49.7504 118.657 43.1099 91.2638C43.1609 91.1846 43.2119 91.1045 43.2629 91.0253C43.3139 90.9461 43.3658 90.866 43.4168 90.7868C50.0583 118.18 83.0818 146.643 117.178 154.361C139.405 159.393 156.602 154.366 164.04 142.667L163.806 143.031Z" fill="url(#paint25_linear_1224_17004)"/>
<path d="M43.2629 91.0253C43.2119 91.1045 43.1609 91.1846 43.1099 91.2638C40.7988 81.7285 41.9884 73.579 45.9599 67.3324L46.1928 66.9687L46.4307 66.6019C42.3282 72.8806 41.0737 81.1223 43.4168 90.7878C43.3658 90.866 43.3139 90.9451 43.2629 91.0253Z" fill="url(#paint26_linear_1224_17004)"/>
<path d="M150.251 158.523C141.634 165.813 127.221 168.359 109.532 164.355C76.3703 156.848 44.2525 129.165 37.7939 102.524C37.8439 102.365 37.8939 102.206 37.9459 102.048C51.0349 147.268 120.7 181.765 150.889 157.974L150.251 158.523Z" fill="url(#paint27_linear_1224_17004)"/>
<path d="M37.7939 102.524C36.2635 96.2118 36.3115 90.5253 37.715 85.6214L37.9549 84.8067C36.4345 91.347 36.4335 94.5695 37.9459 102.048C37.8939 102.206 37.8439 102.365 37.7939 102.524Z" fill="url(#paint28_linear_1224_17004)"/>
<path d="M133.219 169.206C125.323 172.685 114.636 173.386 102.188 170.568C71.6161 163.647 42.0063 138.126 36.0516 113.564C36.0516 113.412 36.0526 113.258 36.0556 113.105C42.0373 137.78 71.7841 163.418 102.495 170.371C115.172 173.24 126.031 172.478 133.994 168.858L133.219 169.206Z" fill="url(#paint29_linear_1224_17004)"/>
<path d="M36.0516 113.564C35.116 108.749 35.08 108.562 35.002 105.532L35 104.68C35.2209 108.947 35.2499 109.495 36.0556 113.105C36.0526 113.258 36.0516 113.412 36.0516 113.564Z" fill="url(#paint30_linear_1224_17004)"/>
<path d="M112.168 174.787C107.106 175.297 101.356 174.905 95.0932 173.487C69.8898 167.781 45.438 147.508 38.6256 127.22L38.3137 126.26C44.9122 146.884 69.7628 167.629 95.3861 173.43C101.925 174.91 107.908 175.28 113.14 174.679L112.168 174.787Z" fill="url(#paint31_linear_1224_17004)"/>
<path d="M82.7759 171.517C74.7939 168.609 64.2679 163.835 53.6359 152.641L52.4374 151.31C56.194 155.371 66.1712 166.158 84.4203 172.045L82.7759 171.517Z" fill="url(#paint32_linear_1224_17004)"/>
</g>
<defs>
<linearGradient id="paint0_linear_1224_17004" x1="50.5" y1="48.9999" x2="139" y2="164.5" gradientUnits="userSpaceOnUse">
<stop offset="0.0880748" stop-color="#0000FF"/>
<stop offset="0.436401" stop-color="white" stop-opacity="0.58"/>
<stop offset="1" stop-color="white" stop-opacity="0"/>
</linearGradient>
<linearGradient id="paint1_linear_1224_17004" x1="50.5" y1="48.9999" x2="139" y2="164.5" gradientUnits="userSpaceOnUse">
<stop offset="0.0880748" stop-color="#0000FF"/>
<stop offset="0.436401" stop-color="white" stop-opacity="0.58"/>
<stop offset="1" stop-color="white" stop-opacity="0"/>
</linearGradient>
<linearGradient id="paint2_linear_1224_17004" x1="50.5" y1="48.9999" x2="139" y2="164.5" gradientUnits="userSpaceOnUse">
<stop offset="0.0880748" stop-color="#0000FF"/>
<stop offset="0.436401" stop-color="white" stop-opacity="0.58"/>
<stop offset="1" stop-color="white" stop-opacity="0"/>
</linearGradient>
<linearGradient id="paint3_linear_1224_17004" x1="50.5" y1="48.9999" x2="139" y2="164.5" gradientUnits="userSpaceOnUse">
<stop offset="0.0880748" stop-color="#0000FF"/>
<stop offset="0.436401" stop-color="white" stop-opacity="0.58"/>
<stop offset="1" stop-color="white" stop-opacity="0"/>
</linearGradient>
<linearGradient id="paint4_linear_1224_17004" x1="50.5" y1="48.9999" x2="139" y2="164.5" gradientUnits="userSpaceOnUse">
<stop offset="0.0880748" stop-color="#0000FF"/>
<stop offset="0.436401" stop-color="white" stop-opacity="0.58"/>
<stop offset="1" stop-color="white" stop-opacity="0"/>
</linearGradient>
<linearGradient id="paint5_linear_1224_17004" x1="50.5" y1="48.9999" x2="139" y2="164.5" gradientUnits="userSpaceOnUse">
<stop offset="0.0880748" stop-color="#0000FF"/>
<stop offset="0.436401" stop-color="white" stop-opacity="0.58"/>
<stop offset="1" stop-color="white" stop-opacity="0"/>
</linearGradient>
<linearGradient id="paint6_linear_1224_17004" x1="50.5" y1="48.9999" x2="139" y2="164.5" gradientUnits="userSpaceOnUse">
<stop offset="0.0880748" stop-color="#0000FF"/>
<stop offset="0.436401" stop-color="white" stop-opacity="0.58"/>
<stop offset="1" stop-color="white" stop-opacity="0"/>
</linearGradient>
<linearGradient id="paint7_linear_1224_17004" x1="50.5" y1="48.9999" x2="139" y2="164.5" gradientUnits="userSpaceOnUse">
<stop offset="0.0880748" stop-color="#0000FF"/>
<stop offset="0.436401" stop-color="white" stop-opacity="0.58"/>
<stop offset="1" stop-color="white" stop-opacity="0"/>
</linearGradient>
<linearGradient id="paint8_linear_1224_17004" x1="50.5" y1="48.9999" x2="139" y2="164.5" gradientUnits="userSpaceOnUse">
<stop offset="0.0880748" stop-color="#0000FF"/>
<stop offset="0.436401" stop-color="white" stop-opacity="0.58"/>
<stop offset="1" stop-color="white" stop-opacity="0"/>
</linearGradient>
<linearGradient id="paint9_linear_1224_17004" x1="50.5" y1="48.9999" x2="139" y2="164.5" gradientUnits="userSpaceOnUse">
<stop offset="0.0880748" stop-color="#0000FF"/>
<stop offset="0.436401" stop-color="white" stop-opacity="0.58"/>
<stop offset="1" stop-color="white" stop-opacity="0"/>
</linearGradient>
<linearGradient id="paint10_linear_1224_17004" x1="50.5" y1="48.9999" x2="139" y2="164.5" gradientUnits="userSpaceOnUse">
<stop offset="0.0880748" stop-color="#0000FF"/>
<stop offset="0.436401" stop-color="white" stop-opacity="0.58"/>
<stop offset="1" stop-color="white" stop-opacity="0"/>
</linearGradient>
<linearGradient id="paint11_linear_1224_17004" x1="50.5" y1="48.9999" x2="139" y2="164.5" gradientUnits="userSpaceOnUse">
<stop offset="0.0880748" stop-color="#0000FF"/>
<stop offset="0.436401" stop-color="white" stop-opacity="0.58"/>
<stop offset="1" stop-color="white" stop-opacity="0"/>
</linearGradient>
<linearGradient id="paint12_linear_1224_17004" x1="50.5" y1="48.9999" x2="139" y2="164.5" gradientUnits="userSpaceOnUse">
<stop offset="0.0880748" stop-color="#0000FF"/>
<stop offset="0.436401" stop-color="white" stop-opacity="0.58"/>
<stop offset="1" stop-color="white" stop-opacity="0"/>
</linearGradient>
<linearGradient id="paint13_linear_1224_17004" x1="50.5" y1="48.9999" x2="139" y2="164.5" gradientUnits="userSpaceOnUse">
<stop offset="0.0880748" stop-color="#0000FF"/>
<stop offset="0.436401" stop-color="white" stop-opacity="0.58"/>
<stop offset="1" stop-color="white" stop-opacity="0"/>
</linearGradient>
<linearGradient id="paint14_linear_1224_17004" x1="50.5" y1="48.9999" x2="139" y2="164.5" gradientUnits="userSpaceOnUse">
<stop offset="0.0880748" stop-color="#0000FF"/>
<stop offset="0.436401" stop-color="white" stop-opacity="0.58"/>
<stop offset="1" stop-color="white" stop-opacity="0"/>
</linearGradient>
<linearGradient id="paint15_linear_1224_17004" x1="50.5" y1="48.9999" x2="139" y2="164.5" gradientUnits="userSpaceOnUse">
<stop offset="0.0880748" stop-color="#0000FF"/>
<stop offset="0.436401" stop-color="white" stop-opacity="0.58"/>
<stop offset="1" stop-color="white" stop-opacity="0"/>
</linearGradient>
<linearGradient id="paint16_linear_1224_17004" x1="50.5" y1="48.9999" x2="139" y2="164.5" gradientUnits="userSpaceOnUse">
<stop offset="0.0880748" stop-color="#0000FF"/>
<stop offset="0.436401" stop-color="white" stop-opacity="0.58"/>
<stop offset="1" stop-color="white" stop-opacity="0"/>
</linearGradient>
<linearGradient id="paint17_linear_1224_17004" x1="50.5" y1="48.9999" x2="139" y2="164.5" gradientUnits="userSpaceOnUse">
<stop offset="0.0880748" stop-color="#0000FF"/>
<stop offset="0.436401" stop-color="white" stop-opacity="0.58"/>
<stop offset="1" stop-color="white" stop-opacity="0"/>
</linearGradient>
<linearGradient id="paint18_linear_1224_17004" x1="50.5" y1="48.9999" x2="139" y2="164.5" gradientUnits="userSpaceOnUse">
<stop offset="0.0880748" stop-color="#0000FF"/>
<stop offset="0.436401" stop-color="white" stop-opacity="0.58"/>
<stop offset="1" stop-color="white" stop-opacity="0"/>
</linearGradient>
<linearGradient id="paint19_linear_1224_17004" x1="50.5" y1="48.9999" x2="139" y2="164.5" gradientUnits="userSpaceOnUse">
<stop offset="0.0880748" stop-color="#0000FF"/>
<stop offset="0.436401" stop-color="white" stop-opacity="0.58"/>
<stop offset="1" stop-color="white" stop-opacity="0"/>
</linearGradient>
<linearGradient id="paint20_linear_1224_17004" x1="50.5" y1="48.9999" x2="139" y2="164.5" gradientUnits="userSpaceOnUse">
<stop offset="0.0880748" stop-color="#0000FF"/>
<stop offset="0.436401" stop-color="white" stop-opacity="0.58"/>
<stop offset="1" stop-color="white" stop-opacity="0"/>
</linearGradient>
<linearGradient id="paint21_linear_1224_17004" x1="50.5" y1="48.9999" x2="139" y2="164.5" gradientUnits="userSpaceOnUse">
<stop offset="0.0880748" stop-color="#0000FF"/>
<stop offset="0.436401" stop-color="white" stop-opacity="0.58"/>
<stop offset="1" stop-color="white" stop-opacity="0"/>
</linearGradient>
<linearGradient id="paint22_linear_1224_17004" x1="50.5" y1="48.9999" x2="139" y2="164.5" gradientUnits="userSpaceOnUse">
<stop offset="0.0880748" stop-color="#0000FF"/>
<stop offset="0.436401" stop-color="white" stop-opacity="0.58"/>
<stop offset="1" stop-color="white" stop-opacity="0"/>
</linearGradient>
<linearGradient id="paint23_linear_1224_17004" x1="50.5" y1="48.9999" x2="139" y2="164.5" gradientUnits="userSpaceOnUse">
<stop offset="0.0880748" stop-color="#0000FF"/>
<stop offset="0.436401" stop-color="white" stop-opacity="0.58"/>
<stop offset="1" stop-color="white" stop-opacity="0"/>
</linearGradient>
<linearGradient id="paint24_linear_1224_17004" x1="50.5" y1="48.9999" x2="139" y2="164.5" gradientUnits="userSpaceOnUse">
<stop offset="0.0880748" stop-color="#0000FF"/>
<stop offset="0.436401" stop-color="white" stop-opacity="0.58"/>
<stop offset="1" stop-color="white" stop-opacity="0"/>
</linearGradient>
<linearGradient id="paint25_linear_1224_17004" x1="50.5" y1="48.9999" x2="139" y2="164.5" gradientUnits="userSpaceOnUse">
<stop offset="0.0880748" stop-color="#0000FF"/>
<stop offset="0.436401" stop-color="white" stop-opacity="0.58"/>
<stop offset="1" stop-color="white" stop-opacity="0"/>
</linearGradient>
<linearGradient id="paint26_linear_1224_17004" x1="50.5" y1="48.9999" x2="139" y2="164.5" gradientUnits="userSpaceOnUse">
<stop offset="0.0880748" stop-color="#0000FF"/>
<stop offset="0.436401" stop-color="white" stop-opacity="0.58"/>
<stop offset="1" stop-color="white" stop-opacity="0"/>
</linearGradient>
<linearGradient id="paint27_linear_1224_17004" x1="50.5" y1="48.9999" x2="139" y2="164.5" gradientUnits="userSpaceOnUse">
<stop offset="0.0880748" stop-color="#0000FF"/>
<stop offset="0.436401" stop-color="white" stop-opacity="0.58"/>
<stop offset="1" stop-color="white" stop-opacity="0"/>
</linearGradient>
<linearGradient id="paint28_linear_1224_17004" x1="50.5" y1="48.9999" x2="139" y2="164.5" gradientUnits="userSpaceOnUse">
<stop offset="0.0880748" stop-color="#0000FF"/>
<stop offset="0.436401" stop-color="white" stop-opacity="0.58"/>
<stop offset="1" stop-color="white" stop-opacity="0"/>
</linearGradient>
<linearGradient id="paint29_linear_1224_17004" x1="50.5" y1="48.9999" x2="139" y2="164.5" gradientUnits="userSpaceOnUse">
<stop offset="0.0880748" stop-color="#0000FF"/>
<stop offset="0.436401" stop-color="white" stop-opacity="0.58"/>
<stop offset="1" stop-color="white" stop-opacity="0"/>
</linearGradient>
<linearGradient id="paint30_linear_1224_17004" x1="50.5" y1="48.9999" x2="139" y2="164.5" gradientUnits="userSpaceOnUse">
<stop offset="0.0880748" stop-color="#0000FF"/>
<stop offset="0.436401" stop-color="white" stop-opacity="0.58"/>
<stop offset="1" stop-color="white" stop-opacity="0"/>
</linearGradient>
<linearGradient id="paint31_linear_1224_17004" x1="50.5" y1="48.9999" x2="139" y2="164.5" gradientUnits="userSpaceOnUse">
<stop offset="0.0880748" stop-color="#0000FF"/>
<stop offset="0.436401" stop-color="white" stop-opacity="0.58"/>
<stop offset="1" stop-color="white" stop-opacity="0"/>
</linearGradient>
<linearGradient id="paint32_linear_1224_17004" x1="50.5" y1="48.9999" x2="139" y2="164.5" gradientUnits="userSpaceOnUse">
<stop offset="0.0880748" stop-color="#0000FF"/>
<stop offset="0.436401" stop-color="white" stop-opacity="0.58"/>
<stop offset="1" stop-color="white" stop-opacity="0"/>
</linearGradient>
<clipPath id="clip0_1224_17004">
<rect width="140" height="140" fill="white" transform="translate(35 35)"/>
</clipPath>
</defs>
</svg>
