<svg width="210" height="210" viewBox="0 0 210 210" fill="none" xmlns="http://www.w3.org/2000/svg">
<path d="M124.479 107.284C125.769 93.7436 118.095 81.9356 107.336 80.9101C96.5782 79.8845 86.8105 90.0297 85.5198 103.57C84.229 117.11 91.9038 128.918 102.662 129.944C113.42 130.969 123.188 120.824 124.479 107.284Z" stroke="url(#paint0_linear_1224_17026)" stroke-width="0.5" stroke-miterlimit="10"/>
<path d="M124.364 108.798C126.941 93.9763 120.36 80.4536 109.665 78.594C98.9699 76.7344 88.2108 87.2422 85.6337 102.064C83.0567 116.885 89.6375 130.408 100.332 132.268C111.027 134.127 121.786 123.62 124.364 108.798Z" stroke="url(#paint1_linear_1224_17026)" stroke-width="0.5" stroke-miterlimit="10"/>
<path d="M124.219 110.298C128.29 94.2296 122.987 79.0235 112.374 76.3348C101.762 73.646 89.8582 84.4928 85.7871 100.562C81.716 116.631 87.019 131.837 97.6317 134.525C108.244 137.214 120.148 126.367 124.219 110.298Z" stroke="url(#paint2_linear_1224_17026)" stroke-width="0.5" stroke-miterlimit="10"/>
<path d="M124.052 111.798C129.817 94.5597 125.962 77.7331 115.442 74.2144C104.921 70.6956 91.7183 81.8172 85.9529 99.0552C80.1876 116.293 84.0426 133.12 94.5633 136.638C105.084 140.157 118.287 129.036 124.052 111.798Z" stroke="url(#paint3_linear_1224_17026)" stroke-width="0.5" stroke-miterlimit="10"/>
<path d="M123.89 113.328C131.538 95.0439 129.283 76.6854 118.854 72.323C108.424 67.9606 93.7697 79.2464 86.122 97.5304C78.4742 115.814 80.7293 134.173 91.1587 138.535C101.588 142.898 116.243 131.612 123.89 113.328Z" stroke="url(#paint4_linear_1224_17026)" stroke-width="0.5" stroke-miterlimit="10"/>
<path d="M123.728 114.91C133.421 95.7485 132.894 75.9734 122.551 70.741C112.208 65.5085 95.9649 76.8001 86.2715 95.9614C76.5781 115.123 77.1049 134.898 87.4481 140.13C97.7913 145.363 114.034 134.071 123.728 114.91Z" stroke="url(#paint5_linear_1224_17026)" stroke-width="0.5" stroke-miterlimit="10"/>
<path d="M123.588 116.558C135.459 96.7268 136.759 75.6681 126.492 69.522C116.224 63.376 98.2775 74.4699 86.4066 94.3011C74.5356 114.132 73.2356 135.191 83.503 141.337C93.7703 147.483 111.717 136.389 123.588 116.558Z" stroke="url(#paint6_linear_1224_17026)" stroke-width="0.5" stroke-miterlimit="10"/>
<path d="M123.472 118.334C137.619 98.0833 140.819 75.8907 130.62 68.7658C120.421 61.6409 100.685 72.2817 86.5377 92.5327C72.3906 112.784 69.1902 134.976 79.3892 142.101C89.5882 149.226 109.325 138.585 123.472 118.334Z" stroke="url(#paint7_linear_1224_17026)" stroke-width="0.5" stroke-miterlimit="10"/>
<path d="M123.348 120.259C139.821 99.8732 144.96 76.7095 134.827 68.5214C124.694 60.3333 103.125 70.2215 86.6526 90.6073C70.1799 110.993 65.0407 134.157 75.1738 142.345C85.307 150.533 106.875 140.645 123.348 120.259Z" stroke="url(#paint8_linear_1224_17026)" stroke-width="0.5" stroke-miterlimit="10"/>
<path d="M123.219 122.389C142.024 102.179 149.112 78.2063 139.05 68.8441C128.988 59.482 105.587 68.2757 86.7826 88.4855C67.978 108.695 60.8904 132.668 70.9521 142.03C81.0138 151.392 104.415 142.599 123.219 122.389Z" stroke="url(#paint9_linear_1224_17026)" stroke-width="0.5" stroke-miterlimit="10"/>
<path d="M123.055 124.762C144.144 105.058 153.158 80.4328 143.186 69.7604C133.215 59.0881 108.035 66.4099 86.9456 86.114C65.856 105.818 56.8428 130.443 66.8141 141.116C76.7854 151.788 101.965 144.466 123.055 124.762Z" stroke="url(#paint10_linear_1224_17026)" stroke-width="0.5" stroke-miterlimit="10"/>
<path d="M122.822 127.422C146.097 108.56 156.986 83.4221 147.142 71.2758C137.299 59.1294 110.451 64.5738 87.1757 83.4361C63.9004 102.298 53.0117 127.436 62.8551 139.582C72.6985 151.729 99.5465 146.284 122.822 127.422Z" stroke="url(#paint11_linear_1224_17026)" stroke-width="0.5" stroke-miterlimit="10"/>
<path d="M122.469 130.449C147.786 112.766 160.486 87.2313 150.836 73.4155C141.186 59.5996 112.841 62.7343 87.524 80.417C62.2074 98.0997 49.507 123.634 59.1568 137.45C68.8067 151.266 97.1526 148.131 122.469 130.449Z" stroke="url(#paint12_linear_1224_17026)" stroke-width="0.5" stroke-miterlimit="10"/>
<path d="M121.946 133.88C149.112 117.696 163.548 91.841 154.189 76.1307C144.829 60.4203 115.22 60.8043 88.0534 76.9883C60.8872 93.1722 46.4519 119.028 55.8112 134.738C65.1704 150.448 94.7801 150.064 121.946 133.88Z" stroke="url(#paint13_linear_1224_17026)" stroke-width="0.5" stroke-miterlimit="10"/>
<path d="M121.162 137.765C149.946 123.374 166.042 97.231 157.113 79.3742C148.185 61.5173 117.613 58.7084 88.8295 73.1002C60.0459 87.492 43.9501 113.635 52.8785 131.492C61.8069 149.348 92.3786 152.157 121.162 137.765Z" stroke="url(#paint14_linear_1224_17026)" stroke-width="0.5" stroke-miterlimit="10"/>
<path d="M120.041 142.155C150.185 129.809 167.888 103.359 159.581 83.0779C151.275 62.7964 120.105 56.363 89.9608 68.7085C59.8168 81.0541 42.1139 107.504 50.4203 127.785C58.7267 148.067 89.8968 154.5 120.041 142.155Z" stroke="url(#paint15_linear_1224_17026)" stroke-width="0.5" stroke-miterlimit="10"/>
<path d="M118.453 147.082C149.683 136.994 168.977 110.17 161.547 87.1694C154.117 64.1689 122.777 53.7015 91.5468 63.7899C60.3169 73.8783 41.0232 100.702 48.4531 123.703C55.8831 146.703 87.2232 157.171 118.453 147.082Z" stroke="url(#paint16_linear_1224_17026)" stroke-width="0.5" stroke-miterlimit="10"/>
<path d="M116.287 152.545C148.325 144.869 169.244 117.555 163.01 91.5371C156.777 65.5194 125.752 50.6505 93.7135 58.3264C61.6755 66.0024 40.7569 93.3164 46.9905 119.334C53.224 145.352 84.2492 160.221 116.287 152.545Z" stroke="url(#paint17_linear_1224_17026)" stroke-width="0.5" stroke-miterlimit="10"/>
<path d="M113.406 158.527C145.987 153.368 168.634 125.415 163.991 96.093C159.348 66.7704 129.172 47.1821 96.5916 52.3412C64.0109 57.5002 41.3631 85.4531 46.0063 114.776C50.6494 144.098 80.8253 163.686 113.406 158.527Z" stroke="url(#paint18_linear_1224_17026)" stroke-width="0.5" stroke-miterlimit="10"/>
<path d="M105.001 165.158C137.987 165.158 164.728 138.417 164.728 105.431C164.728 72.4443 137.987 45.7036 105.001 45.7036C72.0143 45.7036 45.2736 72.4443 45.2736 105.431C45.2736 138.417 72.0143 165.158 105.001 165.158Z" stroke="url(#paint19_linear_1224_17026)" stroke-width="0.5" stroke-miterlimit="10"/>
<defs>
<linearGradient id="paint0_linear_1224_17026" x1="60.0001" y1="59.5" x2="134.011" y2="156.199" gradientUnits="userSpaceOnUse">
<stop offset="0.0880748" stop-color="#0000FF"/>
<stop offset="0.477061" stop-color="white" stop-opacity="0.43"/>
<stop offset="1" stop-color="white" stop-opacity="0"/>
</linearGradient>
<linearGradient id="paint1_linear_1224_17026" x1="60.0001" y1="59.5" x2="134.011" y2="156.199" gradientUnits="userSpaceOnUse">
<stop offset="0.0880748" stop-color="#0000FF"/>
<stop offset="0.477061" stop-color="white" stop-opacity="0.43"/>
<stop offset="1" stop-color="white" stop-opacity="0"/>
</linearGradient>
<linearGradient id="paint2_linear_1224_17026" x1="60.0001" y1="59.5" x2="134.011" y2="156.199" gradientUnits="userSpaceOnUse">
<stop offset="0.0880748" stop-color="#0000FF"/>
<stop offset="0.477061" stop-color="white" stop-opacity="0.43"/>
<stop offset="1" stop-color="white" stop-opacity="0"/>
</linearGradient>
<linearGradient id="paint3_linear_1224_17026" x1="60.0001" y1="59.5" x2="134.011" y2="156.199" gradientUnits="userSpaceOnUse">
<stop offset="0.0880748" stop-color="#0000FF"/>
<stop offset="0.477061" stop-color="white" stop-opacity="0.43"/>
<stop offset="1" stop-color="white" stop-opacity="0"/>
</linearGradient>
<linearGradient id="paint4_linear_1224_17026" x1="60.0001" y1="59.5" x2="134.011" y2="156.199" gradientUnits="userSpaceOnUse">
<stop offset="0.0880748" stop-color="#0000FF"/>
<stop offset="0.477061" stop-color="white" stop-opacity="0.43"/>
<stop offset="1" stop-color="white" stop-opacity="0"/>
</linearGradient>
<linearGradient id="paint5_linear_1224_17026" x1="60.0001" y1="59.5" x2="134.011" y2="156.199" gradientUnits="userSpaceOnUse">
<stop offset="0.0880748" stop-color="#0000FF"/>
<stop offset="0.477061" stop-color="white" stop-opacity="0.43"/>
<stop offset="1" stop-color="white" stop-opacity="0"/>
</linearGradient>
<linearGradient id="paint6_linear_1224_17026" x1="60.0001" y1="59.5" x2="134.011" y2="156.199" gradientUnits="userSpaceOnUse">
<stop offset="0.0880748" stop-color="#0000FF"/>
<stop offset="0.477061" stop-color="white" stop-opacity="0.43"/>
<stop offset="1" stop-color="white" stop-opacity="0"/>
</linearGradient>
<linearGradient id="paint7_linear_1224_17026" x1="60.0001" y1="59.5" x2="134.011" y2="156.199" gradientUnits="userSpaceOnUse">
<stop offset="0.0880748" stop-color="#0000FF"/>
<stop offset="0.477061" stop-color="white" stop-opacity="0.43"/>
<stop offset="1" stop-color="white" stop-opacity="0"/>
</linearGradient>
<linearGradient id="paint8_linear_1224_17026" x1="60.0001" y1="59.5" x2="134.011" y2="156.199" gradientUnits="userSpaceOnUse">
<stop offset="0.0880748" stop-color="#0000FF"/>
<stop offset="0.477061" stop-color="white" stop-opacity="0.43"/>
<stop offset="1" stop-color="white" stop-opacity="0"/>
</linearGradient>
<linearGradient id="paint9_linear_1224_17026" x1="60.0001" y1="59.5" x2="134.011" y2="156.199" gradientUnits="userSpaceOnUse">
<stop offset="0.0880748" stop-color="#0000FF"/>
<stop offset="0.477061" stop-color="white" stop-opacity="0.43"/>
<stop offset="1" stop-color="white" stop-opacity="0"/>
</linearGradient>
<linearGradient id="paint10_linear_1224_17026" x1="60.0001" y1="59.5" x2="134.011" y2="156.199" gradientUnits="userSpaceOnUse">
<stop offset="0.0880748" stop-color="#0000FF"/>
<stop offset="0.477061" stop-color="white" stop-opacity="0.43"/>
<stop offset="1" stop-color="white" stop-opacity="0"/>
</linearGradient>
<linearGradient id="paint11_linear_1224_17026" x1="60.0001" y1="59.5" x2="134.011" y2="156.199" gradientUnits="userSpaceOnUse">
<stop offset="0.0880748" stop-color="#0000FF"/>
<stop offset="0.477061" stop-color="white" stop-opacity="0.43"/>
<stop offset="1" stop-color="white" stop-opacity="0"/>
</linearGradient>
<linearGradient id="paint12_linear_1224_17026" x1="60.0001" y1="59.5" x2="134.011" y2="156.199" gradientUnits="userSpaceOnUse">
<stop offset="0.0880748" stop-color="#0000FF"/>
<stop offset="0.477061" stop-color="white" stop-opacity="0.43"/>
<stop offset="1" stop-color="white" stop-opacity="0"/>
</linearGradient>
<linearGradient id="paint13_linear_1224_17026" x1="60.0001" y1="59.5" x2="134.011" y2="156.199" gradientUnits="userSpaceOnUse">
<stop offset="0.0880748" stop-color="#0000FF"/>
<stop offset="0.477061" stop-color="white" stop-opacity="0.43"/>
<stop offset="1" stop-color="white" stop-opacity="0"/>
</linearGradient>
<linearGradient id="paint14_linear_1224_17026" x1="60.0001" y1="59.5" x2="134.011" y2="156.199" gradientUnits="userSpaceOnUse">
<stop offset="0.0880748" stop-color="#0000FF"/>
<stop offset="0.477061" stop-color="white" stop-opacity="0.43"/>
<stop offset="1" stop-color="white" stop-opacity="0"/>
</linearGradient>
<linearGradient id="paint15_linear_1224_17026" x1="60.0001" y1="59.5" x2="134.011" y2="156.199" gradientUnits="userSpaceOnUse">
<stop offset="0.0880748" stop-color="#0000FF"/>
<stop offset="0.477061" stop-color="white" stop-opacity="0.43"/>
<stop offset="1" stop-color="white" stop-opacity="0"/>
</linearGradient>
<linearGradient id="paint16_linear_1224_17026" x1="60.0001" y1="59.5" x2="134.011" y2="156.199" gradientUnits="userSpaceOnUse">
<stop offset="0.0880748" stop-color="#0000FF"/>
<stop offset="0.477061" stop-color="white" stop-opacity="0.43"/>
<stop offset="1" stop-color="white" stop-opacity="0"/>
</linearGradient>
<linearGradient id="paint17_linear_1224_17026" x1="60.0001" y1="59.5" x2="134.011" y2="156.199" gradientUnits="userSpaceOnUse">
<stop offset="0.0880748" stop-color="#0000FF"/>
<stop offset="0.477061" stop-color="white" stop-opacity="0.43"/>
<stop offset="1" stop-color="white" stop-opacity="0"/>
</linearGradient>
<linearGradient id="paint18_linear_1224_17026" x1="60.0001" y1="59.5" x2="134.011" y2="156.199" gradientUnits="userSpaceOnUse">
<stop offset="0.0880748" stop-color="#0000FF"/>
<stop offset="0.477061" stop-color="white" stop-opacity="0.43"/>
<stop offset="1" stop-color="white" stop-opacity="0"/>
</linearGradient>
<linearGradient id="paint19_linear_1224_17026" x1="60.0001" y1="59.5" x2="134.011" y2="156.199" gradientUnits="userSpaceOnUse">
<stop offset="0.0880748" stop-color="#0000FF"/>
<stop offset="0.477061" stop-color="white" stop-opacity="0.43"/>
<stop offset="1" stop-color="white" stop-opacity="0"/>
</linearGradient>
</defs>
</svg>
