<svg width="210" height="210" viewBox="0 0 210 210" fill="none" xmlns="http://www.w3.org/2000/svg">
<path d="M117.86 124.196C121.821 121.528 119.242 110.77 112.101 100.167C104.96 89.5641 95.96 83.131 91.9992 85.7987C88.0383 88.4663 90.6165 99.2244 97.7577 109.827C104.899 120.431 113.899 126.864 117.86 124.196Z" stroke="url(#paint0_linear_1224_17015)" stroke-width="0.5" stroke-miterlimit="10"/>
<path d="M120.135 124.878C124.158 121.802 120.613 110.407 112.217 99.4269C103.822 88.4466 93.7546 82.0387 89.7319 85.1145C85.7092 88.1903 89.2541 99.585 97.6496 110.565C106.045 121.546 116.112 127.954 120.135 124.878Z" stroke="url(#paint1_linear_1224_17015)" stroke-width="0.5" stroke-miterlimit="10"/>
<path d="M122.514 125.362C126.602 121.833 122.043 109.854 112.332 98.606C102.621 87.3583 91.4346 81.1013 87.3469 84.6306C83.2592 88.1599 87.8179 100.139 97.529 111.387C107.24 122.634 118.426 128.891 122.514 125.362Z" stroke="url(#paint2_linear_1224_17015)" stroke-width="0.5" stroke-miterlimit="10"/>
<path d="M124.979 125.615C129.131 121.576 123.519 109.072 112.444 97.6859C101.369 86.2996 89.0255 80.3431 84.8734 84.3817C80.7213 88.4202 86.3334 100.925 97.4083 112.311C108.483 123.697 120.827 129.654 124.979 125.615Z" stroke="url(#paint3_linear_1224_17015)" stroke-width="0.5" stroke-miterlimit="10"/>
<path d="M127.516 125.596C131.727 120.98 125.028 108.014 112.555 96.636C100.081 85.2582 86.5561 79.7771 82.3451 84.3935C78.1342 89.01 84.8324 101.976 97.3059 113.354C109.779 124.731 123.305 130.212 127.516 125.596Z" stroke="url(#paint4_linear_1224_17015)" stroke-width="0.5" stroke-miterlimit="10"/>
<path d="M130.078 125.282C134.334 120.006 126.527 106.647 112.639 95.4431C98.7521 84.2395 84.0439 79.434 79.7876 84.7097C75.5313 89.9855 83.3388 103.345 97.226 114.548C111.113 125.752 125.821 130.558 130.078 125.282Z" stroke="url(#paint5_linear_1224_17015)" stroke-width="0.5" stroke-miterlimit="10"/>
<path d="M132.636 124.635C136.913 118.603 127.979 104.92 112.681 94.0731C97.3825 83.2267 81.5135 79.3244 77.2365 85.357C72.9594 91.3896 81.8938 105.073 97.192 115.919C112.49 126.765 128.359 130.668 132.636 124.635Z" stroke="url(#paint6_linear_1224_17015)" stroke-width="0.5" stroke-miterlimit="10"/>
<path d="M135.147 123.63C139.404 116.726 129.33 102.788 112.646 92.4998C95.961 82.2111 78.984 79.4675 74.7264 86.3718C70.4688 93.2761 80.5428 107.214 97.2274 117.502C113.912 127.791 130.889 130.535 135.147 123.63Z" stroke="url(#paint7_linear_1224_17015)" stroke-width="0.5" stroke-miterlimit="10"/>
<path d="M137.569 122.227C141.743 114.317 130.515 100.193 112.49 90.6819C94.4656 81.1702 76.47 79.8719 72.2958 87.7819C68.1217 95.6919 79.3497 109.815 97.3743 119.327C115.399 128.838 133.395 130.137 137.569 122.227Z" stroke="url(#paint8_linear_1224_17015)" stroke-width="0.5" stroke-miterlimit="10"/>
<path d="M139.87 120.382C143.863 111.311 131.456 97.0707 112.158 88.575C92.8599 80.0793 73.9783 80.5457 69.9849 89.6168C65.9915 98.6879 78.3986 112.929 97.6968 121.424C116.995 129.92 135.877 129.454 139.87 120.382Z" stroke="url(#paint9_linear_1224_17015)" stroke-width="0.5" stroke-miterlimit="10"/>
<path d="M142.028 118.071C145.695 107.663 132.064 93.3748 111.581 86.1563C91.0981 78.9378 71.5202 81.5227 67.8525 91.93C64.1848 102.337 77.8162 116.626 98.2991 123.844C118.782 131.063 138.36 128.478 142.028 118.071Z" stroke="url(#paint10_linear_1224_17015)" stroke-width="0.5" stroke-miterlimit="10"/>
<path d="M143.958 115.201C147.077 103.269 132.134 89.0289 110.581 83.3951C89.0287 77.7614 69.0285 82.8674 65.9095 94.7995C62.7905 106.732 77.7338 120.972 99.2862 126.605C120.839 132.239 140.839 127.133 143.958 115.201Z" stroke="url(#paint11_linear_1224_17015)" stroke-width="0.5" stroke-miterlimit="10"/>
<path d="M145.646 111.639C147.872 97.9905 131.452 83.9531 108.969 80.2858C86.4873 76.6185 66.4571 84.71 64.2307 98.3587C62.0044 112.007 78.4249 126.045 100.907 129.712C123.389 133.379 143.419 125.288 145.646 111.639Z" stroke="url(#paint12_linear_1224_17015)" stroke-width="0.5" stroke-miterlimit="10"/>
<path d="M146.976 107.084C147.747 91.568 129.548 78.055 106.329 76.902C83.1097 75.7489 63.662 87.3924 62.8915 102.908C62.121 118.424 80.3194 131.937 103.539 133.09C126.758 134.243 146.206 122.6 146.976 107.084Z" stroke="url(#paint13_linear_1224_17015)" stroke-width="0.5" stroke-miterlimit="10"/>
<path d="M107.972 136.438C131.601 134.157 149.397 118.232 147.72 100.869C146.044 83.5066 125.53 71.2805 101.902 73.5617C78.2731 75.8429 60.4772 91.7675 62.1535 109.13C63.8298 126.493 84.3434 138.719 107.972 136.438Z" stroke="url(#paint14_linear_1224_17015)" stroke-width="0.5" stroke-miterlimit="10"/>
<path d="M115.765 138.552C138.966 131.066 152.927 109.973 146.946 91.4407C140.966 72.9082 117.31 63.9538 94.1091 71.4405C70.908 78.9272 56.9477 100.02 62.9279 118.552C68.908 137.085 92.5641 146.039 115.765 138.552Z" stroke="url(#paint15_linear_1224_17015)" stroke-width="0.5" stroke-miterlimit="10"/>
<path d="M128.305 135.758C148.615 120.325 154.615 94.0422 141.706 77.0533C128.796 60.0644 101.867 58.803 81.5565 74.236C61.2462 89.669 55.2464 115.952 68.1556 132.941C81.0648 149.93 107.994 151.191 128.305 135.758Z" stroke="url(#paint16_linear_1224_17015)" stroke-width="0.5" stroke-miterlimit="10"/>
<path d="M139.888 126.238C154.228 102.634 150.201 73.9901 130.892 62.2593C111.583 50.5286 84.3052 60.1536 69.9651 83.7573C55.625 107.361 59.6528 136.005 78.9616 147.736C98.2704 159.467 125.548 149.842 139.888 126.238Z" stroke="url(#paint17_linear_1224_17015)" stroke-width="0.5" stroke-miterlimit="10"/>
<path d="M145.411 117.006C154.14 87.5911 143.094 58.3673 120.738 51.733C98.3818 45.0988 73.1824 63.5663 64.4533 92.9814C55.7241 122.397 66.7709 151.62 89.1268 158.255C111.483 164.889 136.682 146.421 145.411 117.006Z" stroke="url(#paint18_linear_1224_17015)" stroke-width="0.5" stroke-miterlimit="10"/>
<path d="M147.776 110.269C151.97 76.1193 136.188 46.08 112.526 43.1737C88.8631 40.2674 66.2807 65.5948 62.0865 99.744C57.8922 133.893 73.6744 163.933 97.337 166.839C121 169.745 143.582 144.418 147.776 110.269Z" stroke="url(#paint19_linear_1224_17015)" stroke-width="0.5" stroke-miterlimit="10"/>
<path d="M104.933 175C129.261 175 148.982 143.66 148.982 105C148.982 66.3401 129.261 35 104.933 35C80.6047 35 60.883 66.3401 60.883 105C60.883 143.66 80.6047 175 104.933 175Z" stroke="url(#paint20_linear_1224_17015)" stroke-width="0.5" stroke-miterlimit="10"/>
<defs>
<linearGradient id="paint0_linear_1224_17015" x1="98.5002" y1="35" x2="164.416" y2="125.455" gradientUnits="userSpaceOnUse">
<stop offset="0.0880748" stop-color="#0000FF"/>
<stop offset="0.486977" stop-color="white" stop-opacity="0.45"/>
<stop offset="1" stop-color="white" stop-opacity="0"/>
</linearGradient>
<linearGradient id="paint1_linear_1224_17015" x1="98.5002" y1="35" x2="164.416" y2="125.455" gradientUnits="userSpaceOnUse">
<stop offset="0.0880748" stop-color="#0000FF"/>
<stop offset="0.486977" stop-color="white" stop-opacity="0.45"/>
<stop offset="1" stop-color="white" stop-opacity="0"/>
</linearGradient>
<linearGradient id="paint2_linear_1224_17015" x1="98.5002" y1="35" x2="164.416" y2="125.455" gradientUnits="userSpaceOnUse">
<stop offset="0.0880748" stop-color="#0000FF"/>
<stop offset="0.486977" stop-color="white" stop-opacity="0.45"/>
<stop offset="1" stop-color="white" stop-opacity="0"/>
</linearGradient>
<linearGradient id="paint3_linear_1224_17015" x1="98.5002" y1="35" x2="164.416" y2="125.455" gradientUnits="userSpaceOnUse">
<stop offset="0.0880748" stop-color="#0000FF"/>
<stop offset="0.486977" stop-color="white" stop-opacity="0.45"/>
<stop offset="1" stop-color="white" stop-opacity="0"/>
</linearGradient>
<linearGradient id="paint4_linear_1224_17015" x1="98.5002" y1="35" x2="164.416" y2="125.455" gradientUnits="userSpaceOnUse">
<stop offset="0.0880748" stop-color="#0000FF"/>
<stop offset="0.486977" stop-color="white" stop-opacity="0.45"/>
<stop offset="1" stop-color="white" stop-opacity="0"/>
</linearGradient>
<linearGradient id="paint5_linear_1224_17015" x1="98.5002" y1="35" x2="164.416" y2="125.455" gradientUnits="userSpaceOnUse">
<stop offset="0.0880748" stop-color="#0000FF"/>
<stop offset="0.486977" stop-color="white" stop-opacity="0.45"/>
<stop offset="1" stop-color="white" stop-opacity="0"/>
</linearGradient>
<linearGradient id="paint6_linear_1224_17015" x1="98.5002" y1="35" x2="164.416" y2="125.455" gradientUnits="userSpaceOnUse">
<stop offset="0.0880748" stop-color="#0000FF"/>
<stop offset="0.486977" stop-color="white" stop-opacity="0.45"/>
<stop offset="1" stop-color="white" stop-opacity="0"/>
</linearGradient>
<linearGradient id="paint7_linear_1224_17015" x1="98.5002" y1="35" x2="164.416" y2="125.455" gradientUnits="userSpaceOnUse">
<stop offset="0.0880748" stop-color="#0000FF"/>
<stop offset="0.486977" stop-color="white" stop-opacity="0.45"/>
<stop offset="1" stop-color="white" stop-opacity="0"/>
</linearGradient>
<linearGradient id="paint8_linear_1224_17015" x1="98.5002" y1="35" x2="164.416" y2="125.455" gradientUnits="userSpaceOnUse">
<stop offset="0.0880748" stop-color="#0000FF"/>
<stop offset="0.486977" stop-color="white" stop-opacity="0.45"/>
<stop offset="1" stop-color="white" stop-opacity="0"/>
</linearGradient>
<linearGradient id="paint9_linear_1224_17015" x1="98.5002" y1="35" x2="164.416" y2="125.455" gradientUnits="userSpaceOnUse">
<stop offset="0.0880748" stop-color="#0000FF"/>
<stop offset="0.486977" stop-color="white" stop-opacity="0.45"/>
<stop offset="1" stop-color="white" stop-opacity="0"/>
</linearGradient>
<linearGradient id="paint10_linear_1224_17015" x1="98.5002" y1="35" x2="164.416" y2="125.455" gradientUnits="userSpaceOnUse">
<stop offset="0.0880748" stop-color="#0000FF"/>
<stop offset="0.486977" stop-color="white" stop-opacity="0.45"/>
<stop offset="1" stop-color="white" stop-opacity="0"/>
</linearGradient>
<linearGradient id="paint11_linear_1224_17015" x1="98.5002" y1="35" x2="164.416" y2="125.455" gradientUnits="userSpaceOnUse">
<stop offset="0.0880748" stop-color="#0000FF"/>
<stop offset="0.486977" stop-color="white" stop-opacity="0.45"/>
<stop offset="1" stop-color="white" stop-opacity="0"/>
</linearGradient>
<linearGradient id="paint12_linear_1224_17015" x1="98.5002" y1="35" x2="164.416" y2="125.455" gradientUnits="userSpaceOnUse">
<stop offset="0.0880748" stop-color="#0000FF"/>
<stop offset="0.486977" stop-color="white" stop-opacity="0.45"/>
<stop offset="1" stop-color="white" stop-opacity="0"/>
</linearGradient>
<linearGradient id="paint13_linear_1224_17015" x1="98.5002" y1="35" x2="164.416" y2="125.455" gradientUnits="userSpaceOnUse">
<stop offset="0.0880748" stop-color="#0000FF"/>
<stop offset="0.486977" stop-color="white" stop-opacity="0.45"/>
<stop offset="1" stop-color="white" stop-opacity="0"/>
</linearGradient>
<linearGradient id="paint14_linear_1224_17015" x1="98.5002" y1="35" x2="164.416" y2="125.455" gradientUnits="userSpaceOnUse">
<stop offset="0.0880748" stop-color="#0000FF"/>
<stop offset="0.486977" stop-color="white" stop-opacity="0.45"/>
<stop offset="1" stop-color="white" stop-opacity="0"/>
</linearGradient>
<linearGradient id="paint15_linear_1224_17015" x1="98.5002" y1="35" x2="164.416" y2="125.455" gradientUnits="userSpaceOnUse">
<stop offset="0.0880748" stop-color="#0000FF"/>
<stop offset="0.486977" stop-color="white" stop-opacity="0.45"/>
<stop offset="1" stop-color="white" stop-opacity="0"/>
</linearGradient>
<linearGradient id="paint16_linear_1224_17015" x1="98.5002" y1="35" x2="164.416" y2="125.455" gradientUnits="userSpaceOnUse">
<stop offset="0.0880748" stop-color="#0000FF"/>
<stop offset="0.486977" stop-color="white" stop-opacity="0.45"/>
<stop offset="1" stop-color="white" stop-opacity="0"/>
</linearGradient>
<linearGradient id="paint17_linear_1224_17015" x1="98.5002" y1="35" x2="164.416" y2="125.455" gradientUnits="userSpaceOnUse">
<stop offset="0.0880748" stop-color="#0000FF"/>
<stop offset="0.486977" stop-color="white" stop-opacity="0.45"/>
<stop offset="1" stop-color="white" stop-opacity="0"/>
</linearGradient>
<linearGradient id="paint18_linear_1224_17015" x1="98.5002" y1="35" x2="164.416" y2="125.455" gradientUnits="userSpaceOnUse">
<stop offset="0.0880748" stop-color="#0000FF"/>
<stop offset="0.486977" stop-color="white" stop-opacity="0.45"/>
<stop offset="1" stop-color="white" stop-opacity="0"/>
</linearGradient>
<linearGradient id="paint19_linear_1224_17015" x1="98.5002" y1="35" x2="164.416" y2="125.455" gradientUnits="userSpaceOnUse">
<stop offset="0.0880748" stop-color="#0000FF"/>
<stop offset="0.486977" stop-color="white" stop-opacity="0.45"/>
<stop offset="1" stop-color="white" stop-opacity="0"/>
</linearGradient>
<linearGradient id="paint20_linear_1224_17015" x1="98.5002" y1="35" x2="164.416" y2="125.455" gradientUnits="userSpaceOnUse">
<stop offset="0.0880748" stop-color="#0000FF"/>
<stop offset="0.486977" stop-color="white" stop-opacity="0.45"/>
<stop offset="1" stop-color="white" stop-opacity="0"/>
</linearGradient>
</defs>
</svg>
