<svg width="210" height="210" viewBox="0 0 210 210" fill="none" xmlns="http://www.w3.org/2000/svg">
<path d="M100.917 182.891C101.21 176.398 101.549 169.906 101.892 163.416L102.927 143.943L103.437 134.207L103.686 129.338L103.81 126.904L103.872 125.687C103.881 125.484 103.9 125.282 103.889 125.078C103.881 124.875 103.85 124.67 103.818 124.464C103.786 124.259 103.758 124.055 103.752 123.851C103.745 123.647 103.764 123.445 103.773 123.242L103.837 122.025L103.964 119.591L104.224 114.723C104.397 111.478 104.585 108.233 104.77 104.988L105.892 85.5207L106.442 75.786L106.973 66.0504L109.082 27.1079L107.109 66.0576L106.62 75.795L106.148 85.5333L105.229 105.012C105.074 108.258 104.922 111.504 104.755 114.75L104.504 119.619L104.377 122.053L104.313 123.27C104.3 123.473 104.298 123.676 104.269 123.878C104.242 124.08 104.194 124.281 104.139 124.481C104.087 124.681 104.034 124.883 104.005 125.085C103.973 125.287 103.97 125.49 103.957 125.693L103.892 126.91L103.761 129.344L103.5 134.211L102.989 143.948L101.983 163.422C101.645 169.912 101.304 176.402 100.917 182.891Z" fill="url(#paint0_linear_1224_16874)"/>
<path d="M96.8458 182.571C97.4782 176.102 98.1575 169.638 98.8386 163.173L100.892 143.781L101.91 134.085L102.414 129.236L102.665 126.811L102.791 125.598C102.811 125.396 102.839 125.195 102.839 124.99C102.842 124.786 102.821 124.58 102.801 124.373C102.779 124.167 102.762 123.961 102.766 123.757C102.77 123.553 102.8 123.352 102.819 123.15L102.946 121.938L103.2 119.514L103.715 114.666C104.057 111.433 104.415 108.204 104.769 104.972L106.909 85.5896L107.966 75.8972L109.006 66.2031L113.151 27.424L109.143 66.2176L108.144 75.9162L107.163 85.6166L105.226 105.02C104.902 108.254 104.579 111.488 104.243 114.721L103.738 119.569L103.484 121.993L103.356 123.206C103.333 123.408 103.32 123.611 103.282 123.81C103.244 124.011 103.184 124.208 103.12 124.406C103.057 124.603 102.993 124.801 102.954 125.001C102.912 125.2 102.897 125.403 102.875 125.606L102.746 126.817L102.488 129.241L101.972 134.089L100.952 143.786L98.9288 163.18C98.2522 169.648 97.572 176.111 96.8458 182.571Z" fill="url(#paint1_linear_1224_16874)"/>
<path d="M92.7971 182.039C93.7669 175.611 94.7836 169.192 95.8021 162.771L98.8665 143.514L100.391 133.884L101.147 129.067L101.525 126.66L101.715 125.455C101.744 125.254 101.784 125.055 101.794 124.851C101.808 124.648 101.798 124.44 101.788 124.233C101.777 124.025 101.77 123.819 101.786 123.616C101.8 123.413 101.84 123.214 101.87 123.012L102.06 121.809L102.442 119.401L103.209 114.587C103.721 111.377 104.247 108.17 104.77 104.962L107.921 85.718L109.484 76.0943L111.031 66.4678L117.199 27.9584L111.166 66.4886L109.661 76.1223L108.175 85.7586L105.225 105.034C104.731 108.247 104.24 111.459 103.734 114.67L102.977 119.485L102.595 121.893L102.405 123.096C102.371 123.297 102.348 123.499 102.298 123.696C102.25 123.895 102.18 124.089 102.106 124.283C102.033 124.476 101.959 124.67 101.909 124.868C101.856 125.066 101.832 125.267 101.798 125.467L101.606 126.67L101.222 129.077L100.453 133.891L98.9279 143.521L95.8923 162.783C94.8783 169.206 93.8607 175.626 92.7971 182.039Z" fill="url(#paint2_linear_1224_16874)"/>
<path d="M88.7812 181.294C90.0866 174.926 91.4371 168.568 92.7911 162.211L96.8597 143.14L98.8867 133.603L99.8944 128.834L100.398 126.448L100.649 125.256C100.69 125.056 100.74 124.86 100.76 124.657C100.785 124.455 100.786 124.247 100.787 124.04C100.787 123.832 100.791 123.626 100.817 123.424C100.842 123.222 100.892 123.024 100.933 122.826L101.186 121.634L101.693 119.25L102.712 114.482C103.391 111.304 104.083 108.128 104.774 104.952L108.928 85.8993L110.993 76.3703L113.041 66.8376L121.217 28.7043L113.175 66.8665L111.169 76.4081L109.18 85.9534L105.225 105.048C104.564 108.23 103.905 111.413 103.233 114.593L102.225 119.362L101.718 121.747L101.464 122.938C101.42 123.137 101.386 123.337 101.326 123.532C101.267 123.727 101.188 123.918 101.103 124.107C101.02 124.298 100.935 124.487 100.876 124.682C100.813 124.876 100.778 125.076 100.733 125.275L100.478 126.466L99.9684 128.85L98.949 133.617L96.9219 143.154L92.8823 162.231C91.5309 168.588 90.1795 174.946 88.7812 181.294Z" fill="url(#paint3_linear_1224_16874)"/>
<path d="M84.8115 180.341C86.448 174.05 88.1304 167.771 89.8147 161.494L94.8755 142.662L97.3987 133.244L98.6545 128.533L99.2823 126.178L99.5963 125C99.6468 124.804 99.7072 124.61 99.7388 124.408C99.774 124.206 99.7857 124 99.7975 123.792C99.8083 123.585 99.8236 123.379 99.8606 123.178C99.8958 122.977 99.9562 122.783 100.008 122.586L100.323 121.409L100.954 119.055L102.221 114.347C103.065 111.209 103.923 108.074 104.778 104.939L109.924 86.13L112.485 76.7219L115.029 67.3092L125.189 29.6559L115.161 67.3444L112.658 76.7679L110.172 86.1959L105.223 105.058C104.396 108.201 103.572 111.345 102.734 114.485L101.476 119.195L100.846 121.55L100.53 122.727C100.475 122.923 100.431 123.121 100.361 123.312C100.293 123.505 100.203 123.69 100.109 123.875C100.016 124.06 99.9219 124.246 99.8516 124.437C99.7776 124.628 99.7325 124.826 99.6784 125.022L99.3617 126.199L98.7275 128.553L97.4601 133.26L94.936 142.678L89.9031 161.518C88.2215 167.796 86.5391 174.074 84.8115 180.341Z" fill="url(#paint4_linear_1224_16874)"/>
<path d="M80.8958 179.182C82.8597 172.985 84.8678 166.803 86.8777 160.622L92.9173 142.08L95.9295 132.808L97.4297 128.169L98.1803 125.85L98.5555 124.69C98.6169 124.496 98.6863 124.306 98.7287 124.106C98.7748 123.907 98.7964 123.701 98.8199 123.494C98.8415 123.288 98.8677 123.083 98.9146 122.884C98.9606 122.686 99.031 122.495 99.0923 122.302L99.4694 121.142L100.223 118.824L101.734 114.189C102.741 111.099 103.762 108.013 104.78 104.927L110.903 86.4127L113.953 77.1516L116.986 67.8851L129.103 30.8154L117.117 67.9275L114.123 77.2067L111.147 86.4912L105.219 105.068C104.229 108.165 103.24 111.261 102.24 114.352L100.738 118.99L99.9845 121.308L99.6083 122.468C99.5434 122.66 99.4892 122.855 99.4089 123.044C99.3305 123.233 99.2312 123.413 99.1275 123.593C99.0246 123.774 98.9209 123.953 98.8415 124.141C98.7585 124.328 98.7026 124.523 98.6385 124.716L98.2605 125.874L97.5046 128.191L95.9917 132.826L92.9787 142.098L86.967 160.649C84.9589 166.833 82.9499 173.014 80.8958 179.182Z" fill="url(#paint5_linear_1224_16874)"/>
<path d="M77.046 177.818C79.3311 171.733 81.6603 165.665 83.9914 159.597L90.9936 141.398L94.4875 132.296L96.2286 127.742L97.0991 125.465L97.5348 124.326C97.6061 124.136 97.6855 123.949 97.7387 123.752C97.7946 123.556 97.828 123.351 97.8614 123.146C97.8939 122.942 97.9309 122.738 97.9886 122.542C98.0445 122.346 98.1257 122.159 98.1961 121.969L98.6327 120.831L99.506 118.556L101.258 114.007C102.426 110.974 103.606 107.946 104.785 104.917L111.869 86.7487L115.399 77.6599L118.912 68.5648L132.953 32.1798L119.04 68.6144L115.566 77.7239L112.108 86.8398L105.215 105.081C104.065 108.121 102.916 111.162 101.755 114.196L100.012 118.749L99.1388 121.025L98.7022 122.163C98.6273 122.352 98.5623 122.545 98.473 122.728C98.3846 122.912 98.2764 123.088 98.1627 123.262C98.0508 123.436 97.9381 123.611 97.8488 123.794C97.7559 123.976 97.69 124.168 97.616 124.357L97.1776 125.494L96.3007 127.769L94.5479 132.318L91.0531 141.42L84.0789 159.631C81.7496 165.698 79.4195 171.767 77.046 177.818Z" fill="url(#paint6_linear_1224_16874)"/>
<path d="M73.2726 176.255C75.8734 170.297 78.5166 164.359 81.1625 158.422L89.1074 140.614L93.0731 131.707L95.0505 127.25L96.0392 125.022L96.5336 123.908C96.6148 123.721 96.7041 123.539 96.7672 123.345C96.834 123.152 96.8773 122.949 96.9215 122.747C96.9648 122.544 97.0117 122.343 97.0794 122.15C97.1452 121.957 97.2363 121.775 97.3166 121.589L97.8128 120.476L98.8042 118.25L100.792 113.798C102.117 110.83 103.454 107.868 104.79 104.906L112.814 87.1331L116.815 78.2419L120.8 69.3434L136.725 33.7433L120.924 69.3993L116.977 78.3149L113.047 87.2378L105.208 105.093C103.9 108.068 102.594 111.045 101.275 114.015L99.2968 118.471L98.3053 120.697L97.8101 121.81C97.7253 121.995 97.6504 122.184 97.5521 122.362C97.4547 122.541 97.3365 122.712 97.2147 122.879C97.0938 123.048 96.972 123.216 96.8728 123.395C96.77 123.571 96.6951 123.76 96.6103 123.945L96.1132 125.057L95.1191 127.283L93.1308 131.734L89.1651 140.64L81.2473 158.461C78.6041 164.398 75.96 170.336 73.2726 176.255Z" fill="url(#paint7_linear_1224_16874)"/>
<path d="M69.587 174.497C72.4955 168.684 75.4463 162.892 78.3989 157.102L87.2649 139.733L91.6906 131.046L93.8981 126.699L95.0023 124.526L95.5544 123.439C95.6446 123.257 95.7438 123.08 95.8169 122.889C95.8936 122.699 95.9477 122.499 96.0018 122.3C96.056 122.099 96.1137 121.901 96.1913 121.712C96.268 121.523 96.3672 121.346 96.4574 121.164L97.0104 120.078L98.1173 117.906L100.335 113.565C101.813 110.671 103.304 107.782 104.793 104.893L113.737 87.5647L118.197 78.8954L122.642 70.218L140.408 35.5001L122.764 70.2802L118.356 78.9775L113.965 87.682L105.203 105.103C103.74 108.006 102.281 110.909 100.808 113.806L98.599 118.152L97.4921 120.324L96.9391 121.41C96.8453 121.591 96.7605 121.775 96.6523 121.948C96.5458 122.121 96.4186 122.285 96.2878 122.446C96.1579 122.607 96.028 122.77 95.9197 122.942C95.8079 123.113 95.7231 123.297 95.6293 123.478L95.0745 124.563L93.9649 126.734L91.7457 131.075L87.319 139.762L78.4792 157.143C75.532 162.936 72.5803 168.727 69.587 174.497Z" fill="url(#paint8_linear_1224_16874)"/>
<path d="M65.9982 172.549C69.207 166.897 72.4573 161.267 75.7085 155.639L85.4712 138.759L90.3462 130.315L92.7783 126.09L93.9944 123.978L94.6024 122.921C94.7025 122.744 94.8108 122.572 94.8938 122.385C94.9795 122.2 95.0444 122.003 95.1094 121.806C95.1734 121.609 95.242 121.414 95.3295 121.23C95.4152 121.045 95.5244 120.873 95.6245 120.697L96.2343 119.641L97.4531 117.53L99.8951 113.311C101.523 110.498 103.163 107.692 104.801 104.885L114.639 88.0491L119.548 79.6251L124.441 71.1922L144 37.4513L124.56 71.2607L119.703 79.7153L114.861 88.1781L105.2 105.116C103.587 107.938 101.977 110.762 100.355 113.578L97.9222 117.803L96.7034 119.914L96.0945 120.969C95.9908 121.144 95.8969 121.324 95.7797 121.491C95.6642 121.659 95.5289 121.816 95.39 121.97C95.2519 122.126 95.113 122.28 94.9966 122.447C94.8766 122.612 94.781 122.791 94.6782 122.966L94.0675 124.021L92.846 126.13L90.4031 130.348L85.528 138.792L75.7879 155.684C72.5394 161.314 69.2891 166.943 65.9982 172.549Z" fill="url(#paint9_linear_1224_16874)"/>
<path d="M62.5177 170.414C66.0179 164.938 69.5578 159.486 73.0995 154.036L83.7318 137.689L89.0417 129.513L91.6912 125.421L93.0164 123.375L93.6785 122.352C93.7877 122.18 93.905 122.014 93.997 121.832C94.0926 121.652 94.1675 121.459 94.2433 121.265C94.3172 121.072 94.3957 120.88 94.4931 120.701C94.5888 120.52 94.7069 120.355 94.8152 120.184L95.4791 119.162L96.8071 117.118L99.4665 113.032C101.239 110.308 103.024 107.592 104.807 104.874L115.512 88.5756L120.855 80.4195L126.183 72.2536L147.481 39.5826L126.297 72.3285L121.004 80.517L115.727 88.7154L105.192 105.125C103.435 107.859 101.679 110.593 99.9121 113.321L97.2608 117.413L95.9329 119.457L95.269 120.479C95.1562 120.648 95.0533 120.823 94.9271 120.984C94.8026 121.145 94.66 121.295 94.513 121.441C94.3668 121.588 94.2207 121.736 94.0953 121.897C93.9663 122.056 93.8626 122.23 93.7498 122.399L93.0849 123.421L91.7543 125.463L89.094 129.548L83.7832 137.725L73.1753 154.086C69.6372 159.538 66.0973 164.989 62.5177 170.414Z" fill="url(#paint10_linear_1224_16874)"/>
<path d="M59.1516 168.101C62.9342 162.815 66.7546 157.557 70.576 152.299L82.05 136.532L87.7802 128.644L90.6408 124.696L92.0707 122.722L92.786 121.735C92.9042 121.57 93.0296 121.411 93.1315 121.233C93.2362 121.058 93.321 120.869 93.4067 120.68C93.4915 120.491 93.579 120.303 93.6854 120.13C93.7901 119.955 93.9164 119.796 94.0346 119.63L94.7508 118.644L96.1834 116.672L99.053 112.731C100.966 110.104 102.891 107.484 104.813 104.863L116.357 89.1475L122.12 81.282L127.868 73.4065L150.847 41.8948L127.979 73.4868L122.265 81.3875L116.566 89.2982L105.186 105.134C103.288 107.772 101.392 110.411 99.4842 113.043L96.6227 116.989L95.1902 118.961L94.4739 119.948C94.353 120.111 94.2402 120.28 94.1067 120.434C93.9741 120.588 93.8235 120.731 93.6692 120.869C93.5158 121.009 93.3616 121.148 93.2281 121.302C93.091 121.454 92.9782 121.623 92.8573 121.786L92.1392 122.771L90.704 124.741L87.8334 128.682L82.1023 136.57L70.6527 152.354C66.8313 157.613 63.0109 162.871 59.1516 168.101Z" fill="url(#paint11_linear_1224_16874)"/>
<path d="M55.9121 165.616C59.9662 160.535 64.0564 155.484 68.1484 150.433L80.4316 135.288L86.5668 127.71L89.6295 123.918L91.1613 122.022L91.9272 121.074C92.0535 120.915 92.187 120.761 92.298 120.59C92.4117 120.421 92.5064 120.236 92.602 120.051C92.6958 119.867 92.7941 119.684 92.9096 119.517C93.0233 119.348 93.1577 119.194 93.284 119.036L94.0508 118.088L95.5844 116.194L98.6561 112.409C100.704 109.886 102.763 107.37 104.819 104.854L117.17 89.7639L123.336 82.2114L129.489 74.6472L154.086 44.3812L129.596 74.7329L123.476 82.3232L117.37 89.9245L105.177 105.143C103.144 107.678 101.112 110.215 99.0693 112.743L96.0048 116.534L94.4712 118.429L93.7044 119.376C93.5754 119.533 93.4536 119.695 93.312 119.842C93.1712 119.99 93.0134 120.124 92.8519 120.254C92.6913 120.385 92.5307 120.516 92.3891 120.662C92.2448 120.807 92.1221 120.969 91.9931 121.126L91.2245 122.072L89.6882 123.965L86.6156 127.749L80.4794 135.326L68.2197 150.491C64.1304 155.543 60.0393 160.594 55.9121 165.616Z" fill="url(#paint12_linear_1224_16874)"/>
<path d="M52.8068 162.965C57.1207 158.102 61.4698 153.272 65.8207 148.442L78.8797 133.961L85.4038 126.715L88.6613 123.087L90.2896 121.274L91.1042 120.368C91.2386 120.215 91.3803 120.07 91.5002 119.904C91.6229 119.741 91.7267 119.561 91.8313 119.382C91.9351 119.203 92.0424 119.026 92.166 118.864C92.2887 118.7 92.4312 118.555 92.5656 118.403L93.3812 117.497L95.0122 115.686L98.2778 112.066C100.455 109.653 102.642 107.25 104.828 104.845L117.952 90.4219L124.505 83.2023L131.044 75.9709L157.191 47.0338L131.146 76.062L124.638 83.3214L118.142 90.5933L105.17 105.153C103.007 107.578 100.844 110.004 98.6721 112.422L95.4136 116.047L93.7826 117.859L92.9671 118.765C92.83 118.914 92.7001 119.07 92.5512 119.209C92.4033 119.349 92.2382 119.474 92.0704 119.596C91.9035 119.719 91.7357 119.842 91.5869 119.981C91.4344 120.117 91.3045 120.273 91.1674 120.423L90.351 121.327L88.7172 123.137L85.4507 126.755L78.9266 134.001L65.8892 148.503C61.5401 153.335 57.191 158.165 52.8068 162.965Z" fill="url(#paint13_linear_1224_16874)"/>
<path d="M49.8448 160.153C54.4077 155.523 59.0031 150.927 63.6012 146.332L77.3999 132.554L84.2939 125.659L87.7364 122.207L89.4576 120.482L90.3182 119.618C90.4607 119.473 90.6096 119.335 90.7377 119.176C90.8685 119.02 90.9822 118.846 91.0958 118.673C91.2086 118.499 91.325 118.328 91.4576 118.172C91.5884 118.016 91.7381 117.878 91.8807 117.733L92.7422 116.871L94.4661 115.147L97.9167 111.704C100.217 109.408 102.527 107.122 104.836 104.835L118.697 91.1187L125.619 84.2518L132.528 77.3723L160.154 49.8434L132.625 77.4688L125.745 84.3781L118.878 91.3L105.162 105.161C102.874 107.47 100.588 109.78 98.2929 112.08L94.8495 115.531L93.1256 117.255L92.2641 118.116C92.1188 118.259 91.9817 118.408 91.8247 118.539C91.6696 118.671 91.4991 118.787 91.3241 118.901C91.1509 119.015 90.9768 119.128 90.8207 119.259C90.6619 119.387 90.5239 119.536 90.3786 119.679L89.5153 120.539L87.7896 122.261L84.3381 125.703L77.4432 132.597L63.6661 146.397C59.0708 150.994 54.4745 155.59 49.8448 160.153Z" fill="url(#paint14_linear_1224_16874)"/>
<path d="M47.0333 157.19C51.8317 152.806 56.6625 148.456 61.4942 144.108L75.9957 131.071L83.2415 124.546L86.8599 121.28L88.6695 119.646L89.5743 118.83C89.7241 118.693 89.8801 118.563 90.0164 118.41C90.1553 118.261 90.278 118.094 90.4007 117.927C90.5224 117.759 90.6478 117.594 90.7877 117.446C90.9266 117.297 91.0836 117.167 91.2324 117.03L92.1381 116.214L93.9496 114.583L97.5752 111.325C99.9928 109.153 102.42 106.991 104.844 104.827L119.404 91.8547L126.676 85.3595L133.935 78.8507L162.963 52.8058L134.026 78.9527L126.795 85.4921L119.575 92.045L105.152 105.169C102.747 107.355 100.343 109.542 97.9306 111.719L94.3113 114.985L92.4999 116.616L91.5942 117.431C91.4417 117.566 91.2965 117.708 91.1341 117.831C90.9717 117.955 90.7958 118.062 90.6154 118.166C90.4358 118.27 90.2563 118.375 90.0939 118.497C89.9289 118.617 89.7827 118.758 89.6303 118.893L88.7236 119.707L86.9104 121.336L83.283 124.593L76.0372 131.117L61.5556 144.176C56.7265 148.527 51.8957 152.876 47.0333 157.19Z" fill="url(#paint15_linear_1224_16874)"/>
<path d="M44.3817 154.085C49.4038 149.958 54.4547 145.867 59.5075 141.778L74.6711 129.517L82.248 123.381L86.0323 120.308L87.925 118.772L88.8713 118.003C89.0283 117.874 89.1906 117.753 89.335 117.607C89.482 117.466 89.6128 117.304 89.7436 117.145C89.8744 116.983 90.0079 116.825 90.155 116.684C90.3011 116.543 90.4644 116.422 90.6214 116.292L91.5686 115.525L93.463 113.992L97.2546 110.927C99.7824 108.885 102.319 106.852 104.854 104.819L120.073 92.626L127.674 86.5205L135.264 80.4005L165.616 55.9099L135.35 80.507L127.786 86.6594L120.233 92.8253L105.143 105.176C102.627 107.233 100.112 109.292 97.5884 111.339L93.8031 114.411L91.9087 115.945L90.9615 116.712C90.8027 116.838 90.6503 116.972 90.4807 117.086C90.3129 117.201 90.1306 117.299 89.9457 117.394C89.7617 117.488 89.5767 117.583 89.4071 117.698C89.2357 117.808 89.0824 117.942 88.9236 118.068L87.9755 118.834L86.0792 120.366L82.2868 123.429L74.709 129.564L59.5643 141.847C54.5152 145.941 49.4633 150.031 44.3817 154.085Z" fill="url(#paint16_linear_1224_16874)"/>
<path d="M41.8966 150.845C47.1271 146.986 52.3855 143.166 57.6457 139.346L73.43 127.897L81.3181 122.165L85.2585 119.295L87.2288 117.86L88.2139 117.142C88.3771 117.021 88.5458 116.908 88.6974 116.771C88.8517 116.637 88.9906 116.483 89.1304 116.33C89.2693 116.175 89.411 116.025 89.5661 115.892C89.7195 115.759 89.8891 115.646 90.0524 115.525L91.0384 114.809L93.0104 113.376L96.9571 110.515C99.5886 108.607 102.228 106.71 104.866 104.812L120.702 93.4331L128.612 87.7336L136.512 82.0196L168.104 59.151L136.592 82.1306L128.716 87.8788L120.851 93.6415L105.135 105.186C102.514 107.108 99.8953 109.033 97.2675 110.946L93.3261 113.816L91.3541 115.248L90.3681 115.964C90.2021 116.083 90.0434 116.208 89.8683 116.313C89.6942 116.42 89.5075 116.507 89.318 116.592C89.1286 116.678 88.9392 116.763 88.765 116.867C88.5882 116.969 88.4286 117.095 88.2626 117.213L87.2757 117.928L85.3018 119.358L81.3542 122.219L73.4661 127.949L57.6989 139.423C52.4414 143.242 47.183 147.063 41.8966 150.845Z" fill="url(#paint17_linear_1224_16874)"/>
<path d="M39.5831 147.48C45.0084 143.9 50.4599 140.36 55.9123 136.822L72.2739 126.214L80.4507 120.903L84.5355 118.243L86.5779 116.912L87.5991 116.247C87.7687 116.135 87.9428 116.031 88.1015 115.902C88.2621 115.776 88.4092 115.629 88.5571 115.484C88.7041 115.337 88.853 115.194 89.0145 115.07C89.1751 114.944 89.3501 114.841 89.5197 114.728L90.5418 114.064L92.5859 112.736L96.677 110.085C99.405 108.317 102.139 106.562 104.874 104.805L121.283 94.2698L129.482 88.9924L137.67 83.6997L170.416 62.5162L137.745 83.8142L129.579 89.1421L121.423 94.4845L105.124 105.19C102.407 106.972 99.691 108.757 96.9666 110.53L92.8809 113.19L90.8367 114.518L89.8147 115.182C89.6432 115.291 89.4773 115.408 89.2977 115.504C89.1182 115.6 88.927 115.679 88.733 115.754C88.54 115.829 88.346 115.903 88.1665 116C87.9843 116.092 87.8183 116.209 87.6469 116.318L86.6239 116.98L84.5779 118.306L80.4859 120.955L72.3091 126.265L55.9628 136.897C50.5113 140.44 45.0599 143.98 39.5831 147.48Z" fill="url(#paint18_linear_1224_16874)"/>
<path d="M37.4493 143.999C43.0551 140.708 48.6843 137.457 54.3144 134.209L71.2092 124.471L79.653 119.596L83.8712 117.153L85.9804 115.932L87.035 115.321C87.21 115.218 87.3895 115.123 87.5546 115.003C87.7215 114.886 87.8757 114.747 88.0309 114.609C88.1852 114.471 88.3421 114.335 88.5099 114.22C88.6768 114.102 88.8572 114.009 89.0322 113.905L90.0877 113.296L92.1987 112.077L96.4233 109.644C99.2397 108.022 102.062 106.412 104.885 104.8L121.823 95.1382L130.286 90.2966L138.741 85.4396L172.55 65.999L138.809 85.5578L130.376 90.4508L121.952 95.3592L105.116 105.198C102.309 106.836 99.5031 108.476 96.6903 110.103L92.4711 112.545L90.3601 113.764L89.3047 114.374C89.1279 114.474 88.9565 114.582 88.7715 114.669C88.5875 114.756 88.3926 114.824 88.1951 114.889C87.9984 114.954 87.8008 115.019 87.6159 115.105C87.4292 115.188 87.2569 115.296 87.0801 115.396L86.0237 116.004L83.9109 117.22L79.6863 119.652L71.2425 124.527L54.3622 134.29C48.7321 137.539 43.1029 140.789 37.4493 143.999Z" fill="url(#paint19_linear_1224_16874)"/>
<path d="M35.5011 140.411C41.271 137.417 47.0626 134.467 52.8551 131.517L70.2361 122.677L78.9235 118.25L83.2644 116.031L85.4349 114.921L86.5202 114.367C86.7006 114.273 86.8846 114.187 87.056 114.076C87.2292 113.968 87.3907 113.838 87.5522 113.708C87.7137 113.577 87.877 113.451 88.0502 113.344C88.2234 113.235 88.4083 113.15 88.5878 113.057L89.674 112.504L91.8463 111.397L96.1917 109.188C99.0893 107.715 101.992 106.255 104.895 104.793L122.316 96.0311L131.021 91.6396L139.718 87.2319L174.498 69.5874L139.78 87.3536L131.103 91.7984L122.433 96.2593L105.105 105.203C102.216 106.692 99.3275 108.183 96.4335 109.661L92.0916 111.879L89.9202 112.985L88.8341 113.538C88.6519 113.629 88.4751 113.729 88.2856 113.805C88.0971 113.882 87.8986 113.94 87.6983 113.994C87.4981 114.049 87.2978 114.103 87.1093 114.179C86.918 114.252 86.7412 114.351 86.559 114.441L85.4719 114.994L83.2987 116.098L78.9523 118.305L70.265 122.731L52.8966 131.597C47.105 134.55 41.3134 137.501 35.5011 140.411Z" fill="url(#paint20_linear_1224_16874)"/>
<path d="M33.7423 136.724C39.6611 134.037 45.5988 131.393 51.5374 128.751L69.3578 120.833L78.2644 116.868L82.7154 114.879L84.9409 113.885L86.0532 113.388C86.2381 113.304 86.4267 113.229 86.6035 113.126C86.7821 113.026 86.9499 112.906 87.1186 112.784C87.2864 112.662 87.4569 112.544 87.6355 112.446C87.8141 112.347 88.0027 112.272 88.1876 112.188L89.3008 111.693L91.5272 110.702L95.9828 108.723C98.9534 107.405 101.93 106.098 104.905 104.79L122.76 96.9517L131.683 93.0212L140.599 89.0745L176.255 73.2739L140.655 89.1989L131.756 93.1836L122.865 97.1845L105.092 105.209C102.13 106.545 99.1672 107.882 96.2002 109.207L91.7483 111.194L89.5218 112.186L88.4086 112.682C88.2219 112.762 88.0397 112.853 87.8475 112.919C87.6554 112.987 87.4542 113.035 87.2512 113.077C87.0482 113.121 86.8453 113.165 86.6531 113.231C86.4592 113.294 86.276 113.384 86.0902 113.465L84.9761 113.959L82.7479 114.948L78.2914 116.925L69.3839 120.891L51.5762 128.836C45.6376 131.48 39.699 134.123 33.7423 136.724Z" fill="url(#paint21_linear_1224_16874)"/>
<path d="M32.1788 132.952C38.2302 130.578 44.2987 128.248 50.3673 125.921L68.5773 118.946L77.6797 115.452L82.229 113.699L84.5033 112.822L85.6408 112.384C85.8294 112.309 86.0224 112.244 86.2037 112.151C86.3869 112.062 86.561 111.949 86.736 111.837C86.9101 111.724 87.086 111.615 87.27 111.527C87.4532 111.437 87.6462 111.372 87.8348 111.297L88.9723 110.861L91.2484 109.988L95.8013 108.245C98.837 107.083 101.877 105.934 104.916 104.784L123.158 97.8911L132.274 94.4333L141.383 90.9593L177.818 77.0469L141.433 91.0874L132.338 94.6011L123.249 98.1311L105.08 105.214C102.052 106.394 99.0237 107.574 95.9908 108.742L91.4414 110.494L89.1663 111.367L88.0287 111.804C87.8384 111.875 87.6516 111.955 87.4559 112.011C87.2601 112.069 87.0572 112.106 86.8515 112.138C86.6467 112.172 86.4419 112.205 86.2461 112.261C86.0486 112.313 85.8618 112.394 85.6715 112.465L84.533 112.901L82.2561 113.771L77.7022 115.512L68.5999 119.006L50.4006 126.008C44.333 128.337 38.2645 130.667 32.1788 132.952Z" fill="url(#paint22_linear_1224_16874)"/>
<path d="M30.8154 129.103C36.9823 127.049 43.1645 125.04 49.3467 123.033L67.8968 117.021L77.1697 114.008L81.8038 112.496L84.1214 111.74L85.2797 111.362C85.4727 111.298 85.6676 111.242 85.8543 111.159C86.042 111.079 86.2224 110.976 86.4019 110.873C86.5814 110.769 86.7628 110.67 86.9513 110.591C87.1389 110.512 87.3347 110.457 87.5277 110.392L88.687 110.016L91.0054 109.262L95.6432 107.76C98.7347 106.759 101.832 105.771 104.927 104.782L123.504 98.8529L132.789 95.8768L142.068 92.8836L179.18 80.8972L142.11 93.0144L132.844 96.0473L123.583 99.0974L105.068 105.22C101.982 106.239 98.8962 107.26 95.8064 108.266L91.1714 109.777L88.853 110.531L87.6937 110.908C87.4998 110.968 87.3094 111.04 87.111 111.086C86.9125 111.132 86.7077 111.159 86.5011 111.18C86.2946 111.203 86.0889 111.225 85.8895 111.271C85.6892 111.314 85.4989 111.383 85.3049 111.445L84.1457 111.82L81.8264 112.57L77.1877 114.071L67.9149 117.083L49.3737 123.122C43.1942 125.131 37.0121 127.139 30.8154 129.103Z" fill="url(#paint23_linear_1224_16874)"/>
<path d="M29.6573 125.186C35.9234 123.458 42.2021 121.775 48.4809 120.095L67.3206 115.062L76.7387 112.538L81.4459 111.27L83.7995 110.636L84.9759 110.319C85.1716 110.265 85.3701 110.22 85.5605 110.146C85.7517 110.077 85.9375 109.983 86.1225 109.889C86.3074 109.794 86.4941 109.705 86.6854 109.637C86.8766 109.567 87.0751 109.522 87.2709 109.468L88.4481 109.152L90.8027 108.522L95.5126 107.264C98.6528 106.426 101.797 105.601 104.94 104.775L123.802 99.8261L133.23 97.3399L142.653 94.8365L180.342 84.8086L142.689 94.9691L133.276 97.5131L123.868 100.074L105.059 105.22C101.923 106.076 98.7882 106.933 95.6506 107.777L90.9434 109.044L88.5889 109.674L87.4116 109.99C87.2149 110.041 87.021 110.101 86.8198 110.137C86.6195 110.174 86.413 110.19 86.2055 110.2C85.998 110.212 85.7914 110.224 85.5902 110.259C85.3882 110.291 85.1942 110.351 84.9975 110.402L83.8203 110.716L81.4649 111.343L76.754 112.599L67.336 115.122L48.5043 120.183C42.2265 121.868 35.9478 123.55 29.6573 125.186Z" fill="url(#paint24_linear_1224_16874)"/>
<path d="M28.7032 121.216C35.0514 119.819 41.4095 118.466 47.7676 117.117L66.8446 113.077L76.3818 111.05L81.1486 110.031L83.5319 109.521L84.7236 109.266C84.9221 109.221 85.1224 109.187 85.3163 109.123C85.5112 109.064 85.7015 108.98 85.891 108.896C86.0804 108.811 86.2717 108.732 86.4665 108.673C86.6614 108.613 86.8617 108.579 87.0601 108.535L88.2518 108.281L90.6361 107.774L95.4056 106.766C98.5855 106.094 101.768 105.434 104.95 104.774L124.045 100.819L133.59 98.83L143.132 96.8237L181.294 88.7822L143.161 96.9581L133.628 99.0059L124.099 101.071L105.046 105.225C101.871 105.915 98.6956 106.608 95.5165 107.287L90.7489 108.306L88.3646 108.813L87.1729 109.066C86.9735 109.107 86.7769 109.157 86.5748 109.182C86.3727 109.208 86.1661 109.212 85.9586 109.212C85.7511 109.213 85.5437 109.214 85.3416 109.239C85.1386 109.259 84.9411 109.309 84.7426 109.35L83.55 109.601L81.1648 110.105L76.3953 111.112L66.8582 113.139L47.7875 117.208C41.4294 118.559 35.0713 119.911 28.7032 121.216Z" fill="url(#paint25_linear_1224_16874)"/>
<path d="M27.9589 117.201C34.3711 116.137 40.7914 115.12 47.2118 114.105L66.4737 111.069L76.1038 109.544L80.9175 108.775L83.3243 108.391L84.5277 108.198C84.728 108.165 84.9301 108.141 85.1267 108.088C85.3243 108.038 85.5183 107.964 85.7122 107.891C85.9062 107.816 86.101 107.747 86.2986 107.699C86.4962 107.649 86.6982 107.626 86.8985 107.592L88.1019 107.402L90.5097 107.02L95.3251 106.263C98.5358 105.757 101.748 105.266 104.961 104.772L124.236 101.822L133.872 100.336L143.506 98.8309L182.036 92.7976L143.527 98.9663L133.9 100.512L124.277 102.076L105.033 105.227C101.825 105.75 98.6179 106.275 95.4081 106.788L90.5936 107.555L88.1858 107.937L86.9824 108.127C86.7812 108.157 86.5818 108.197 86.3789 108.211C86.1759 108.226 85.9693 108.22 85.7618 108.209C85.5543 108.199 85.3478 108.189 85.1439 108.203C84.94 108.213 84.7406 108.253 84.5395 108.282L83.3351 108.472L80.9274 108.85L76.111 109.606L66.4809 111.13L47.2235 114.195C40.8068 115.214 34.3864 116.23 27.9589 117.201Z" fill="url(#paint26_linear_1224_16874)"/>
<path d="M27.4257 113.152C33.8848 112.426 40.3493 111.746 46.8139 111.068L66.2085 109.045L75.9053 108.025L80.7532 107.509L83.1772 107.251L84.3888 107.122C84.5908 107.099 84.7938 107.085 84.9932 107.043C85.1934 107.004 85.391 106.94 85.5886 106.877C85.7861 106.813 85.9837 106.753 86.184 106.715C86.3842 106.677 86.5872 106.664 86.7884 106.64L88.0008 106.513L90.4248 106.259L95.2737 105.754C98.5059 105.417 101.74 105.094 104.974 104.77L124.378 102.834L134.078 101.853L143.777 100.854L182.57 96.8462L143.791 100.991L134.097 102.032L124.405 103.089L105.022 105.229C101.791 105.583 98.561 105.94 95.3287 106.283L90.4807 106.797L88.0568 107.052L86.8443 107.179C86.6422 107.198 86.4411 107.228 86.2372 107.231C86.0333 107.236 85.8276 107.22 85.621 107.197C85.4145 107.176 85.2079 107.156 85.004 107.159C84.8001 107.159 84.599 107.188 84.396 107.207L83.1835 107.332L80.7586 107.584L75.9098 108.087L66.213 109.106L46.8211 111.159C40.3593 111.84 33.8956 112.52 27.4257 113.152Z" fill="url(#paint27_linear_1224_16874)"/>
<path d="M27.1058 109.081C33.5947 108.694 40.0855 108.353 46.5771 108.014L66.051 107.008L75.7875 106.498L80.6553 106.236L83.0892 106.105L84.3062 106.04C84.5092 106.028 84.7121 106.025 84.9142 105.993C85.1163 105.964 85.3166 105.911 85.5177 105.858C85.718 105.804 85.9192 105.755 86.1213 105.728C86.3233 105.699 86.5263 105.698 86.7293 105.685L87.9462 105.621L90.3801 105.494L95.2488 105.243C98.4947 105.076 101.741 104.924 104.987 104.768L124.466 103.849L134.204 103.377L143.941 102.888L182.891 100.916L143.949 103.025L134.213 103.556L124.478 104.105L105.011 105.228C101.766 105.413 98.5208 105.6 95.2759 105.773L90.4081 106.033L87.9742 106.16L86.7572 106.224C86.5543 106.233 86.3522 106.252 86.1483 106.245C85.9444 106.24 85.7397 106.212 85.5349 106.179C85.3301 106.148 85.1244 106.116 84.9205 106.109C84.7167 106.098 84.5137 106.116 84.3116 106.125L83.0947 106.187L80.6608 106.312L75.792 106.561L66.0555 107.071L46.5834 108.105C40.0909 108.448 33.5993 108.787 27.1058 109.081Z" fill="url(#paint28_linear_1224_16874)"/>
<path d="M26.9991 104.999C33.4989 104.952 39.9995 104.951 46.4992 104.953L65.9993 104.967H75.7494L80.6244 104.961L83.0619 104.957L84.2807 104.955C84.4837 104.954 84.6866 104.962 84.8905 104.939C85.0935 104.921 85.2965 104.879 85.5004 104.836C85.7033 104.793 85.9063 104.754 86.1093 104.738C86.3123 104.72 86.5152 104.729 86.7182 104.726H87.937H90.3745L95.2495 104.731C98.4998 104.734 101.749 104.752 105 104.767L124.5 104.869L134.25 104.908L144 104.928L183 104.997L144 105.066L134.25 105.086L124.5 105.125L105 105.227C101.749 105.242 98.4998 105.259 95.2495 105.263L90.3745 105.268H87.937H86.7182C86.5152 105.266 86.3123 105.274 86.1093 105.256C85.9063 105.24 85.7033 105.201 85.5004 105.158C85.2974 105.115 85.0944 105.073 84.8905 105.055C84.6875 105.033 84.4846 105.04 84.2807 105.038L83.0619 105.037L80.6244 105.033L75.7494 105.027H65.9993L46.4992 105.041C39.9986 105.047 33.4989 105.046 26.9991 104.999Z" fill="url(#paint29_linear_1224_16874)"/>
<path d="M27.1058 100.917C33.5993 101.21 40.0909 101.549 46.5816 101.892L66.0537 102.926L75.7902 103.436L80.6589 103.685L83.0928 103.81L84.3098 103.872C84.5128 103.881 84.7148 103.899 84.9187 103.888C85.1226 103.881 85.3274 103.849 85.5331 103.818C85.7378 103.785 85.9426 103.757 86.1465 103.752C86.3504 103.745 86.5525 103.764 86.7554 103.773L87.9724 103.837L90.4063 103.964L95.2741 104.224C98.5199 104.397 101.764 104.585 105.009 104.769L124.476 105.892L134.211 106.441L143.947 106.972L182.889 109.082L143.94 107.109L134.202 106.62L124.464 106.148L104.985 105.229C101.739 105.073 98.4928 104.921 95.247 104.754L90.3783 104.503L87.9444 104.376L86.7275 104.312C86.5245 104.299 86.3215 104.298 86.1194 104.269C85.9174 104.242 85.7162 104.193 85.5159 104.139C85.3157 104.087 85.1145 104.033 84.9124 104.004C84.7103 103.972 84.5074 103.969 84.3044 103.957L83.0874 103.892L80.6535 103.761L75.7857 103.499L66.0492 102.989L46.5753 101.983C40.0855 101.645 33.5947 101.304 27.1058 100.917Z" fill="url(#paint30_linear_1224_16874)"/>
<path d="M27.4257 96.8452C33.8947 97.4776 40.3593 98.1569 46.8238 98.838L66.2157 100.891L75.9125 101.91L80.7614 102.413L83.1862 102.665L84.3987 102.79C84.6008 102.81 84.8019 102.839 85.0067 102.838C85.2106 102.842 85.4172 102.82 85.6237 102.8C85.8303 102.778 86.036 102.761 86.2399 102.766C86.4438 102.769 86.6449 102.799 86.847 102.818L88.0595 102.945L90.4834 103.2L95.3314 103.714C98.5637 104.057 101.793 104.414 105.025 104.768L124.407 106.908L134.1 107.966L143.794 109.006L182.573 113.15L143.779 109.142L134.081 108.143L124.38 107.163L104.977 105.226C101.743 104.901 98.5086 104.578 95.2764 104.243L90.4275 103.737L88.0035 103.483L86.7911 103.356C86.589 103.332 86.386 103.32 86.1867 103.281C85.9864 103.243 85.7888 103.183 85.5913 103.119C85.3937 103.056 85.1962 102.992 84.9959 102.953C84.7965 102.911 84.5935 102.897 84.3915 102.874L83.1799 102.745L80.7559 102.487L75.908 101.971L66.2112 100.952L46.8166 98.9282C40.3493 98.2516 33.8857 97.5714 27.4257 96.8452Z" fill="url(#paint31_linear_1224_16874)"/>
<path d="M27.9589 92.7971C34.3864 93.7669 40.8059 94.7836 47.2262 95.8021L66.4837 98.8665L76.1137 100.391L80.9301 101.147L83.3378 101.525L84.5422 101.715C84.7433 101.744 84.9427 101.784 85.1466 101.794C85.3496 101.808 85.557 101.798 85.7645 101.788C85.972 101.777 86.1786 101.77 86.3816 101.786C86.5855 101.8 86.7839 101.84 86.9851 101.87L88.1885 102.06L90.5963 102.442L95.4108 103.209C98.6206 103.721 101.828 104.247 105.035 104.77L124.279 107.921L133.903 109.484L143.53 111.031L182.039 117.199L143.509 111.166L133.875 109.661L124.239 108.175L104.963 105.225C101.751 104.731 98.5385 104.24 95.3279 103.734L90.5124 102.977L88.1046 102.595L86.9012 102.405C86.7009 102.37 86.4989 102.348 86.3013 102.298C86.1028 102.25 85.9089 102.18 85.7149 102.106C85.521 102.033 85.327 101.959 85.1294 101.909C84.9319 101.856 84.7307 101.832 84.5304 101.798L83.327 101.606L80.9202 101.222L76.1065 100.453L66.4764 98.9279L47.2145 95.8923C40.7914 94.8783 34.3711 93.8607 27.9589 92.7971Z" fill="url(#paint32_linear_1224_16874)"/>
<path d="M28.7032 88.7812C35.0713 90.0866 41.4294 91.4371 47.7866 92.7911L66.8573 96.8597L76.3944 98.8867L81.1639 99.8944L83.5491 100.398L84.7417 100.649C84.9411 100.69 85.1377 100.74 85.3407 100.76C85.5428 100.785 85.7502 100.786 85.9577 100.787C86.1652 100.787 86.3718 100.791 86.5739 100.817C86.776 100.842 86.9735 100.892 87.172 100.933L88.3637 101.186L90.748 101.693L95.5156 102.712C98.6938 103.391 101.869 104.083 105.046 104.774L124.098 108.928L133.627 110.993L143.16 113.041L181.293 121.217L143.131 113.175L133.589 111.169L124.044 109.18L104.949 105.225C101.767 104.564 98.5846 103.905 95.4047 103.233L90.6352 102.225L88.2509 101.718L87.0592 101.464C86.8608 101.42 86.6605 101.386 86.4656 101.326C86.2708 101.267 86.0795 101.188 85.8901 101.103C85.6997 101.02 85.5103 100.935 85.3154 100.876C85.1215 100.813 84.9212 100.778 84.7227 100.733L83.531 100.478L81.1477 99.9684L76.3809 98.949L66.8437 96.9219L47.7667 92.8823C41.4095 91.5309 35.0514 90.1795 28.7032 88.7812Z" fill="url(#paint33_linear_1224_16874)"/>
<path d="M29.6573 84.8115C35.9478 86.448 42.2265 88.1304 48.5043 89.8147L67.336 94.8755L76.754 97.3987L81.4649 98.6545L83.8203 99.2823L84.9975 99.5963C85.1942 99.6468 85.3882 99.7072 85.5902 99.7388C85.7914 99.774 85.998 99.7857 86.2055 99.7975C86.413 99.8083 86.6186 99.8236 86.8198 99.8606C87.021 99.8958 87.2149 99.9571 87.4116 100.008L88.5889 100.323L90.9434 100.954L95.6506 102.221C98.7891 103.065 101.924 103.923 105.059 104.778L123.868 109.924L133.276 112.485L142.689 115.029L180.342 125.189L142.653 115.161L133.23 112.658L123.802 110.172L104.94 105.223C101.797 104.396 98.6528 103.572 95.5126 102.734L90.8027 101.476L88.4481 100.846L87.2709 100.53C87.0751 100.476 86.8766 100.431 86.6854 100.361C86.4932 100.293 86.3074 100.203 86.1225 100.109C85.9375 100.016 85.7517 99.9219 85.5605 99.8516C85.3701 99.7776 85.1716 99.7325 84.9759 99.6784L83.7995 99.3617L81.4459 98.7275L76.7387 97.4601L67.3206 94.936L48.4809 89.9031C42.2021 88.2215 35.9234 86.5391 29.6573 84.8115Z" fill="url(#paint34_linear_1224_16874)"/>
<path d="M30.8154 80.8953C37.0121 82.8592 43.1942 84.8673 49.3755 86.8772L67.9167 92.9168L77.1895 95.929L81.8282 97.4292L84.1475 98.1798L85.3067 98.5551C85.5007 98.6164 85.691 98.6859 85.8913 98.7283C86.0898 98.7743 86.2964 98.7959 86.5029 98.8194C86.7095 98.841 86.9143 98.8672 87.1128 98.9141C87.3112 98.9601 87.5025 99.0305 87.6955 99.0918L88.8548 99.4689L91.1732 100.222L95.8083 101.733C98.898 102.741 101.984 103.761 105.07 104.78L123.584 110.902L132.845 113.952L142.112 116.985L179.182 129.102L142.07 117.116L132.79 114.123L123.506 111.147L104.929 105.218C101.833 104.228 98.7365 103.24 95.645 102.239L91.0072 100.737L88.6888 99.984L87.5295 99.6078C87.3374 99.5429 87.1416 99.4887 86.9531 99.4085C86.7646 99.33 86.5841 99.2307 86.4037 99.127C86.2233 99.0241 86.0438 98.9204 85.8561 98.841C85.6694 98.758 85.4745 98.7021 85.2815 98.638L84.1232 98.2601L81.8056 97.5041L77.1715 95.9912L67.8986 92.9782L49.3485 86.9665C43.1645 84.9584 36.9832 82.9494 30.8154 80.8953Z" fill="url(#paint35_linear_1224_16874)"/>
<path d="M32.1788 77.0457C38.2645 79.3307 44.3321 81.66 50.3997 83.991L68.599 90.9932L77.7013 94.4871L82.2552 96.2282L84.5321 97.0987L85.6706 97.5345C85.8609 97.6057 86.0477 97.6851 86.2452 97.7383C86.441 97.7943 86.6458 97.8277 86.8506 97.861C87.0553 97.8935 87.2592 97.9305 87.455 97.9882C87.6507 98.0442 87.8375 98.1254 88.0278 98.1957L89.1654 98.6323L91.4405 99.5056L95.9899 101.257C99.0228 102.426 102.051 103.606 105.08 104.785L123.248 111.868L132.337 115.398L141.432 118.912L177.817 132.952L141.382 119.04L132.273 115.566L123.157 112.108L104.915 105.215C101.876 104.065 98.8352 102.916 95.8004 101.755L91.2475 100.012L88.9714 99.1384L87.8339 98.7018C87.6453 98.6269 87.4523 98.562 87.2691 98.4727C87.0851 98.3843 86.9092 98.276 86.7351 98.1623C86.561 98.0505 86.386 97.9377 86.2029 97.8484C86.0206 97.7555 85.8285 97.6896 85.6399 97.6157L84.5024 97.1772L82.2281 96.3004L77.6788 94.5476L68.5764 91.0528L50.3664 84.0785C44.2987 81.7493 38.2302 79.4191 32.1788 77.0457Z" fill="url(#paint36_linear_1224_16874)"/>
<path d="M33.7423 73.2734C39.6999 75.8742 45.6376 78.5174 51.5753 81.1633L69.383 89.1082L78.2905 93.0739L82.747 95.0514L84.9752 96.0401L86.0893 96.5345C86.276 96.6156 86.4583 96.705 86.6522 96.7681C86.8453 96.8349 87.0482 96.8782 87.2503 96.9224C87.4533 96.9657 87.6545 97.0126 87.8466 97.0802C88.0397 97.1461 88.2219 97.2372 88.4077 97.3175L89.5209 97.8136L91.7473 98.8051L96.1993 100.792C99.1672 102.118 102.129 103.455 105.091 104.791L122.864 112.815L131.755 116.816L140.654 120.8L176.254 136.725L140.598 120.925L131.682 116.978L122.759 113.048L104.904 105.209C101.929 103.901 98.9525 102.595 95.9819 101.276L91.5263 99.2976L89.2999 98.3062L88.1867 97.8109C88.0018 97.7261 87.8132 97.6513 87.6346 97.5529C87.456 97.4555 87.2855 97.3373 87.1177 97.2155C86.949 97.0947 86.7812 96.9729 86.6026 96.8736C86.4258 96.7708 86.2372 96.6959 86.0523 96.6111L84.94 96.1141L82.7145 95.1199L78.2635 93.1317L69.3569 89.166L51.5374 81.2463C45.5988 78.6049 39.6611 75.9608 33.7423 73.2734Z" fill="url(#paint37_linear_1224_16874)"/>
<path d="M35.5011 69.5874C41.3143 72.4958 47.1059 75.4466 52.8966 78.3993L70.265 87.2652L78.9523 91.691L83.2987 93.8985L85.4719 95.0027L86.559 95.5548C86.7412 95.645 86.918 95.7442 87.1093 95.8173C87.2987 95.8939 87.499 95.9481 87.6983 96.0022C87.8986 96.0563 88.0971 96.1141 88.2856 96.1917C88.4751 96.2683 88.6519 96.3676 88.8341 96.4578L89.9202 97.0108L92.0916 98.1177L96.4335 100.335C99.3275 101.814 102.216 103.304 105.105 104.793L122.433 113.737L131.103 118.198L139.78 122.643L174.498 140.409L139.718 122.764L131.021 118.357L122.316 113.965L104.895 105.203C101.992 103.741 99.0893 102.281 96.1917 100.809L91.8463 98.5994L89.674 97.4925L88.5878 96.9395C88.4074 96.8457 88.2234 96.7609 88.0502 96.6526C87.877 96.5462 87.7128 96.419 87.5522 96.2882C87.3907 96.1583 87.2283 96.0284 87.056 95.9201C86.8846 95.8083 86.7006 95.7235 86.5202 95.6296L85.434 95.0757L83.2635 93.9661L78.9226 91.7469L70.2352 87.3203L52.8542 78.4804C47.0617 75.5323 41.271 72.5806 35.5011 69.5874Z" fill="url(#paint38_linear_1224_16874)"/>
<path d="M37.4493 65.9985C43.102 69.2074 48.7312 72.4577 54.3595 75.7089L71.2398 85.4716L79.6836 90.3466L83.9082 92.7787L86.021 93.9948L87.0774 94.6028C87.2542 94.7029 87.4265 94.8112 87.6132 94.8942C87.7981 94.9799 87.9957 95.0448 88.1924 95.1098C88.3899 95.1738 88.5848 95.2424 88.7688 95.3299C88.9538 95.4156 89.1252 95.5247 89.302 95.6249L90.3574 96.2347L92.4684 97.4535L96.6876 99.8955C99.5004 101.524 102.307 103.163 105.113 104.801L121.949 114.64L130.373 119.548L138.806 124.441L172.547 144.001L138.738 124.56L130.283 119.703L121.82 114.862L104.882 105.2C102.061 103.588 99.237 101.978 96.4206 100.356L92.1959 97.9226L90.085 96.7038L89.0295 96.0949C88.8545 95.9911 88.6741 95.8973 88.5072 95.78C88.3394 95.6646 88.1824 95.5292 88.0282 95.3903C87.873 95.2523 87.7188 95.1134 87.5519 94.997C87.3868 94.877 87.2073 94.7814 87.0322 94.6785L85.9777 94.0678L83.8685 92.8464L79.6502 90.4034L71.2065 85.5284L54.3144 75.7883C48.6843 72.5398 43.0551 69.2894 37.4493 65.9985Z" fill="url(#paint39_linear_1224_16874)"/>
<path d="M39.5831 62.5172C45.0599 66.0174 50.5113 69.5573 55.9619 73.099L72.3082 83.7313L80.485 89.0412L84.577 91.6907L86.623 93.0159L87.646 93.678C87.8174 93.7872 87.9834 93.9045 88.1656 93.9965C88.346 94.0921 88.5391 94.167 88.7321 94.2428C88.9261 94.3167 89.1173 94.3952 89.2968 94.4926C89.4773 94.5883 89.6423 94.7064 89.8138 94.8147L90.8358 95.4787L92.88 96.8066L96.9657 99.466C99.6892 101.239 102.405 103.023 105.124 104.807L121.422 115.512L129.578 120.854L137.744 126.182L170.415 147.48L137.669 126.297L129.481 121.004L121.282 115.727L104.873 105.192C102.138 103.434 99.4041 101.679 96.6761 99.9116L92.585 97.2603L90.5409 95.9324L89.5188 95.2685C89.3492 95.1557 89.1742 95.0529 89.0136 94.9266C88.8521 94.8021 88.7023 94.6595 88.5562 94.5125C88.4092 94.3664 88.2612 94.2202 88.1006 94.0948C87.9419 93.9658 87.7678 93.8621 87.5982 93.7493L86.577 93.0844L84.5346 91.7538L80.4498 89.0935L72.273 83.7827L55.9123 73.1757C50.4599 69.6367 45.0084 66.0968 39.5831 62.5172Z" fill="url(#paint40_linear_1224_16874)"/>
<path d="M41.8966 59.151C47.183 62.9336 52.4414 66.754 57.6989 70.5754L73.4661 82.0494L81.3542 87.7796L85.3018 90.6402L87.2757 92.07L88.2626 92.7854C88.4277 92.9036 88.5873 93.029 88.765 93.1309C88.9401 93.2356 89.1295 93.3204 89.318 93.4061C89.5075 93.4909 89.6951 93.5784 89.8683 93.6848C90.0433 93.7895 90.2021 93.9158 90.3681 94.034L91.3541 94.7502L93.3261 96.1828L97.2675 99.0524C99.8944 100.966 102.514 102.89 105.135 104.812L120.851 116.357L128.716 122.119L136.592 127.868L168.103 150.846L136.511 127.979L128.611 122.265L120.701 116.565L104.864 105.184C102.226 103.286 99.5868 101.39 96.9553 99.4818L93.0086 96.6203L91.0366 95.1878L90.0506 94.4715C89.8873 94.3506 89.7177 94.2378 89.5643 94.1043C89.4101 93.9717 89.2675 93.8211 89.1286 93.6668C88.9888 93.5134 88.8498 93.3592 88.6956 93.2257C88.544 93.0885 88.3753 92.9758 88.2121 92.8549L87.2278 92.1368L85.2576 90.7015L81.3172 87.831L73.4291 82.0999L57.6448 70.6503C52.3855 66.8307 47.1271 63.0102 41.8966 59.151Z" fill="url(#paint41_linear_1224_16874)"/>
<path d="M44.3817 55.9121C49.4633 59.9662 54.5143 64.0564 59.5652 68.1484L74.7099 80.4316L82.2877 86.5668L86.0801 89.6295L87.9764 91.1613L88.9245 91.9272C89.0833 92.0535 89.2366 92.187 89.408 92.298C89.5767 92.4117 89.7617 92.5064 89.9466 92.602C90.1315 92.6958 90.3138 92.7941 90.4816 92.9096C90.6503 93.0233 90.8036 93.1577 90.9624 93.284L91.9096 94.0508L93.804 95.5844L97.5893 98.6561C100.113 100.704 102.628 102.763 105.144 104.819L120.234 117.17L127.787 123.336L135.351 129.489L165.617 154.086L135.265 129.595L127.675 123.475L120.074 117.37L104.855 105.177C102.32 103.143 99.7833 101.111 97.2555 99.0683L93.4639 96.0039L91.5695 94.4703L90.6223 93.7035C90.4653 93.5745 90.3029 93.4527 90.1559 93.3111C90.0079 93.1703 89.8744 93.0125 89.7445 92.851C89.6128 92.6904 89.482 92.5298 89.3359 92.3882C89.1915 92.2439 89.0291 92.1212 88.8722 91.9922L87.9259 91.2236L86.0332 89.6873L82.2489 86.6147L74.672 80.4785L59.5075 68.2197C54.4547 64.1304 49.4038 60.0393 44.3817 55.9121Z" fill="url(#paint42_linear_1224_16874)"/>
<path d="M47.0333 52.8068C51.8957 57.1207 56.7256 61.4698 61.5556 65.8207L76.0372 78.8797L83.283 85.4038L86.9104 88.6613L88.7236 90.2896L89.6303 91.1042C89.7827 91.2386 89.928 91.3803 90.0939 91.5002C90.2572 91.6229 90.4367 91.7267 90.6154 91.8313C90.7949 91.9351 90.9717 92.0424 91.1341 92.166C91.2974 92.2887 91.4426 92.4312 91.5942 92.5656L92.4999 93.3812L94.3113 95.0122L97.9306 98.2778C100.344 100.455 102.747 102.642 105.152 104.828L119.575 117.952L126.795 124.505L134.026 131.044L162.963 157.191L133.935 131.146L126.676 124.638L119.404 118.142L104.844 105.17C102.419 103.007 99.9928 100.844 97.5752 98.6721L93.9496 95.4136L92.1381 93.7826L91.2324 92.9671C91.0827 92.83 90.9266 92.7001 90.7877 92.5512C90.6478 92.4033 90.5224 92.2382 90.4007 92.0704C90.278 91.9035 90.1553 91.7357 90.0164 91.5869C89.8801 91.4344 89.7241 91.3045 89.5743 91.1674L88.6695 90.351L86.8599 88.7172L83.2415 85.4507L75.9957 78.9266L61.4942 65.8883C56.6625 61.5401 51.8326 57.191 47.0333 52.8068Z" fill="url(#paint43_linear_1224_16874)"/>
<path d="M49.8448 49.8444C54.4745 54.4073 59.0708 59.0026 63.6661 63.6007L77.4441 77.3994L84.339 84.2934L87.7905 87.7359L89.5162 89.4571L90.3795 90.3177C90.5248 90.4603 90.6628 90.6091 90.8216 90.7372C90.9777 90.868 91.1518 90.9817 91.325 91.0953C91.4991 91.2081 91.6696 91.3245 91.8256 91.4571C91.9817 91.5879 92.1197 91.7376 92.265 91.8802L93.1265 92.7417L94.8504 94.4656L98.2938 97.9162C100.59 100.217 102.876 102.527 105.162 104.835L118.879 118.696L125.746 125.618L132.626 132.528L160.154 160.153L132.529 132.624L125.62 125.745L118.698 118.878L104.837 105.161C102.528 102.873 100.218 100.587 97.9176 98.2924L94.467 94.849L92.7431 93.1251L91.8816 92.2636C91.739 92.1183 91.5902 91.9812 91.4585 91.8243C91.3268 91.6691 91.2104 91.4986 91.0967 91.3236C90.9831 91.1504 90.8694 90.9763 90.7386 90.8202C90.6105 90.6614 90.4616 90.5234 90.3191 90.3782L89.4585 89.5148L87.7373 87.7891L84.2948 84.3376L77.4008 77.4427L63.6012 63.6657C59.004 59.0703 54.4077 54.474 49.8448 49.8444Z" fill="url(#paint44_linear_1224_16874)"/>
<path d="M52.8068 47.0338C57.191 51.8322 61.541 56.663 65.8892 61.4947L78.9266 75.9962L85.4507 83.242L88.7172 86.8604L90.351 88.67L91.1674 89.5748C91.3045 89.7246 91.4344 89.8806 91.5869 90.0168C91.7357 90.1558 91.9035 90.2785 92.0704 90.4012C92.2382 90.5229 92.4033 90.6483 92.5512 90.7882C92.7001 90.9271 92.83 91.0841 92.9671 91.2329L93.7826 92.1386L95.4136 93.9501L98.6721 97.5757C100.844 99.9933 103.006 102.42 105.17 104.845L118.142 119.404L124.638 126.676L131.146 133.935L157.191 162.964L131.044 134.026L124.505 126.795L117.952 119.576L104.827 105.153C102.641 102.748 100.454 100.344 98.2769 97.932L95.0113 94.3127L93.3803 92.5013L92.5647 91.5956C92.4303 91.4431 92.2878 91.2979 92.1651 91.1355C92.0415 90.9731 91.9342 90.7972 91.8304 90.6168C91.7258 90.4372 91.6211 90.2577 91.4993 90.0953C91.3794 89.9302 91.2377 89.7841 91.1033 89.6317L90.2887 88.725L88.6604 86.9118L85.4029 83.2844L78.8788 76.0386L65.8207 61.556C61.4698 56.727 57.1207 51.8962 52.8068 47.0338Z" fill="url(#paint45_linear_1224_16874)"/>
<path d="M55.9121 44.3812C60.0393 49.4033 64.1304 54.4542 68.2197 59.507L80.4794 74.6706L86.6156 82.2475L89.6882 86.0318L91.2245 87.9245L91.9931 88.8708C92.1221 89.0278 92.2439 89.1901 92.3891 89.3345C92.5307 89.4815 92.6922 89.6123 92.8519 89.7431C93.0134 89.874 93.1712 90.0075 93.312 90.1545C93.4536 90.3006 93.5745 90.4639 93.7044 90.6209L94.4712 91.5681L96.0048 93.4626L99.0693 97.2541C101.112 99.7819 103.144 102.319 105.177 104.854L117.37 120.072L123.476 127.673L129.596 135.264L154.087 165.615L129.489 135.35L123.337 127.785L117.171 120.233L104.82 105.142C102.763 102.626 100.705 100.111 98.657 97.5879L95.5853 93.8027L94.0517 91.9082L93.2849 90.961C93.1586 90.8022 93.0242 90.6498 92.9105 90.4802C92.7951 90.3124 92.6976 90.1301 92.6029 89.9452C92.5082 89.7612 92.4135 89.5762 92.2989 89.4067C92.1879 89.2352 92.0544 89.0819 91.9281 88.9231L91.1622 87.975L89.6304 86.0788L86.5678 82.2863L80.4325 74.7085L68.1484 59.5647C64.0564 54.5147 59.9653 49.4628 55.9121 44.3812Z" fill="url(#paint46_linear_1224_16874)"/>
<path d="M59.1516 41.8958C63.0109 47.1262 66.8313 52.3846 70.6509 57.6449L82.1005 73.4292L87.8316 81.3172L90.7022 85.2577L92.1374 87.227L92.8555 88.2121C92.9764 88.3754 93.0891 88.5441 93.2263 88.6956C93.3598 88.8499 93.514 88.9888 93.6674 89.1287C93.8217 89.2676 93.9723 89.4092 94.1049 89.5644C94.2384 89.7186 94.3512 89.8873 94.4721 90.0506L95.1884 91.0366L96.6209 93.0086L99.4824 96.9554C101.39 99.5869 103.287 102.226 105.185 104.864L116.564 120.7L122.264 128.611L127.978 136.51L150.845 168.102L127.867 136.591L122.118 128.715L116.356 120.85L104.813 105.134C102.891 102.513 100.966 99.8945 99.053 97.2666L96.1834 93.3253L94.7508 91.3533L94.0346 90.3673C93.9173 90.2013 93.791 90.0425 93.6854 89.8675C93.579 89.6934 93.4915 89.5066 93.4067 89.3172C93.321 89.1277 93.2362 88.9383 93.1315 88.7642C93.0296 88.5874 92.9042 88.4277 92.786 88.2617L92.0707 87.2748L90.6408 85.301L87.7802 81.3533L82.05 73.4652L70.576 57.6981C66.7546 52.4406 62.9342 47.1821 59.1516 41.8958Z" fill="url(#paint47_linear_1224_16874)"/>
<path d="M62.5177 39.5826C66.0973 45.008 69.6381 50.4594 73.1762 55.9118L83.7841 72.2735L89.0949 80.4502L91.7552 84.535L93.0858 86.5774L93.7507 87.5986C93.8626 87.7682 93.9672 87.9423 94.0962 88.101C94.2216 88.2616 94.3686 88.4087 94.5139 88.5566C94.6609 88.7037 94.8035 88.8525 94.928 89.014C95.0533 89.1746 95.1571 89.3496 95.2699 89.5192L95.9338 90.5413L97.2617 92.5855L99.913 96.6765C101.68 99.4045 103.436 102.139 105.193 104.873L115.728 121.283L121.005 129.481L126.298 137.67L147.482 170.415L126.184 137.744L120.856 129.578L115.513 121.422L104.808 105.124C103.025 102.407 101.241 99.6905 99.4674 96.9661L96.808 92.8804L95.48 90.8363L94.8161 89.8142C94.7069 89.6428 94.5897 89.4768 94.494 89.2973C94.3975 89.1177 94.319 88.9265 94.2442 88.7325C94.1684 88.5395 94.0944 88.3455 93.9979 88.166C93.9059 87.9838 93.7886 87.8178 93.6794 87.6464L93.0173 86.6234L91.6921 84.5774L89.0426 80.4854L83.7327 72.3086L73.1004 55.9623C69.5578 50.5109 66.0179 45.0594 62.5177 39.5826Z" fill="url(#paint48_linear_1224_16874)"/>
<path d="M65.9982 37.4484C69.2891 43.0541 72.5394 48.6833 75.7879 54.3125L85.5253 71.2073L90.4004 79.6511L92.8433 83.8694L94.0647 85.9785L94.6755 87.0331C94.7783 87.2081 94.8739 87.3876 94.9939 87.5527C95.1112 87.7196 95.2492 87.8738 95.3872 88.029C95.5262 88.1833 95.6615 88.3402 95.777 88.508C95.8942 88.6749 95.9881 88.8553 96.0918 89.0303L96.7007 90.0858L97.9195 92.1968L100.352 96.4214C101.974 99.2378 103.585 102.06 105.197 104.883L114.858 121.821L119.7 130.284L124.557 138.739L143.998 172.548L124.438 138.807L119.545 130.374L114.637 121.95L104.798 105.114C103.16 102.307 101.52 99.5012 99.8924 96.6884L97.4504 92.4692L96.2316 90.3583L95.6218 89.3028C95.5217 89.126 95.4134 88.9546 95.3268 88.7696C95.2393 88.5856 95.1716 88.3908 95.1067 88.1932C95.0417 87.9965 94.9768 87.799 94.8911 87.614C94.8081 87.4273 94.6998 87.255 94.5997 87.0782L93.9917 86.0218L92.7756 83.909L90.3435 79.6844L85.4685 71.2407L75.7085 54.3594C72.4573 48.7311 69.2079 43.1019 65.9982 37.4484Z" fill="url(#paint49_linear_1224_16874)"/>
<path d="M69.587 35.5011C72.5803 41.271 75.5311 47.0626 78.481 52.8551L87.3208 70.2361L91.7475 78.9235L93.9667 83.2644L95.0763 85.4349L95.6311 86.5202C95.7249 86.7006 95.8106 86.8846 95.9216 87.056C96.0298 87.2292 96.1597 87.3907 96.2896 87.5522C96.4204 87.7137 96.5467 87.877 96.6541 88.0502C96.7623 88.2234 96.8471 88.4083 96.9409 88.5878L97.4939 89.674L98.6008 91.8463L100.81 96.1917C102.282 99.0893 103.743 101.992 105.204 104.895L113.967 122.316L118.358 131.021L122.766 139.718L140.41 174.498L122.644 139.78L118.199 131.103L113.738 122.433L104.795 105.105C103.305 102.216 101.815 99.3275 100.337 96.4335L98.1191 92.0916L97.0122 89.9202L96.4592 88.8341C96.369 88.6519 96.2689 88.4751 96.1931 88.2856C96.1155 88.0971 96.0578 87.8986 96.0036 87.6983C95.9486 87.4981 95.8945 87.2978 95.8187 87.1093C95.7456 86.918 95.6464 86.7412 95.5562 86.559L95.0041 85.4719L93.8999 83.2987L91.6924 78.9523L87.2667 70.265L78.4007 52.8966C75.4472 47.105 72.4964 41.3134 69.587 35.5011Z" fill="url(#paint50_linear_1224_16874)"/>
<path d="M73.2726 33.7428C75.96 39.6616 78.6041 45.5993 81.2455 51.5379L89.1633 69.3583L93.129 78.2648L95.1173 82.7159L96.1114 84.9414L96.6085 86.0537C96.6924 86.2386 96.7681 86.4272 96.871 86.604C96.9702 86.7826 97.0911 86.9504 97.2129 87.1191C97.3347 87.2869 97.4529 87.4574 97.5503 87.636C97.6495 87.8146 97.7244 88.0032 97.8083 88.1881L98.3035 89.3013L99.295 91.5277L101.273 95.9833C102.592 98.9539 103.898 101.93 105.207 104.905L113.045 122.761L116.976 131.684L120.922 140.599L136.723 176.255L120.798 140.655L116.813 131.757L112.812 122.865L104.788 105.093C103.452 102.13 102.115 99.1677 100.79 96.2007L98.8024 91.7487L97.811 89.5223L97.3148 88.4091C97.2345 88.2224 97.1434 88.0411 97.0776 87.848C97.0099 87.6559 96.9621 87.4547 96.9197 87.2517C96.8755 87.0487 96.8322 86.8458 96.7654 86.6536C96.7023 86.4597 96.613 86.2765 96.5318 86.0907L96.0374 84.9766L95.0487 82.7484L93.0713 78.2919L89.1056 69.3844L81.1607 51.5767C78.5166 45.6381 75.8734 39.6995 73.2726 33.7428Z" fill="url(#paint51_linear_1224_16874)"/>
<path d="M77.046 32.1788C79.4195 38.2302 81.7496 44.2978 84.0771 50.3673L91.0513 68.5773L94.5461 77.6797L96.2989 82.229L97.1758 84.5033L97.6142 85.6408C97.6891 85.8294 97.754 86.0224 97.847 86.2037C97.9363 86.3869 98.049 86.561 98.1609 86.736C98.2737 86.9101 98.3828 87.086 98.4712 87.27C98.5605 87.4532 98.6255 87.6462 98.7004 87.8348L99.137 88.9723L100.01 91.2484L101.753 95.8013C102.915 98.837 104.063 101.877 105.214 104.916L112.107 123.158L115.564 132.274L119.039 141.383L132.951 177.818L118.91 141.433L115.397 132.338L111.867 123.249L104.783 105.08C103.604 102.052 102.424 99.0237 101.256 95.9908L99.5042 91.4414L98.6309 89.1663L98.1943 88.0287C98.123 87.8384 98.0427 87.6516 97.9868 87.4559C97.9291 87.2601 97.8921 87.0572 97.8596 86.8515C97.8262 86.6467 97.7928 86.4419 97.7369 86.2461C97.6846 86.0486 97.6043 85.8618 97.533 85.6715L97.0973 84.533L96.2268 82.2561L94.4857 77.7022L90.9918 68.5999L83.9896 50.4006C81.6603 44.333 79.3311 38.2645 77.046 32.1788Z" fill="url(#paint52_linear_1224_16874)"/>
<path d="M80.8958 30.8159C82.949 36.9828 84.958 43.165 86.9652 49.3471L92.9769 67.8973L95.9899 77.1702L97.5028 81.8043L98.2587 84.1218L98.6367 85.2802C98.7008 85.4732 98.7567 85.6681 98.8397 85.8548C98.9191 86.0424 99.0228 86.2229 99.1257 86.4024C99.2294 86.5819 99.3287 86.7632 99.4071 86.9518C99.4865 87.1394 99.5415 87.3352 99.6065 87.5282L99.9827 88.6874L100.736 91.0059L102.238 95.6436C103.239 98.7352 104.227 101.832 105.217 104.927L111.145 123.505L114.122 132.789L117.115 142.068L129.101 179.18L116.984 142.111L113.951 132.844L110.901 123.583L104.778 105.069C103.76 101.983 102.739 98.8967 101.732 95.8069L100.221 91.1719L99.4676 88.8534L99.0905 87.6942C99.0301 87.5003 98.9588 87.3099 98.9128 87.1115C98.8659 86.913 98.8397 86.7082 98.8181 86.5016C98.7955 86.295 98.7729 86.0894 98.7269 85.89C98.6845 85.6897 98.6151 85.4994 98.5537 85.3054L98.1785 84.1462L97.4279 81.8269L95.9277 77.1882L92.9155 67.9154L86.8759 49.3742C84.8678 43.1947 82.8597 37.0125 80.8958 30.8159Z" fill="url(#paint53_linear_1224_16874)"/>
<path d="M84.8115 29.6565C86.54 35.9226 88.2224 42.2013 89.9031 48.48L94.936 67.3189L97.4601 76.7369L98.7275 81.4442L99.3617 83.7978L99.6784 84.9741C99.7325 85.1699 99.7776 85.3684 99.8516 85.5587C99.921 85.75 100.015 85.9358 100.109 86.1207C100.203 86.3057 100.293 86.4924 100.361 86.6836C100.431 86.8749 100.476 87.0734 100.53 87.2691L100.846 88.4464L101.476 90.8009L102.734 95.5108C103.572 98.6511 104.396 101.795 105.223 104.938L110.172 123.8L112.658 133.228L115.161 142.652L125.189 180.34L115.029 142.687L112.485 133.274L109.924 123.866L104.778 105.057C103.922 101.921 103.065 98.7864 102.221 95.6489L100.954 90.9416L100.323 88.5871L100.008 87.4099C99.9571 87.2132 99.8967 87.0192 99.8606 86.8181C99.8236 86.6178 99.8083 86.4112 99.7975 86.2037C99.7857 85.9962 99.774 85.7897 99.7388 85.5885C99.7072 85.3864 99.6468 85.1925 99.5963 84.9958L99.2823 83.8185L98.6545 81.4631L97.3987 76.7523L94.8755 67.3342L89.8147 48.5026C88.1295 42.2257 86.448 35.9469 84.8115 29.6565Z" fill="url(#paint54_linear_1224_16874)"/>
<path d="M88.7812 28.7037C90.1786 35.0519 91.5309 41.41 92.8805 47.7681L96.9201 66.8451L98.9472 76.3823L99.9666 81.1491L100.476 83.5324L100.732 84.7241C100.776 84.9226 100.81 85.1229 100.874 85.3168C100.934 85.5117 101.018 85.702 101.101 85.8915C101.186 86.0809 101.266 86.2722 101.324 86.467C101.384 86.6619 101.418 86.8621 101.462 87.0606L101.716 88.2523L102.223 90.6366L103.231 95.4061C103.903 98.586 104.563 101.769 105.223 104.95L109.178 124.045L111.167 133.591L113.174 143.132L121.215 181.295L113.039 143.161L110.991 133.629L108.926 124.1L104.772 105.047C104.082 101.872 103.389 98.6961 102.71 95.517L101.691 90.7493L101.184 88.3651L100.931 87.1734C100.89 86.974 100.84 86.7773 100.815 86.5753C100.789 86.3732 100.785 86.1666 100.785 85.9591C100.784 85.7516 100.783 85.5441 100.759 85.3421C100.738 85.1391 100.688 84.9415 100.648 84.7431L100.398 83.5496L99.8944 81.1644L98.8867 76.3949L96.8597 66.8578L92.7911 47.7871C91.438 41.4299 90.0866 35.0718 88.7812 28.7037Z" fill="url(#paint55_linear_1224_16874)"/>
<path d="M92.7971 27.9589C93.8607 34.3711 94.8774 40.7914 95.8932 47.2118L98.9288 66.4737L100.454 76.1038L101.223 80.9175L101.607 83.3243L101.799 84.5277C101.833 84.728 101.857 84.9301 101.91 85.1267C101.96 85.3243 102.034 85.5183 102.107 85.7122C102.182 85.9062 102.251 86.101 102.299 86.2986C102.349 86.4962 102.372 86.6982 102.406 86.8985L102.596 88.1019L102.977 90.5097L103.735 95.3251C104.24 98.5358 104.732 101.748 105.226 104.961L108.175 124.236L109.662 133.872L111.167 143.506L117.2 182.036L111.032 143.527L109.485 133.9L107.922 124.277L104.771 105.033C104.248 101.825 103.723 98.6179 103.21 95.4081L102.443 90.5936L102.061 88.1858L101.871 86.9824C101.841 86.7812 101.801 86.5818 101.787 86.3789C101.771 86.1759 101.778 85.9693 101.788 85.7618C101.798 85.5543 101.808 85.3478 101.795 85.1439C101.785 84.94 101.745 84.7406 101.715 84.5395L101.526 83.3351L101.148 80.9274L100.392 76.111L98.8674 66.4809L95.803 47.2235C94.7836 40.8068 93.7678 34.3864 92.7971 27.9589Z" fill="url(#paint56_linear_1224_16874)"/>
<path d="M96.8458 27.4259C97.572 33.885 98.2522 40.3496 98.9297 46.8141L100.953 66.2087L101.973 75.9055L102.489 80.7535L102.747 83.1775L102.876 84.389C102.899 84.5911 102.913 84.7941 102.955 84.9934C102.994 85.1937 103.058 85.3913 103.121 85.5888C103.185 85.7864 103.245 85.9839 103.282 86.1842C103.321 86.3845 103.334 86.5875 103.357 86.7886L103.484 88.0011L103.739 90.425L104.244 95.2739C104.581 98.5062 104.904 101.74 105.227 104.974L107.164 124.378L108.145 134.078L109.143 143.777L113.152 182.571L109.007 143.791L107.967 134.097L106.91 124.405L104.77 105.022C104.415 101.792 104.058 98.5612 103.715 95.3289L103.201 90.481L102.947 88.057L102.82 86.8446C102.801 86.6425 102.771 86.4413 102.767 86.2374C102.763 86.0336 102.78 85.8279 102.802 85.6213C102.822 85.4147 102.843 85.2081 102.839 85.0042C102.839 84.8004 102.811 84.5992 102.792 84.3962L102.666 83.1838L102.415 80.7589L101.911 75.91L100.893 66.2132L98.8395 46.8214C98.1575 40.3595 97.4782 33.8959 96.8458 27.4259Z" fill="url(#paint57_linear_1224_16874)"/>
<path d="M100.917 27.1058C101.304 33.5947 101.645 40.0855 101.983 46.5771L102.989 66.051L103.5 75.7875L103.761 80.6553L103.892 83.0892L103.957 84.3062C103.97 84.5092 103.973 84.7121 104.005 84.9142C104.034 85.1163 104.087 85.3166 104.139 85.5177C104.194 85.718 104.242 85.9192 104.269 86.1213C104.298 86.3233 104.3 86.5263 104.313 86.7293L104.377 87.9462L104.504 90.3801L104.755 95.2488C104.922 98.4947 105.074 101.741 105.229 104.987L106.148 124.466L106.62 134.204L107.109 143.941L109.082 182.891L106.973 143.949L106.442 134.213L105.892 124.478L104.77 105.011C104.585 101.766 104.397 98.5208 104.224 95.2759L103.964 90.4081L103.837 87.9742L103.773 86.7572C103.765 86.5543 103.745 86.3522 103.752 86.1483C103.758 85.9444 103.786 85.7397 103.818 85.5349C103.85 85.3301 103.881 85.1244 103.889 84.9205C103.9 84.7167 103.881 84.5137 103.872 84.3116L103.81 83.0947L103.686 80.6608L103.437 75.792L102.927 66.0555L101.892 46.5834C101.549 40.0909 101.21 33.5993 100.917 27.1058Z" fill="url(#paint58_linear_1224_16874)"/>
<path d="M104.999 26.9991C105.046 33.4989 105.046 39.9995 105.045 46.4992L105.03 65.9993V75.7494L105.036 80.6244L105.04 83.0619L105.042 84.2807C105.044 84.4837 105.036 84.6866 105.058 84.8905C105.076 85.0935 105.119 85.2965 105.161 85.5004C105.204 85.7033 105.243 85.9063 105.259 86.1093C105.277 86.3123 105.268 86.5152 105.271 86.7191V87.9379V90.3754L105.267 95.2504C105.263 98.5007 105.246 101.75 105.23 105L105.129 124.501L105.09 134.251L105.069 144.001L105 183.001L104.932 144.001L104.911 134.251L104.872 124.501L104.769 104.999C104.753 101.748 104.736 98.4989 104.732 95.2486L104.728 90.3736V87.9361V86.7173C104.73 86.5143 104.722 86.3114 104.74 86.1075C104.756 85.9045 104.795 85.7015 104.838 85.4986C104.88 85.2956 104.923 85.0926 104.941 84.8887C104.963 84.6857 104.955 84.4828 104.957 84.2789L104.959 83.0601L104.963 80.6226L104.969 75.7476V65.9975L104.954 46.4974C104.951 39.9986 104.952 33.4989 104.999 26.9991Z" fill="url(#paint59_linear_1224_16874)"/>
<defs>
<linearGradient id="paint0_linear_1224_16874" x1="101.821" y1="42.6862" x2="115.709" y2="43.6362" gradientUnits="userSpaceOnUse">
<stop stop-color="white"/>
<stop offset="0.514326" stop-color="#0000FF"/>
<stop offset="1" stop-color="white"/>
</linearGradient>
<linearGradient id="paint1_linear_1224_16874" x1="98.651" y1="42.9386" x2="125.999" y2="46.6895" gradientUnits="userSpaceOnUse">
<stop stop-color="white"/>
<stop offset="0.514326" stop-color="#0000FF"/>
<stop offset="1" stop-color="white"/>
</linearGradient>
<linearGradient id="paint2_linear_1224_16874" x1="95.4988" y1="43.3664" x2="135.49" y2="51.6321" gradientUnits="userSpaceOnUse">
<stop stop-color="white"/>
<stop offset="0.514326" stop-color="#0000FF"/>
<stop offset="1" stop-color="white"/>
</linearGradient>
<linearGradient id="paint3_linear_1224_16874" x1="92.3723" y1="43.9633" x2="143.838" y2="58.2409" gradientUnits="userSpaceOnUse">
<stop stop-color="white"/>
<stop offset="0.514326" stop-color="#0000FF"/>
<stop offset="1" stop-color="white"/>
</linearGradient>
<linearGradient id="paint4_linear_1224_16874" x1="89.2819" y1="44.7243" x2="150.762" y2="66.2247" gradientUnits="userSpaceOnUse">
<stop stop-color="white"/>
<stop offset="0.514326" stop-color="#0000FF"/>
<stop offset="1" stop-color="white"/>
</linearGradient>
<linearGradient id="paint5_linear_1224_16874" x1="86.233" y1="45.652" x2="156.056" y2="75.2603" gradientUnits="userSpaceOnUse">
<stop stop-color="white"/>
<stop offset="0.514326" stop-color="#0000FF"/>
<stop offset="1" stop-color="white"/>
</linearGradient>
<linearGradient id="paint6_linear_1224_16874" x1="83.2357" y1="46.7436" x2="159.604" y2="85.0031" gradientUnits="userSpaceOnUse">
<stop stop-color="white"/>
<stop offset="0.514326" stop-color="#0000FF"/>
<stop offset="1" stop-color="white"/>
</linearGradient>
<linearGradient id="paint7_linear_1224_16874" x1="80.2976" y1="47.9944" x2="161.357" y2="95.0962" gradientUnits="userSpaceOnUse">
<stop stop-color="white"/>
<stop offset="0.514326" stop-color="#0000FF"/>
<stop offset="1" stop-color="white"/>
</linearGradient>
<linearGradient id="paint8_linear_1224_16874" x1="77.428" y1="49.3998" x2="161.344" y2="105.201" gradientUnits="userSpaceOnUse">
<stop stop-color="white"/>
<stop offset="0.514326" stop-color="#0000FF"/>
<stop offset="1" stop-color="white"/>
</linearGradient>
<linearGradient id="paint9_linear_1224_16874" x1="74.6341" y1="50.9611" x2="159.653" y2="115.025" gradientUnits="userSpaceOnUse">
<stop stop-color="white"/>
<stop offset="0.514326" stop-color="#0000FF"/>
<stop offset="1" stop-color="white"/>
</linearGradient>
<linearGradient id="paint10_linear_1224_16874" x1="71.9243" y1="52.6658" x2="156.419" y2="124.278" gradientUnits="userSpaceOnUse">
<stop stop-color="white"/>
<stop offset="0.514326" stop-color="#0000FF"/>
<stop offset="1" stop-color="white"/>
</linearGradient>
<linearGradient id="paint11_linear_1224_16874" x1="69.3036" y1="54.5154" x2="151.812" y2="132.751" gradientUnits="userSpaceOnUse">
<stop stop-color="white"/>
<stop offset="0.514326" stop-color="#0000FF"/>
<stop offset="1" stop-color="white"/>
</linearGradient>
<linearGradient id="paint12_linear_1224_16874" x1="66.7813" y1="56.5047" x2="146.031" y2="140.258" gradientUnits="userSpaceOnUse">
<stop stop-color="white"/>
<stop offset="0.514326" stop-color="#0000FF"/>
<stop offset="1" stop-color="white"/>
</linearGradient>
<linearGradient id="paint13_linear_1224_16874" x1="64.3636" y1="58.6269" x2="139.284" y2="146.666" gradientUnits="userSpaceOnUse">
<stop stop-color="white"/>
<stop offset="0.514326" stop-color="#0000FF"/>
<stop offset="1" stop-color="white"/>
</linearGradient>
<linearGradient id="paint14_linear_1224_16874" x1="62.0576" y1="60.8743" x2="131.789" y2="151.879" gradientUnits="userSpaceOnUse">
<stop stop-color="white"/>
<stop offset="0.514326" stop-color="#0000FF"/>
<stop offset="1" stop-color="white"/>
</linearGradient>
<linearGradient id="paint15_linear_1224_16874" x1="59.8684" y1="63.2442" x2="123.756" y2="155.844" gradientUnits="userSpaceOnUse">
<stop stop-color="white"/>
<stop offset="0.514326" stop-color="#0000FF"/>
<stop offset="1" stop-color="white"/>
</linearGradient>
<linearGradient id="paint16_linear_1224_16874" x1="57.8041" y1="65.7274" x2="115.394" y2="158.541" gradientUnits="userSpaceOnUse">
<stop stop-color="white"/>
<stop offset="0.514326" stop-color="#0000FF"/>
<stop offset="1" stop-color="white"/>
</linearGradient>
<linearGradient id="paint17_linear_1224_16874" x1="55.8696" y1="68.3204" x2="106.894" y2="159.977" gradientUnits="userSpaceOnUse">
<stop stop-color="white"/>
<stop offset="0.514326" stop-color="#0000FF"/>
<stop offset="1" stop-color="white"/>
</linearGradient>
<linearGradient id="paint18_linear_1224_16874" x1="54.0682" y1="71.0126" x2="98.4389" y2="160.183" gradientUnits="userSpaceOnUse">
<stop stop-color="white"/>
<stop offset="0.514326" stop-color="#0000FF"/>
<stop offset="1" stop-color="white"/>
</linearGradient>
<linearGradient id="paint19_linear_1224_16874" x1="52.4069" y1="73.799" x2="90.1924" y2="159.213" gradientUnits="userSpaceOnUse">
<stop stop-color="white"/>
<stop offset="0.514326" stop-color="#0000FF"/>
<stop offset="1" stop-color="white"/>
</linearGradient>
<linearGradient id="paint20_linear_1224_16874" x1="50.89" y1="76.6697" x2="82.3062" y2="157.138" gradientUnits="userSpaceOnUse">
<stop stop-color="white"/>
<stop offset="0.514326" stop-color="#0000FF"/>
<stop offset="1" stop-color="white"/>
</linearGradient>
<linearGradient id="paint21_linear_1224_16874" x1="49.5205" y1="79.6189" x2="74.9081" y2="154.038" gradientUnits="userSpaceOnUse">
<stop stop-color="white"/>
<stop offset="0.514326" stop-color="#0000FF"/>
<stop offset="1" stop-color="white"/>
</linearGradient>
<linearGradient id="paint22_linear_1224_16874" x1="48.3032" y1="82.6374" x2="68.1189" y2="150.009" gradientUnits="userSpaceOnUse">
<stop stop-color="white"/>
<stop offset="0.514326" stop-color="#0000FF"/>
<stop offset="1" stop-color="white"/>
</linearGradient>
<linearGradient id="paint23_linear_1224_16874" x1="47.2415" y1="85.7177" x2="62.0382" y2="145.152" gradientUnits="userSpaceOnUse">
<stop stop-color="white"/>
<stop offset="0.514326" stop-color="#0000FF"/>
<stop offset="1" stop-color="white"/>
</linearGradient>
<linearGradient id="paint24_linear_1224_16874" x1="46.3403" y1="88.8464" x2="56.7563" y2="139.577" gradientUnits="userSpaceOnUse">
<stop stop-color="white"/>
<stop offset="0.514326" stop-color="#0000FF"/>
<stop offset="1" stop-color="white"/>
</linearGradient>
<linearGradient id="paint25_linear_1224_16874" x1="45.5972" y1="92.0256" x2="52.335" y2="133.396" gradientUnits="userSpaceOnUse">
<stop stop-color="white"/>
<stop offset="0.514326" stop-color="#0000FF"/>
<stop offset="1" stop-color="white"/>
</linearGradient>
<linearGradient id="paint26_linear_1224_16874" x1="45.0174" y1="95.2379" x2="48.8388" y2="126.727" gradientUnits="userSpaceOnUse">
<stop stop-color="white"/>
<stop offset="0.514326" stop-color="#0000FF"/>
<stop offset="1" stop-color="white"/>
</linearGradient>
<linearGradient id="paint27_linear_1224_16874" x1="44.6024" y1="98.4768" x2="46.3107" y2="119.689" gradientUnits="userSpaceOnUse">
<stop stop-color="white"/>
<stop offset="0.514326" stop-color="#0000FF"/>
<stop offset="1" stop-color="white"/>
</linearGradient>
<linearGradient id="paint28_linear_1224_16874" x1="44.3535" y1="101.732" x2="44.7821" y2="112.406" gradientUnits="userSpaceOnUse">
<stop stop-color="white"/>
<stop offset="0.514326" stop-color="#0000FF"/>
<stop offset="1" stop-color="white"/>
</linearGradient>
<linearGradient id="paint29_linear_1224_16874" x1="44.2707" y1="104.78" x2="44.2725" y2="105.49" gradientUnits="userSpaceOnUse">
<stop stop-color="white"/>
<stop offset="0.514326" stop-color="#0000FF"/>
<stop offset="1" stop-color="white"/>
</linearGradient>
<linearGradient id="paint30_linear_1224_16874" x1="44.3533" y1="101.733" x2="44.7819" y2="112.407" gradientUnits="userSpaceOnUse">
<stop stop-color="white"/>
<stop offset="0.514326" stop-color="#0000FF"/>
<stop offset="1" stop-color="white"/>
</linearGradient>
<linearGradient id="paint31_linear_1224_16874" x1="44.6027" y1="98.4757" x2="46.3107" y2="119.687" gradientUnits="userSpaceOnUse">
<stop stop-color="white"/>
<stop offset="0.514326" stop-color="#0000FF"/>
<stop offset="1" stop-color="white"/>
</linearGradient>
<linearGradient id="paint32_linear_1224_16874" x1="45.0177" y1="95.2373" x2="48.8388" y2="126.725" gradientUnits="userSpaceOnUse">
<stop stop-color="white"/>
<stop offset="0.514326" stop-color="#0000FF"/>
<stop offset="1" stop-color="white"/>
</linearGradient>
<linearGradient id="paint33_linear_1224_16874" x1="45.5971" y1="92.0248" x2="52.3357" y2="133.397" gradientUnits="userSpaceOnUse">
<stop stop-color="white"/>
<stop offset="0.514326" stop-color="#0000FF"/>
<stop offset="1" stop-color="white"/>
</linearGradient>
<linearGradient id="paint34_linear_1224_16874" x1="46.3403" y1="88.8493" x2="56.7563" y2="139.58" gradientUnits="userSpaceOnUse">
<stop stop-color="white"/>
<stop offset="0.514326" stop-color="#0000FF"/>
<stop offset="1" stop-color="white"/>
</linearGradient>
<linearGradient id="paint35_linear_1224_16874" x1="47.2417" y1="85.716" x2="62.0393" y2="145.153" gradientUnits="userSpaceOnUse">
<stop stop-color="white"/>
<stop offset="0.514326" stop-color="#0000FF"/>
<stop offset="1" stop-color="white"/>
</linearGradient>
<linearGradient id="paint36_linear_1224_16874" x1="48.3031" y1="82.6363" x2="68.1201" y2="150.01" gradientUnits="userSpaceOnUse">
<stop stop-color="white"/>
<stop offset="0.514326" stop-color="#0000FF"/>
<stop offset="1" stop-color="white"/>
</linearGradient>
<linearGradient id="paint37_linear_1224_16874" x1="49.5204" y1="79.6186" x2="74.9094" y2="154.039" gradientUnits="userSpaceOnUse">
<stop stop-color="white"/>
<stop offset="0.514326" stop-color="#0000FF"/>
<stop offset="1" stop-color="white"/>
</linearGradient>
<linearGradient id="paint38_linear_1224_16874" x1="50.89" y1="76.6695" x2="82.3049" y2="157.136" gradientUnits="userSpaceOnUse">
<stop stop-color="white"/>
<stop offset="0.514326" stop-color="#0000FF"/>
<stop offset="1" stop-color="white"/>
</linearGradient>
<linearGradient id="paint39_linear_1224_16874" x1="52.4066" y1="73.7987" x2="90.1948" y2="159.215" gradientUnits="userSpaceOnUse">
<stop stop-color="white"/>
<stop offset="0.514326" stop-color="#0000FF"/>
<stop offset="1" stop-color="white"/>
</linearGradient>
<linearGradient id="paint40_linear_1224_16874" x1="54.0681" y1="71.0135" x2="98.4382" y2="160.183" gradientUnits="userSpaceOnUse">
<stop stop-color="white"/>
<stop offset="0.514326" stop-color="#0000FF"/>
<stop offset="1" stop-color="white"/>
</linearGradient>
<linearGradient id="paint41_linear_1224_16874" x1="55.8695" y1="68.3205" x2="106.895" y2="159.977" gradientUnits="userSpaceOnUse">
<stop stop-color="white"/>
<stop offset="0.514326" stop-color="#0000FF"/>
<stop offset="1" stop-color="white"/>
</linearGradient>
<linearGradient id="paint42_linear_1224_16874" x1="57.8042" y1="65.7294" x2="115.392" y2="158.542" gradientUnits="userSpaceOnUse">
<stop stop-color="white"/>
<stop offset="0.514326" stop-color="#0000FF"/>
<stop offset="1" stop-color="white"/>
</linearGradient>
<linearGradient id="paint43_linear_1224_16874" x1="59.8684" y1="63.2452" x2="123.756" y2="155.845" gradientUnits="userSpaceOnUse">
<stop stop-color="white"/>
<stop offset="0.514326" stop-color="#0000FF"/>
<stop offset="1" stop-color="white"/>
</linearGradient>
<linearGradient id="paint44_linear_1224_16874" x1="62.0577" y1="60.8752" x2="131.788" y2="151.88" gradientUnits="userSpaceOnUse">
<stop stop-color="white"/>
<stop offset="0.514326" stop-color="#0000FF"/>
<stop offset="1" stop-color="white"/>
</linearGradient>
<linearGradient id="paint45_linear_1224_16874" x1="64.3636" y1="58.6268" x2="139.283" y2="146.666" gradientUnits="userSpaceOnUse">
<stop stop-color="white"/>
<stop offset="0.514326" stop-color="#0000FF"/>
<stop offset="1" stop-color="white"/>
</linearGradient>
<linearGradient id="paint46_linear_1224_16874" x1="66.7814" y1="56.5046" x2="146.03" y2="140.259" gradientUnits="userSpaceOnUse">
<stop stop-color="white"/>
<stop offset="0.514326" stop-color="#0000FF"/>
<stop offset="1" stop-color="white"/>
</linearGradient>
<linearGradient id="paint47_linear_1224_16874" x1="69.3034" y1="54.5164" x2="151.812" y2="132.75" gradientUnits="userSpaceOnUse">
<stop stop-color="white"/>
<stop offset="0.514326" stop-color="#0000FF"/>
<stop offset="1" stop-color="white"/>
</linearGradient>
<linearGradient id="paint48_linear_1224_16874" x1="71.9244" y1="52.6659" x2="156.42" y2="124.278" gradientUnits="userSpaceOnUse">
<stop stop-color="white"/>
<stop offset="0.514326" stop-color="#0000FF"/>
<stop offset="1" stop-color="white"/>
</linearGradient>
<linearGradient id="paint49_linear_1224_16874" x1="74.6338" y1="50.9583" x2="159.653" y2="115.019" gradientUnits="userSpaceOnUse">
<stop stop-color="white"/>
<stop offset="0.514326" stop-color="#0000FF"/>
<stop offset="1" stop-color="white"/>
</linearGradient>
<linearGradient id="paint50_linear_1224_16874" x1="77.4282" y1="49.4007" x2="161.345" y2="105.204" gradientUnits="userSpaceOnUse">
<stop stop-color="white"/>
<stop offset="0.514326" stop-color="#0000FF"/>
<stop offset="1" stop-color="white"/>
</linearGradient>
<linearGradient id="paint51_linear_1224_16874" x1="80.2974" y1="47.994" x2="161.356" y2="95.0937" gradientUnits="userSpaceOnUse">
<stop stop-color="white"/>
<stop offset="0.514326" stop-color="#0000FF"/>
<stop offset="1" stop-color="white"/>
</linearGradient>
<linearGradient id="paint52_linear_1224_16874" x1="83.2355" y1="46.7427" x2="159.602" y2="85.0001" gradientUnits="userSpaceOnUse">
<stop stop-color="white"/>
<stop offset="0.514326" stop-color="#0000FF"/>
<stop offset="1" stop-color="white"/>
</linearGradient>
<linearGradient id="paint53_linear_1224_16874" x1="86.2328" y1="45.6523" x2="156.054" y2="75.259" gradientUnits="userSpaceOnUse">
<stop stop-color="white"/>
<stop offset="0.514326" stop-color="#0000FF"/>
<stop offset="1" stop-color="white"/>
</linearGradient>
<linearGradient id="paint54_linear_1224_16874" x1="89.2819" y1="44.7248" x2="150.762" y2="66.2253" gradientUnits="userSpaceOnUse">
<stop stop-color="white"/>
<stop offset="0.514326" stop-color="#0000FF"/>
<stop offset="1" stop-color="white"/>
</linearGradient>
<linearGradient id="paint55_linear_1224_16874" x1="92.3721" y1="43.9628" x2="143.836" y2="58.2389" gradientUnits="userSpaceOnUse">
<stop stop-color="white"/>
<stop offset="0.514326" stop-color="#0000FF"/>
<stop offset="1" stop-color="white"/>
</linearGradient>
<linearGradient id="paint56_linear_1224_16874" x1="95.4989" y1="43.3666" x2="135.491" y2="51.6331" gradientUnits="userSpaceOnUse">
<stop stop-color="white"/>
<stop offset="0.514326" stop-color="#0000FF"/>
<stop offset="1" stop-color="white"/>
</linearGradient>
<linearGradient id="paint57_linear_1224_16874" x1="98.6511" y1="42.9403" x2="126" y2="46.6917" gradientUnits="userSpaceOnUse">
<stop stop-color="white"/>
<stop offset="0.514326" stop-color="#0000FF"/>
<stop offset="1" stop-color="white"/>
</linearGradient>
<linearGradient id="paint58_linear_1224_16874" x1="101.821" y1="42.6843" x2="115.709" y2="43.6343" gradientUnits="userSpaceOnUse">
<stop stop-color="white"/>
<stop offset="0.514326" stop-color="#0000FF"/>
<stop offset="1" stop-color="white"/>
</linearGradient>
<linearGradient id="paint59_linear_1224_16874" x1="104.788" y1="42.5993" x2="105.716" y2="42.6035" gradientUnits="userSpaceOnUse">
<stop stop-color="white"/>
<stop offset="0.514326" stop-color="#0000FF"/>
<stop offset="1" stop-color="white"/>
</linearGradient>
</defs>
</svg>
