<svg width="48" height="48" viewBox="0 0 48 48" fill="none" xmlns="http://www.w3.org/2000/svg">
<rect width="48" height="48" rx="14" fill="#0B0B0B"/>
<path d="M24.3335 38C31.8813 38 38 31.8813 38 24.3335C38 16.7857 31.8813 10.667 24.3335 10.667C16.7857 10.667 10.667 16.7857 10.667 24.3335C10.667 31.8813 16.7857 38 24.3335 38Z" fill="url(#paint0_linear_1541_21083)"/>
<path d="M16.3544 24.215L25.5575 20.4232C26.466 20.0282 29.5469 18.7642 29.5469 18.7642C29.5469 18.7642 30.9688 18.2112 30.8504 19.5542C30.8109 20.1072 30.4949 22.0426 30.1789 24.136L29.1914 30.3373C29.1914 30.3373 29.1124 31.2458 28.4409 31.4038C27.7695 31.5617 26.6635 30.8508 26.466 30.6928C26.308 30.5743 23.5036 28.7968 22.4767 27.9279C22.2002 27.6909 21.8842 27.2169 22.5162 26.6639C23.9381 25.3605 25.6365 23.741 26.6635 22.7141C27.1375 22.2401 27.6115 21.1341 25.6365 22.4771L20.0672 26.2294C20.0672 26.2294 19.4353 26.6244 18.2503 26.2689C17.0654 25.9135 15.6829 25.4395 15.6829 25.4395C15.6829 25.4395 14.7349 24.847 16.3544 24.215Z" fill="white"/>
<defs>
<linearGradient id="paint0_linear_1541_21083" x1="28.89" y1="15.2235" x2="22.0568" y2="31.1667" gradientUnits="userSpaceOnUse">
<stop stop-color="#37AEE2"/>
<stop offset="1" stop-color="#1E96C8"/>
</linearGradient>
</defs>
</svg>
