<svg width="52" height="52" viewBox="0 0 52 52" fill="none" xmlns="http://www.w3.org/2000/svg">
<rect width="52" height="52" rx="26" fill="#0B0B0B"/>
<path d="M18.1035 25.0325L28.8255 20.5803C29.8839 20.1165 33.4733 18.6324 33.4733 18.6324C33.4733 18.6324 35.1299 17.9831 34.9918 19.56C34.9458 20.2093 34.5777 22.4818 34.2095 24.9398L33.0591 32.2211C33.0591 32.2211 32.9671 33.2878 32.1848 33.4733C31.4025 33.6588 30.114 32.824 29.8839 32.6385C29.6999 32.4994 26.4326 30.4124 25.2362 29.392C24.9141 29.1138 24.5459 28.5572 25.2822 27.908C26.9388 26.3775 28.9176 24.476 30.114 23.2702C30.6662 22.7137 31.2184 21.4151 28.9176 22.9919L22.4291 27.3978C22.4291 27.3978 21.6929 27.8616 20.3124 27.4442C18.9318 27.0268 17.3212 26.4703 17.3212 26.4703C17.3212 26.4703 16.2168 25.7746 18.1035 25.0325Z" fill="#53C9FF"/>
</svg>
