<svg width="32" height="32" viewBox="0 0 32 32" fill="none" xmlns="http://www.w3.org/2000/svg">
<path d="M5.47138 14.7101L19.7674 8.77372C21.1786 8.15535 25.9643 6.17657 25.9643 6.17657C25.9643 6.17657 28.1732 5.31085 27.9891 7.4133C27.9277 8.27902 27.4369 11.309 26.946 14.5864L25.4121 24.2948C25.4121 24.2948 25.2894 25.717 24.2464 25.9644C23.2033 26.2117 21.4853 25.0987 21.1786 24.8513C20.9331 24.6658 16.5769 21.8831 14.9816 20.5227C14.5521 20.1517 14.0612 19.4097 15.0429 18.5439C17.2518 16.5033 19.8901 13.968 21.4853 12.3603C22.2216 11.6182 22.9579 9.88678 19.8901 11.9892L11.2389 17.8637C11.2389 17.8637 10.2572 18.4821 8.41648 17.9256C6.57579 17.369 4.42832 16.627 4.42832 16.627C4.42832 16.627 2.95577 15.6995 5.47138 14.7101Z" fill="#0B0B0B"/>
</svg>
