<svg width="52" height="52" viewBox="0 0 52 52" fill="none" xmlns="http://www.w3.org/2000/svg">
<rect width="52" height="52" rx="26" fill="#0B0B0B"/>
<path d="M31.3112 19.753C29.2264 19.6806 27.8151 20.9206 27.0773 23.4732C27.4282 23.3092 27.8067 23.2214 28.1905 23.2152C28.9561 23.2152 29.2907 23.67 29.2006 24.5729C29.04 25.4361 28.7066 26.2531 28.2226 26.9693C27.5791 28.0215 27.1159 28.5443 26.807 28.5443C26.3952 28.5443 26.0284 27.7365 25.6874 26.1207C25.578 25.6455 25.3721 24.4304 25.0825 22.482C24.8123 20.6762 24.0916 19.8277 22.9205 19.9499C22.4251 19.9974 21.6851 20.4726 20.6942 21.3755C19.9735 22.0543 19.24 22.7332 18.5 23.4121L19.2078 24.3761C19.5565 24.0874 19.9421 23.852 20.3531 23.6768C20.8743 23.6768 21.3505 24.5322 21.8009 26.2429L23.0171 30.9407C23.6219 32.6469 24.364 33.5 25.2434 33.5C26.6504 33.5 28.3792 32.097 30.4297 29.291C32.4029 26.6118 33.4239 24.4982 33.4926 22.9504C33.5826 20.8528 32.8555 19.8005 31.3112 19.753Z" fill="white"/>
</svg>
