<svg width="48" height="48" viewBox="0 0 48 48" fill="none" xmlns="http://www.w3.org/2000/svg">
<rect x="1" y="1" width="46" height="46" rx="23" fill="white"/>
<path d="M29.8112 17.753C27.7264 17.6806 26.3151 18.9206 25.5773 21.4732C25.9282 21.3092 26.3067 21.2214 26.6905 21.2152C27.4561 21.2152 27.7907 21.67 27.7006 22.5729C27.54 23.4361 27.2066 24.2531 26.7226 24.9693C26.0791 26.0215 25.6159 26.5443 25.307 26.5443C24.8952 26.5443 24.5284 25.7365 24.1874 24.1207C24.078 23.6455 23.8721 22.4304 23.5825 20.482C23.3123 18.6762 22.5916 17.8277 21.4205 17.9499C20.9251 17.9974 20.1851 18.4726 19.1942 19.3755C18.4735 20.0543 17.74 20.7332 17 21.4121L17.7078 22.3761C18.0565 22.0874 18.4421 21.852 18.8531 21.6768C19.3743 21.6768 19.8505 22.5322 20.3009 24.2429L21.5171 28.9407C22.1219 30.6469 22.864 31.5 23.7434 31.5C25.1504 31.5 26.8792 30.097 28.9297 27.291C30.9029 24.6118 31.9239 22.4982 31.9926 20.9504C32.0826 18.8528 31.3555 17.8005 29.8112 17.753Z" fill="black"/>
<rect x="1" y="1" width="46" height="46" rx="23" stroke="#EAEAEA" stroke-width="2"/>
</svg>
