<svg width="48" height="48" viewBox="0 0 48 48" fill="none" xmlns="http://www.w3.org/2000/svg">
<rect width="48" height="48" rx="14" fill="#0B0B0B"/>
<path d="M18.648 33.237L19.0434 33.4783C20.7042 34.4938 22.6085 35.031 24.5504 35.0319H24.5545C30.5181 35.0319 35.3715 30.0326 35.3739 23.8881C35.375 20.9105 34.2506 18.1105 32.2079 16.0042C31.2059 14.9654 30.014 14.1417 28.701 13.5808C27.388 13.0198 25.9801 12.7328 24.5587 12.7362C18.5905 12.7362 13.7369 17.735 13.7348 23.8791C13.7319 25.9772 14.3053 28.0333 15.3889 29.8097L15.6463 30.2311L14.5531 34.343L18.648 33.237ZM11.4276 37.5286L13.2745 30.5811C12.1354 28.5479 11.5362 26.2413 11.5369 23.8782C11.5399 16.4856 17.3791 10.4714 24.5546 10.4714C28.0367 10.4732 31.305 11.8693 33.763 14.4036C36.221 16.9378 37.5735 20.3064 37.5722 23.889C37.569 31.2811 31.7289 37.2964 24.5545 37.2964H24.5488C22.3703 37.2955 20.2297 36.7324 18.3283 35.6642L11.4276 37.5286Z" fill="#B3B3B3"/>
<path d="M11.294 37.3908L13.1409 30.4433C11.9999 28.4052 11.4006 26.0932 11.4033 23.7404C11.4064 16.3478 17.2456 10.3336 24.4211 10.3336C27.9031 10.3354 31.1715 11.7315 33.6295 14.2657C36.0875 16.8 37.4399 20.1686 37.4387 23.7512C37.4355 31.1433 31.5954 37.1586 24.4209 37.1586H24.4153C22.2368 37.1577 20.0962 36.5946 18.1948 35.5264L11.294 37.3908Z" fill="white"/>
<path d="M24.4255 12.5987C18.4573 12.5987 13.6037 17.5974 13.6016 23.7416C13.5986 25.8396 14.1721 27.8957 15.2556 29.6721L15.5131 30.0937L14.4198 34.2057L18.5149 33.0994L18.9104 33.3407C20.5712 34.3562 22.4754 34.8932 24.4173 34.8943H24.4214C30.385 34.8943 35.2386 29.8951 35.2409 23.7505C35.2454 22.286 34.9678 20.8351 34.4244 19.4818C33.8809 18.1285 33.0823 16.8997 32.0748 15.8666C31.0729 14.8278 29.8809 14.0041 28.5679 13.4432C27.2548 12.8822 25.8469 12.5952 24.4255 12.5987Z" fill="url(#paint0_linear_1541_21087)"/>
<path fill-rule="evenodd" clip-rule="evenodd" d="M21.1679 18.1356C20.9241 17.5776 20.6675 17.5663 20.4359 17.5567L19.8124 17.5488C19.5955 17.5488 19.2431 17.6327 18.9452 17.9681C18.6472 18.3035 17.8066 19.1141 17.8066 20.7628C17.8066 22.4116 18.9722 24.0047 19.1346 24.2286C19.2971 24.4524 21.3848 27.9437 24.6909 29.2869C27.4384 30.4032 27.9975 30.1812 28.5941 30.1254C29.1907 30.0696 30.5185 29.3148 30.7894 28.5322C31.0602 27.7497 31.0604 27.0793 30.9792 26.9391C30.898 26.7989 30.6811 26.7156 30.3555 26.5479C30.03 26.3802 28.4311 25.5696 28.133 25.4577C27.8349 25.3458 27.6182 25.2902 27.4011 25.6256C27.184 25.961 26.5614 26.7154 26.3716 26.9391C26.1817 27.1628 25.9922 27.1908 25.6667 27.0233C25.3411 26.8558 24.2938 26.5018 23.051 25.3602C22.0841 24.4719 21.4315 23.3749 21.2415 23.0397C21.0514 22.7045 21.2213 22.5229 21.3844 22.356C21.5304 22.2058 21.7096 21.9646 21.8725 21.769C22.0355 21.5734 22.0891 21.4336 22.1974 21.2103C22.3057 20.987 22.2517 20.7909 22.1703 20.6234C22.0889 20.4559 21.4569 18.7986 21.1679 18.1358" fill="white"/>
<defs>
<linearGradient id="paint0_linear_1541_21087" x1="24.2009" y1="13.9366" x2="24.3174" y2="32.9896" gradientUnits="userSpaceOnUse">
<stop stop-color="#57D163"/>
<stop offset="1" stop-color="#23B33A"/>
</linearGradient>
</defs>
</svg>
