<svg width="52" height="52" viewBox="0 0 52 52" fill="none" xmlns="http://www.w3.org/2000/svg">
<rect width="52" height="52" rx="26" fill="#0B0B0B"/>
<g clip-path="url(#clip0_1224_17389)">
<path fill-rule="evenodd" clip-rule="evenodd" d="M37 25.7168C37 31.6343 32.1646 36.4328 26.2002 36.4328C24.3058 36.4328 22.5267 35.9495 20.9797 35.0995L15 37L16.9489 31.2508C15.9652 29.6354 15.3996 27.7418 15.3996 25.7176C15.3996 19.7978 20.2351 15 26.2002 15C32.1646 15 37 19.7978 37 25.7168ZM26.2002 16.7069C21.1918 16.7069 17.1195 20.7484 17.1195 25.7168C17.1195 27.6873 17.7612 29.5132 18.8487 30.9995L17.7151 34.3448L21.2041 33.2366C22.6374 34.1773 24.355 34.726 26.2002 34.726C31.2062 34.726 35.2801 30.6844 35.2801 25.7168C35.2801 20.7484 31.2062 16.7069 26.2002 16.7069ZM31.6535 28.1852C31.5866 28.0753 31.4099 28.01 31.1463 27.8786C30.8812 27.7472 29.5793 27.1116 29.3365 27.024C29.0944 26.9364 28.9161 26.8926 28.7409 27.1554C28.5641 27.4183 28.0569 28.01 27.9017 28.1852C27.748 28.3612 27.5935 28.382 27.3291 28.2506C27.064 28.1192 26.2102 27.841 25.1996 26.9472C24.4134 26.2501 23.8816 25.391 23.7264 25.1281C23.5727 24.8653 23.711 24.7239 23.8424 24.5925C23.9615 24.4741 24.1076 24.2858 24.2397 24.1329C24.3727 23.9792 24.4165 23.8686 24.5049 23.6933C24.5933 23.5181 24.5494 23.3652 24.4826 23.2338C24.4173 23.1024 23.887 21.8097 23.6664 21.2833C23.4474 20.7584 23.2261 20.7776 23.0708 20.7776C22.9171 20.7776 22.6313 20.8237 22.6313 20.8237C22.6313 20.8237 22.1002 20.8891 21.8581 21.1519C21.6161 21.4147 20.9321 22.0503 20.9321 23.3421C20.9321 24.6348 21.8797 25.8843 22.0126 26.0588C22.1456 26.2348 23.8432 28.9737 26.5353 30.025C29.2266 31.0764 29.2266 30.7259 29.7123 30.6813C30.1972 30.6383 31.2785 30.0466 31.499 29.4325C31.7196 28.82 31.7196 28.2944 31.6535 28.1852Z" fill="#32D951"/>
</g>
<defs>
<clipPath id="clip0_1224_17389">
<rect width="22" height="22" fill="white" transform="translate(15 15)"/>
</clipPath>
</defs>
</svg>
