<svg width="32" height="32" viewBox="0 0 32 32" fill="none" xmlns="http://www.w3.org/2000/svg">
<g clip-path="url(#clip0_1224_17205)">
<path fill-rule="evenodd" clip-rule="evenodd" d="M28 15.6911C28 22.1465 22.725 27.3813 16.2184 27.3813C14.1518 27.3813 12.211 26.854 10.5234 25.9267L4 28L6.1261 21.7282C5.05299 19.9659 4.43595 17.9002 4.43595 15.6919C4.43595 9.23394 9.71097 4 16.2184 4C22.725 4 28 9.23394 28 15.6911ZM16.2184 5.86202C10.7547 5.86202 6.31222 10.271 6.31222 15.6911C6.31222 17.8406 7.01226 19.8326 8.19855 21.454L6.96196 25.1034L10.7682 23.8945C12.3317 24.9207 14.2055 25.5193 16.2184 25.5193C21.6795 25.5193 26.1237 21.1103 26.1237 15.6911C26.1237 10.271 21.6795 5.86202 16.2184 5.86202ZM22.1675 18.3839C22.0945 18.264 21.9017 18.1928 21.6141 18.0494C21.3249 17.906 19.9047 17.2127 19.6398 17.1171C19.3757 17.0216 19.1812 16.9738 18.99 17.2605C18.7972 17.5472 18.2439 18.1928 18.0745 18.3839C17.9069 18.5759 17.7384 18.5985 17.45 18.4552C17.1607 18.3118 16.2293 18.0083 15.1268 17.0333C14.2692 16.2729 13.689 15.3356 13.5197 15.0489C13.352 14.7621 13.5029 14.6079 13.6463 14.4645C13.7762 14.3354 13.9355 14.13 14.0797 13.9632C14.2248 13.7955 14.2725 13.6748 14.369 13.4836C14.4654 13.2925 14.4176 13.1257 14.3446 12.9823C14.2734 12.8389 13.6949 11.4288 13.4543 10.8545C13.2154 10.2819 12.9739 10.3029 12.8046 10.3029C12.6369 10.3029 12.325 10.3532 12.325 10.3532C12.325 10.3532 11.7457 10.4244 11.4816 10.7111C11.2175 10.9979 10.4714 11.6912 10.4714 13.1005C10.4714 14.5106 11.5051 15.8738 11.6501 16.0641C11.7952 16.2561 13.6471 19.2441 16.5839 20.391C19.5199 21.5378 19.5199 21.1556 20.0497 21.1069C20.5788 21.06 21.7583 20.4144 21.999 19.7446C22.2396 19.0764 22.2396 18.503 22.1675 18.3839Z" fill="#0B0B0B"/>
</g>
<defs>
<clipPath id="clip0_1224_17205">
<rect width="24" height="24" fill="white" transform="translate(4 4)"/>
</clipPath>
</defs>
</svg>
